<svg width="40" height="40" viewBox="0 0 40 40" fill="none" xmlns="http://www.w3.org/2000/svg">
<g id="icon-couple">
<circle id="Ellipse 213" cx="19.3334" cy="20" r="19" fill="#DCF5F0"/>
<path id="Vector" d="M19.1348 14.0601C19.1348 14.0601 14.4218 11.9216 13.7089 9.26787C12.9959 6.61417 13.3526 4.6738 14.58 4.39676C15.8074 4.11972 19.0552 5.07009 19.0552 5.07009C19.0552 5.07009 21.8274 3.6838 23.1344 4.55528C24.4415 5.42676 25.5504 7.12935 24.4811 8.95121C23.4118 10.7731 19.1344 14.0601 19.1344 14.0601H19.1348Z" fill="#FFE6B3"/>
<path id="Vector_2" d="M17.1152 16.4364C17.1152 16.4364 15.8874 13.8623 13.6696 13.9412C11.4519 14.0201 9.07557 14.179 8.04594 15.5649C7.01631 16.9509 6.26372 19.6442 6.26372 19.6442L5.43186 21.6638C5.43186 21.6638 6.62001 24.0401 6.85779 25.149C7.09557 26.2579 7.61038 26.7331 7.61038 26.7331C7.61038 26.7331 8.20446 27.3138 8.89075 27.1027C9.57705 26.8916 10.0789 26.7068 10.0789 26.7068L9.86779 28.0534C9.86779 28.0534 7.41223 28.3968 6.85779 29.0305C6.30335 29.6642 4.98335 30.5353 4.64001 32.146C4.29668 33.7568 4.4289 36.1327 4.4289 36.1327L17.7622 36.0009L18.0263 31.3275L18.7393 29.796L18.053 28.9775L15.1485 28.1064L14.5808 28.0009L14.3563 26.9712C14.3563 26.9712 15.703 25.2023 15.7556 25.0968C15.8082 24.9912 17.1548 21.0309 16.97 19.6316C16.7852 18.2323 17.1152 16.4368 17.1152 16.4368" fill="#DEF6FF"/>
<path id="Vector_3" d="M28.0063 12.7523C28.0063 12.7523 25.5111 12.2375 25.0755 13.0297C24.64 13.822 24.2437 14.0594 24.2437 14.0594C24.2437 14.0594 22.0655 14.2179 21.7485 14.812C21.4315 15.406 20.9959 17.6238 20.9959 18.6138C20.9959 19.6038 21.1544 22.7723 22.303 23.9208C23.4515 25.0694 24.2833 25.5049 24.2833 25.5049L24.0059 26.8516C24.0059 26.8516 20.4415 27.6042 19.4911 28.7527L18.5407 29.9012L17.6696 36.0397L35.65 36.1586C35.65 36.1586 35.4122 31.129 34.5411 29.7427C33.67 28.3564 30.66 26.9705 30.66 26.9705L29.2737 26.7723L28.8778 25.5049C28.8778 25.5049 30.3826 24.8316 31.2144 23.4457C32.0463 22.0597 32.363 18.8516 32.0855 16.7131C31.8081 14.5745 30.3033 13.5053 30.3033 13.5053L28.0063 12.7527V12.7523Z" fill="#DEF6FF"/>
<path id="Vector_4" d="M20.0855 4.68566C20.0855 4.68566 21.9074 4.6327 22.1448 7.22048C22.3322 9.26233 18.5011 13.7157 18.5011 13.7157H19.557C19.557 13.7157 22.9892 11.5505 23.94 8.96307C24.8907 6.37566 24.0455 4.79159 22.3559 4.15788C20.6663 3.52418 20.0852 4.68603 20.0852 4.68603L20.0855 4.68566Z" fill="#FFF6E6"/>
<path id="Vector_5" d="M15.5374 36.1516V31.1616C15.5374 29.815 13.2337 28.8713 13.2337 28.8713L12.4019 27.0494C12.4019 27.0494 14.2237 25.7424 14.6989 24.4357C15.1741 23.129 14.7385 18.9705 14.7385 18.9705C14.7385 18.9705 15.7285 14.7327 14.2237 14.1387C14.2237 14.1387 16.3622 14.6139 16.7978 15.802C17.2333 16.9902 17.5107 17.1487 17.5107 17.1487C17.5107 17.1487 18.7141 18.492 18.6989 19.7624C18.6837 21.0327 18.0652 23.4061 17.9859 24.4753C17.9067 25.5446 18.2237 26.4557 18.2237 26.4557H14.5511L14.5804 28.0002C14.5804 28.0002 15.9667 28.1587 16.7189 28.4753C17.4711 28.792 18.8574 29.7824 18.8574 29.7824C18.8574 29.7824 17.7485 31.4853 17.6693 32.7131C17.59 33.9409 17.6693 36.0398 17.6693 36.0398L15.5374 36.152V36.1516Z" fill="#F3FCFF"/>
<path id="Vector_6" d="M26.8444 12.7136C26.8444 12.7136 28.9037 14.5803 29.2733 15.8818C29.643 17.1833 29.8674 18.4166 29.7881 19.644C29.7089 20.8714 29.6296 23.2481 29.2337 24.0399C28.8378 24.8318 26.7781 25.8618 26.7781 25.8618L27.5704 27.8025C27.5704 27.8025 30.5407 29.4262 30.8574 31.0103C31.1741 32.5944 31.2533 36.0796 31.2533 36.0796L35.6492 36.1588L35.293 31.2877L34.2633 28.951L31.2533 27.0499L29.3126 27.0103L29.0748 25.624C29.0748 25.624 31.1341 23.6833 31.7281 22.6933C32.3222 21.7033 32.3222 17.3862 32.3222 17.3862C32.3222 17.3862 31.4115 13.7029 29.8667 13.307C28.3218 12.911 26.8437 12.7129 26.8437 12.7129L26.8444 12.7136Z" fill="#F3FCFF"/>
<path id="Vector_7" d="M26.6567 26.4308C23.2945 26.4308 20.5593 23.6956 20.5593 20.3334V16.6586C20.5593 15.6993 20.993 14.8104 21.7489 14.22C22.3911 13.7186 23.1867 13.4949 23.9815 13.5819C24.1178 13.3352 24.3445 13.0219 24.71 12.7415C25.3315 12.2649 26.4956 11.796 28.5133 12.2689L28.5178 12.27C29.3189 12.4656 30.4678 12.9023 31.3937 13.8715C32.2963 14.8163 32.7541 16.0178 32.7541 17.4423V20.3337C32.7541 23.696 30.0189 26.4311 26.6567 26.4311V26.4308ZM23.6482 14.5637C23.1874 14.5637 22.7378 14.7163 22.3645 15.0082C21.8526 15.4078 21.5593 16.0093 21.5593 16.6586V20.3334C21.5593 23.1441 23.8459 25.4308 26.6567 25.4308C29.4674 25.4308 31.7541 23.1441 31.7541 20.3334V17.4419C31.7541 14.3337 29.1004 13.4419 28.283 13.2419C25.3407 12.553 24.7985 14.1619 24.7652 14.2715L24.6496 14.7626L24.1607 14.6274C23.9907 14.5849 23.8185 14.5641 23.6482 14.5641V14.5637Z" fill="#003B5E"/>
<path id="Vector_8" d="M31.9289 18.0815C31.6074 18.0815 31.35 17.863 31.0556 17.613C30.6485 17.267 30.1415 16.8367 29.37 16.7819C29.0944 16.7622 28.887 16.523 28.907 16.2474C28.927 15.9719 29.1656 15.7652 29.4415 15.7844C30.5396 15.863 31.24 16.4574 31.7033 16.8507C31.7985 16.9315 31.9244 17.0385 31.9915 17.0807C32.2259 17.0963 32.4237 17.2759 32.4541 17.5178C32.4881 17.7919 32.2937 18.0415 32.0196 18.0759C31.9889 18.0796 31.9589 18.0815 31.9296 18.0815H31.9289Z" fill="#003B5E"/>
<path id="Vector_9" d="M21.8404 18.3238C21.5618 18.3238 21.2767 18.2964 20.9867 18.2409C20.7155 18.189 20.5378 17.9272 20.5896 17.6557C20.6415 17.3846 20.9029 17.2064 21.1748 17.2586C22.0292 17.422 22.7892 17.2835 23.4337 16.8464C23.7189 16.6372 23.917 16.352 24.0233 15.9983C24.0278 15.9816 24.0326 15.9646 24.0381 15.9475C24.0896 15.782 24.2233 15.6542 24.3922 15.6112C24.5563 15.5694 24.7292 15.6135 24.8533 15.7268C26.3441 17.0798 28.6955 17.1961 29.637 17.1827C29.6392 17.1827 29.6418 17.1827 29.6441 17.1827C29.917 17.1827 30.14 17.402 30.1441 17.6757C30.1478 17.952 29.927 18.1786 29.6511 18.1827C28.6933 18.1953 26.437 18.0846 24.7163 16.8916C24.5374 17.1924 24.3015 17.452 24.0163 17.6594C24.0122 17.6624 24.0081 17.6653 24.0041 17.6683C23.3674 18.1024 22.6311 18.3238 21.8415 18.3238H21.8404Z" fill="#003B5E"/>
<path id="Vector_10" d="M25.7711 23.9004L25.307 23.8107C25.0689 23.7648 24.8967 23.5559 24.8967 23.3133C24.8967 22.9945 25.1881 22.7548 25.5011 22.8163L25.74 22.8633C26.3763 22.9885 27.0307 22.9882 27.667 22.8622L27.8948 22.817C28.2081 22.7552 28.4996 22.9948 28.4996 23.3141V23.3167C28.4996 23.5578 28.3296 23.7656 28.093 23.8133L27.6989 23.8926C27.063 24.0208 26.4081 24.0233 25.7711 23.9004Z" fill="#003B5E"/>
<path id="Vector_11" d="M30.0348 19.9947C30.0348 19.9947 29.7148 19.2499 29.0356 19.2499C29.0334 19.2499 29.0311 19.2499 29.0289 19.2495C29.0097 19.2488 28.9904 19.2484 28.9704 19.248C28.9689 19.248 28.9674 19.248 28.9656 19.248C28.9656 19.248 28.9626 19.248 28.9608 19.248C28.9411 19.248 28.9215 19.2484 28.9022 19.2495C28.9 19.2495 28.8978 19.2499 28.8956 19.2499C28.2045 19.2499 27.8963 19.9947 27.8963 19.9947C27.8941 20.0018 27.8922 20.0088 27.8904 20.0155C27.82 20.2825 27.9797 20.5558 28.2467 20.6262C28.2893 20.6373 28.3322 20.6429 28.3745 20.6429C28.5889 20.6429 28.7856 20.5036 28.8515 20.291C28.8571 20.2784 28.87 20.2584 28.92 20.251C28.9334 20.2492 28.9478 20.2477 28.9656 20.2477C28.9834 20.2477 28.9982 20.2492 29.0115 20.251C29.0615 20.2588 29.0745 20.2784 29.08 20.291C29.146 20.5036 29.3426 20.6429 29.5571 20.6429C29.5993 20.6429 29.6422 20.6377 29.6848 20.6262C29.9519 20.5558 30.1111 20.2825 30.0411 20.0155C30.0393 20.0088 30.0374 20.0018 30.0352 19.9947H30.0348Z" fill="#003B5E"/>
<path id="Vector_12" d="M25.8282 19.9947C25.8282 19.9947 25.5082 19.2499 24.8289 19.2499C24.8267 19.2499 24.8245 19.2499 24.8222 19.2495C24.803 19.2488 24.7837 19.2484 24.7637 19.248C24.7622 19.248 24.7608 19.248 24.7589 19.248C24.7589 19.248 24.756 19.248 24.7541 19.248C24.7345 19.248 24.7148 19.2484 24.6956 19.2495C24.6934 19.2495 24.6911 19.2499 24.6889 19.2499C23.9978 19.2499 23.6897 19.9947 23.6897 19.9947C23.6874 20.0018 23.6856 20.0088 23.6837 20.0155C23.6134 20.2825 23.773 20.5558 24.04 20.6262C24.0826 20.6373 24.1256 20.6429 24.1678 20.6429C24.3822 20.6429 24.5789 20.5036 24.6448 20.291C24.6504 20.2784 24.6634 20.2584 24.7134 20.251C24.7267 20.2492 24.7411 20.2477 24.7589 20.2477C24.7767 20.2477 24.7915 20.2492 24.8048 20.251C24.8548 20.2588 24.8678 20.2784 24.8734 20.291C24.9393 20.5036 25.136 20.6429 25.3504 20.6429C25.3926 20.6429 25.4356 20.6377 25.4782 20.6262C25.7452 20.5558 25.9045 20.2825 25.8345 20.0155C25.8326 20.0088 25.8308 20.0018 25.8285 19.9947H25.8282Z" fill="#003B5E"/>
<path id="Vector_13" d="M11.3945 24.866L11.003 24.7904C10.8019 24.7515 10.6567 24.5756 10.6567 24.3708C10.6567 24.1015 10.9026 23.8997 11.1667 23.9515L11.3682 23.9911C11.9048 24.0967 12.457 24.0963 12.9937 23.99L13.1859 23.9519C13.45 23.8997 13.6963 24.1019 13.6963 24.3711V24.3734C13.6963 24.5767 13.553 24.7523 13.3533 24.7923L13.0208 24.8593C12.4845 24.9674 11.9319 24.9697 11.3945 24.866Z" fill="#003B5E"/>
<path id="Vector_14" d="M15.5134 21.5514C15.5134 21.5514 15.1934 20.8065 14.5141 20.8065C14.5119 20.8065 14.5097 20.8065 14.5074 20.8062C14.4882 20.8054 14.4689 20.8051 14.4489 20.8047C14.4474 20.8047 14.4459 20.8047 14.4441 20.8047C14.4441 20.8047 14.4411 20.8047 14.4393 20.8047C14.4197 20.8047 14.4 20.8051 14.3808 20.8062C14.3785 20.8062 14.3763 20.8065 14.3741 20.8065C13.683 20.8065 13.3748 21.5514 13.3748 21.5514C13.3726 21.5584 13.3708 21.5654 13.3689 21.5721C13.2985 21.8391 13.4582 22.1125 13.7252 22.1828C13.7678 22.1939 13.8108 22.1995 13.853 22.1995C14.0674 22.1995 14.2641 22.0602 14.33 21.8477C14.3356 21.8351 14.3485 21.8151 14.3985 21.8077C14.4119 21.8058 14.4263 21.8043 14.4441 21.8043C14.4619 21.8043 14.4767 21.8058 14.49 21.8077C14.54 21.8154 14.553 21.8351 14.5585 21.8477C14.6245 22.0602 14.8211 22.1995 15.0356 22.1995C15.0778 22.1995 15.1208 22.1943 15.1634 22.1828C15.4304 22.1125 15.5897 21.8391 15.5197 21.5721C15.5178 21.5654 15.5159 21.5584 15.5137 21.5514H15.5134Z" fill="#003B5E"/>
<path id="Vector_15" d="M11.3067 21.5514C11.3067 21.5514 10.9867 20.8065 10.3074 20.8065C10.3052 20.8065 10.303 20.8065 10.3008 20.8062C10.2815 20.8054 10.2622 20.8051 10.2422 20.8047C10.2408 20.8047 10.2393 20.8047 10.2374 20.8047C10.2374 20.8047 10.2345 20.8047 10.2326 20.8047C10.213 20.8047 10.1934 20.8051 10.1741 20.8062C10.1719 20.8062 10.1697 20.8065 10.1674 20.8065C9.47632 20.8065 9.16817 21.5514 9.16817 21.5514C9.16595 21.5584 9.1641 21.5654 9.16225 21.5721C9.09188 21.8391 9.2515 22.1125 9.51854 22.1828C9.56113 22.1939 9.6041 22.1995 9.64632 22.1995C9.86076 22.1995 10.0574 22.0602 10.1234 21.8477C10.1289 21.8351 10.1419 21.8151 10.1919 21.8077C10.2052 21.8058 10.2197 21.8043 10.2374 21.8043C10.2552 21.8043 10.27 21.8058 10.2834 21.8077C10.3334 21.8154 10.3463 21.8351 10.3519 21.8477C10.4178 22.0602 10.6145 22.1995 10.8289 22.1995C10.8711 22.1995 10.9141 22.1943 10.9567 22.1828C11.2237 22.1125 11.383 21.8391 11.313 21.5721C11.3111 21.5654 11.3093 21.5584 11.3071 21.5514H11.3067Z" fill="#003B5E"/>
<path id="Vector_16" d="M26.6563 28.3349C25.673 28.3349 24.6904 28.0794 23.8171 27.569C23.6356 27.4627 23.5396 27.2546 23.5774 27.0475L23.8748 25.4183C23.9245 25.1464 24.1852 24.9664 24.4563 25.016C24.7278 25.0657 24.9082 25.326 24.8585 25.5975L24.6267 26.8686C25.9026 27.4905 27.4085 27.4916 28.6867 26.8683L28.4548 25.5979C28.4052 25.3264 28.5852 25.0657 28.8571 25.0164C29.1282 24.9672 29.3893 25.1468 29.4385 25.4186L29.7359 27.0479C29.7741 27.2572 29.6756 27.4679 29.4904 27.5727L29.4263 27.609C28.57 28.0934 27.613 28.3353 26.6567 28.3353L26.6563 28.3349Z" fill="#003B5E"/>
<path id="Vector_17" d="M36.0581 36.3839H17.2556V32.9395C17.2556 29.3717 20.1581 26.4688 23.7263 26.4688V27.4688C20.7096 27.4688 18.2556 29.9228 18.2556 32.9395V35.3839H35.0581V32.9395C35.0581 29.9228 32.6041 27.4688 29.5874 27.4688H29.0067V26.4688H29.5874C33.1552 26.4688 36.0581 29.3713 36.0581 32.9395V36.3839Z" fill="#003B5E"/>
<path id="Vector_18" d="M32.3333 36.2267C32.057 36.2267 31.8333 36.003 31.8333 35.7267V31.3438C31.8333 31.0675 32.057 30.8438 32.3333 30.8438C32.6096 30.8438 32.8333 31.0675 32.8333 31.3438V35.7267C32.8333 36.003 32.6096 36.2267 32.3333 36.2267Z" fill="#003B5E"/>
<path id="Vector_19" d="M20.9274 36.2267C20.6511 36.2267 20.4274 36.003 20.4274 35.7267V31.3438C20.4274 31.0675 20.6511 30.8438 20.9274 30.8438C21.2037 30.8438 21.4274 31.0675 21.4274 31.3438V35.7267C21.4274 36.003 21.2037 36.2267 20.9274 36.2267Z" fill="#003B5E"/>
<path id="Vector_20" d="M12.2015 27.4889C9.41299 27.4889 7.14447 25.2204 7.14447 22.4318V19.9267H8.14447V22.4318C8.14447 24.6689 9.96447 26.4889 12.2015 26.4889C14.4385 26.4889 16.2585 24.6689 16.2585 22.4318V18.1855H17.2585V22.4318C17.2585 25.2204 14.99 27.4889 12.2015 27.4889Z" fill="#003B5E"/>
<path id="Vector_21" d="M8.26818 20.4721C8.00559 20.4721 7.71633 20.4444 7.39521 20.3814C7.1241 20.3284 6.94744 20.0655 7.00077 19.7947C7.05373 19.5236 7.31633 19.347 7.58744 19.4003C8.85892 19.6492 9.36855 19.2129 9.95892 18.7073C10.6915 18.0803 11.5219 17.3696 13.4948 18.1403C14.48 18.5251 15.2171 18.6462 15.6852 18.501C16.0145 18.3988 16.1689 18.1673 16.3319 17.9221L16.3426 17.9062C16.496 17.6766 16.8063 17.6144 17.036 17.7677C17.2656 17.921 17.3278 18.2314 17.1745 18.461L17.1641 18.4766C16.9593 18.784 16.65 19.2484 15.9819 19.4559C15.2823 19.6733 14.3497 19.5477 13.1311 19.0714C11.7167 18.5188 11.2523 18.9166 10.6093 19.467C10.0756 19.924 9.43521 20.4721 8.26818 20.4721Z" fill="#003B5E"/>
<path id="Vector_22" d="M12.2993 29.303C11.4478 29.303 10.5959 29.0878 9.83334 28.6563L9.47223 28.4522L9.79149 26.5433L10.7778 26.7085L10.5756 27.9163C11.6633 28.4333 12.9359 28.4326 14.0222 27.9163L13.82 26.7082L14.8063 26.543L15.1248 28.4467L14.827 28.6207C14.0496 29.0752 13.1745 29.3026 12.2989 29.3026L12.2993 29.303Z" fill="#003B5E"/>
<path id="Vector_23" d="M11.02 36.3884C8.85035 36.3884 6.67664 36.3873 4.46849 36.3851H3.93701L3.96923 35.8695C3.96923 35.7958 3.96923 35.7458 3.96923 35.7136C3.96923 35.6636 3.97405 35.618 3.98183 35.5766C3.99072 35.2214 3.97738 34.8577 3.96368 34.4773C3.94812 34.0477 3.9322 33.6032 3.95035 33.1651L3.95109 33.1536C4.03627 31.8347 4.4696 30.6591 5.23886 29.6588L5.24775 29.6477C6.44627 28.1784 8.27479 27.4117 10.2655 27.544L10.1992 28.5417C8.53886 28.431 7.01886 29.0629 6.02738 30.2743C5.38479 31.1117 5.0222 32.1003 4.9496 33.2125C4.93331 33.6103 4.94812 34.014 4.96331 34.4414C4.97442 34.7514 4.9859 35.0684 4.98479 35.3858C9.21849 35.3899 13.334 35.3895 17.5474 35.3854L17.5485 36.3854C15.3563 36.3877 13.1903 36.3888 11.0207 36.3888L11.02 36.3884Z" fill="#003B5E"/>
<path id="Vector_24" d="M18.0681 29.7741C17.1859 28.9911 16.0304 28.543 14.8952 28.543C14.8896 28.543 14.8844 28.543 14.8789 28.543L14.8752 27.543C14.8822 27.543 14.8893 27.543 14.8963 27.543C16.2926 27.543 17.6541 28.0693 18.7322 29.0259L18.0685 29.7741H18.0681Z" fill="#003B5E"/>
<path id="Vector_25" d="M7.30554 36.2462C7.02925 36.2462 6.80554 36.0225 6.80554 35.7462V31.8906C6.80554 31.6143 7.02925 31.3906 7.30554 31.3906C7.58184 31.3906 7.80554 31.6143 7.80554 31.8906V35.7462C7.80554 36.0225 7.58184 36.2462 7.30554 36.2462Z" fill="#003B5E"/>
<path id="Vector_26" d="M18.9259 14.5128C18.6508 14.5128 18.3756 14.4295 18.1404 14.2621C17.4389 13.7643 16.0867 12.7461 14.9145 11.5221C13.4271 9.96873 12.6726 8.5517 12.6726 7.30985C12.6726 5.27059 14.3315 3.61133 16.3711 3.61133C17.3422 3.61133 18.2478 3.97985 18.9315 4.63948C19.6152 3.98022 20.5204 3.61133 21.4919 3.61133C23.5311 3.61133 25.1904 5.27022 25.1904 7.30985C25.1904 8.51985 24.4352 9.92429 22.9463 11.485C21.7745 12.7132 20.4237 13.7473 19.723 14.2543C19.4852 14.4261 19.2059 14.5124 18.9267 14.5124L18.9259 14.5128ZM16.3711 4.6117C14.8833 4.6117 13.6726 5.82207 13.6726 7.31022C13.6726 9.68133 17.5352 12.6065 18.7189 13.4469C18.8441 13.5358 19.0115 13.535 19.1359 13.445C19.8093 12.958 21.1052 11.9658 22.2222 10.7954C23.5096 9.44614 24.19 8.24133 24.19 7.31059C24.19 5.82281 22.9796 4.61207 21.4915 4.61207C20.6341 4.61207 19.8467 5.00614 19.3311 5.69318C19.2367 5.81911 19.0885 5.89318 18.9311 5.89318C18.7737 5.89318 18.6256 5.81911 18.5311 5.69318C18.0156 5.00614 17.2285 4.61207 16.3708 4.61207L16.3711 4.6117Z" fill="#F99600"/>
<path id="Vector_27" d="M7.51777 27.0545C7.24148 27.0545 7.01777 26.8308 7.01777 26.5545C7.01777 25.7893 6.79259 25.5504 6.41926 25.1541C6.0537 24.7664 5.59889 24.2834 5.29592 23.2645C4.92889 22.0301 5.19815 21.0982 5.48852 20.5338C5.73889 20.0475 5.89815 19.509 5.96185 18.9334C6.0737 17.9227 6.36407 17.0112 6.82481 16.2253C6.84518 16.1901 6.87 16.1579 6.89852 16.1286L6.95777 16.0682C7.26222 15.516 7.68555 15.1308 8.09926 14.7967C8.11111 14.7871 8.12333 14.7782 8.13592 14.7697L8.75259 14.3586C8.76518 14.3501 8.77815 14.3423 8.79148 14.3353C10.0833 13.6345 11.5767 13.2875 12.8885 13.3827C15.9844 13.6071 17.6693 15.3875 17.7337 17.0301C17.7444 17.306 17.5296 17.5386 17.2537 17.5493C16.9774 17.5608 16.7452 17.3453 16.7344 17.0693C16.6889 15.9001 15.3 14.5604 12.8163 14.3801C11.6963 14.299 10.4115 14.599 9.28778 15.2038L8.70926 15.5893C8.31777 15.9067 8.01444 16.2012 7.80815 16.5979C7.78555 16.6412 7.75666 16.6812 7.72259 16.7164L7.65777 16.7827C7.28592 17.4356 7.05 18.196 6.95592 19.0441C6.87889 19.7412 6.68444 20.3967 6.37777 20.9919C6.17111 21.3934 5.98222 22.0641 6.25444 22.9804C6.48963 23.7716 6.8237 24.1264 7.14703 24.4693C7.57518 24.9234 8.01777 25.3934 8.01777 26.5553C8.01777 26.8316 7.79407 27.0553 7.51777 27.0553V27.0545Z" fill="#003B5E"/>
<path id="Vector_28" d="M15.0511 26.8084C14.7782 26.8084 14.5552 26.5892 14.5515 26.3155C14.5478 26.0392 14.7685 25.8125 15.0445 25.8084C15.8963 25.7966 16.7582 25.794 17.6163 25.7999C17.4959 25.3722 17.4952 24.9381 17.5182 24.5662C17.5448 23.7203 17.7367 22.9277 17.9226 22.1614C18.0182 21.7666 18.1171 21.3588 18.1919 20.9492C18.4289 19.4836 17.9578 18.0918 16.8982 17.1299C16.6937 16.9444 16.6785 16.6281 16.8641 16.4236C17.0496 16.2192 17.3659 16.204 17.5704 16.3896C18.2189 16.9785 18.7074 17.7259 18.9826 18.5514C19.2519 19.3588 19.3196 20.2451 19.1782 21.1144C19.1778 21.1173 19.1771 21.1203 19.1767 21.1236C19.0967 21.5633 18.9941 21.987 18.8948 22.397C18.7126 23.1492 18.5404 23.8599 18.5178 24.6047C18.5178 24.6099 18.5174 24.6155 18.5171 24.6207C18.4759 25.2766 18.5648 25.6855 18.8133 25.9862C18.8419 26.0199 18.8652 26.057 18.8837 26.0959C18.9022 26.1355 18.9156 26.1773 18.923 26.2199C18.9348 26.287 18.9334 26.3562 18.9171 26.424C18.9104 26.4525 18.9008 26.4807 18.8889 26.5077C18.8615 26.5707 18.8219 26.6259 18.7737 26.6714V26.6718C18.7504 26.6936 18.7248 26.7133 18.6978 26.7303C18.62 26.7792 18.5285 26.8066 18.4326 26.8066H18.4319C18.3678 26.8066 18.3252 26.8066 18.2985 26.8066C18.2789 26.8066 18.26 26.8059 18.2415 26.8044C17.1833 26.7914 16.1141 26.7922 15.06 26.8066C15.0578 26.8066 15.0552 26.8066 15.053 26.8066L15.0511 26.8084Z" fill="#003B5E"/>
</g>
</svg>
