<svg width="40" height="40" viewBox="0 0 40 40" fill="none" xmlns="http://www.w3.org/2000/svg">
<circle cx="19" cy="20" r="19" fill="#DCF5F0"/>
<g clip-path="url(#clip0_3818_24424)">
<path fill-rule="evenodd" clip-rule="evenodd" d="M20.1762 6.06718C20.1762 4.37563 18.8006 3 17.109 3H6.06718C4.37614 3 3 4.37563 3 6.06718V17.109C3 18.8006 4.37614 20.1762 6.06718 20.1762H17.109C18.8006 20.1762 20.1762 18.8006 20.1762 17.109V6.06718ZM4.22687 6.06718V17.109C4.22687 18.1238 5.05245 18.9493 6.06718 18.9493H17.109C18.1238 18.9493 18.9493 18.1238 18.9493 17.109V6.06718C18.9493 5.05245 18.1238 4.22687 17.109 4.22687H6.06718C5.05245 4.22687 4.22687 5.05245 4.22687 6.06718Z" fill="#F99600"/>
<path d="M4.22687 17.109V6.06718C4.22687 5.05245 5.05245 4.22687 6.06718 4.22687H17.109C18.1238 4.22687 18.9493 5.05245 18.9493 6.06718V17.109C18.9493 18.1238 18.1238 18.9493 17.109 18.9493H6.06718C5.05245 18.9493 4.22687 18.1238 4.22687 17.109Z" fill="white"/>
<path d="M4.22687 17.1087V6.06687C4.22687 5.05215 5.05245 4.22656 6.06718 4.22656H14.8277C15.8424 4.22656 16.668 5.05215 16.668 6.06687C16.668 6.06687 16.8196 7.76002 16.668 8.82733C16.5098 9.9406 15.8492 10.4633 15.8492 11.5878C15.8492 12.7122 14.6695 13.235 14.8277 14.3483C14.9793 15.4156 14.8277 17.1087 14.8277 17.1087C14.8277 18.1234 14.0021 18.949 12.9874 18.949H6.06718C5.05245 18.949 4.22687 18.1234 4.22687 17.1087Z" fill="#FFE6B3"/>
<path d="M7.31041 8.5289H7.31347L10.9777 8.51203C11.3161 8.51101 11.5901 8.23394 11.5881 7.89604C11.5861 7.55814 11.3121 7.28516 10.9747 7.28516H10.9716L7.30734 7.30203C6.96893 7.30305 6.69493 7.58012 6.69697 7.91802C6.69902 8.25592 6.97302 8.5289 7.31041 8.5289Z" fill="#F99600"/>
<path d="M7.3104 12.2105H7.31142L15.8832 12.1937C16.2221 12.1926 16.4966 11.9181 16.4956 11.5792C16.4951 11.2413 16.2206 10.9668 15.8821 10.9668H15.8811L7.30937 10.9837C6.97045 10.9847 6.69645 11.2592 6.69696 11.5981C6.69747 11.936 6.97198 12.2105 7.3104 12.2105Z" fill="#F99600"/>
<path d="M7.31142 15.8902L15.8832 15.8734C16.2221 15.8723 16.4966 15.5978 16.4956 15.2589C16.4951 14.921 16.2206 14.6465 15.8821 14.6465H15.8811L7.30937 14.6634C6.97045 14.6644 6.69645 14.9389 6.69696 15.2778C6.69747 15.6157 6.97198 15.8902 7.3104 15.8902H7.31142Z" fill="#F99600"/>
<path d="M33.9152 13.6605H30.7388C30.4851 12.9479 29.8111 12.4336 29.0136 12.4336H22.8864C22.0889 12.4336 21.4149 12.9479 21.1612 13.6605H17.9848C16.2952 13.6605 14.9212 15.0361 14.9212 16.7276V33.9039C14.9212 35.5954 16.2952 36.971 17.9848 36.971H33.9152C35.6048 36.971 36.9788 35.5954 36.9788 33.9039V16.7276C36.9788 15.0361 35.6048 13.6605 33.9152 13.6605ZM22.8864 13.6605H29.0136C29.3511 13.6605 29.6263 13.936 29.6263 14.2739V15.5008C29.6263 15.8387 29.3511 16.1142 29.0136 16.1142H22.8864C22.5489 16.1142 22.2737 15.8387 22.2737 15.5008V14.2739C22.2737 13.936 22.5489 13.6605 22.8864 13.6605ZM35.7534 33.9039C35.7534 34.9186 34.9288 35.7442 33.9152 35.7442H17.9848C16.9712 35.7442 16.1466 34.9186 16.1466 33.9039V16.7276C16.1466 15.7129 16.9712 14.8873 17.9848 14.8873H21.0483V15.5008C21.0483 16.5155 21.8729 17.3411 22.8864 17.3411H29.0136C30.0271 17.3411 30.8517 16.5155 30.8517 15.5008V14.8873H33.9152C34.9288 14.8873 35.7534 15.7129 35.7534 16.7276V33.9039Z" fill="#003B5E"/>
<path d="M35.7534 33.9039C35.7534 34.9186 34.9288 35.7442 33.9152 35.7442H17.9848C16.9712 35.7442 16.1466 34.9186 16.1466 33.9039V16.7276C16.1466 15.7129 16.9712 14.8873 17.9848 14.8873H21.0483V15.5008C21.0483 16.5155 21.8729 17.3411 22.8864 17.3411H29.0136C30.0271 17.3411 30.8517 16.5155 30.8517 15.5008V14.8873H33.9152C34.9288 14.8873 35.7534 15.7129 35.7534 16.7276V33.9039Z" fill="white"/>
<path d="M31.9755 33.9035C31.9755 34.9183 31.1509 35.7439 30.1373 35.7439H17.9847C16.9712 35.7439 16.1466 34.9183 16.1466 33.9035V16.7273C16.1466 15.7126 16.9712 14.887 17.9847 14.887H21.0483V15.5005C21.0483 16.5152 21.8729 17.3408 22.8864 17.3408H29.0135C30.0271 17.3408 30.8517 16.5152 30.8517 15.5005V14.887H31.9755C32.989 14.887 33.8136 15.7126 33.8136 16.7273C33.8136 16.7273 34.028 19.3582 33.8136 21.0214C33.5832 22.8084 32.566 23.6715 32.6006 25.473C32.6329 27.1561 31.7366 27.9431 31.9755 29.6095C32.2134 31.2695 31.9755 33.9035 31.9755 33.9035Z" fill="#DFF1F5"/>
<path d="M22.8864 13.6602H29.0135C29.351 13.6602 29.6262 13.9357 29.6262 14.2736V15.5005C29.6262 15.8384 29.351 16.1139 29.0135 16.1139H22.8864C22.5489 16.1139 22.2737 15.8384 22.2737 15.5005V14.2736C22.2737 13.9357 22.5489 13.6602 22.8864 13.6602Z" fill="#DFF1F5"/>
<path d="M22.4266 19.9871L20.4116 21.9928L19.6203 21.2052C19.3812 20.9671 18.9942 20.9671 18.7551 21.2052C18.516 21.4432 18.516 21.8284 18.7551 22.0664L19.9788 23.2845C20.0981 23.4032 20.2546 23.4631 20.4111 23.4631C20.5677 23.4631 20.7242 23.4037 20.8435 23.2845L23.2908 20.8484C23.53 20.6103 23.53 20.2251 23.2908 19.9871C23.0517 19.7491 22.6647 19.7491 22.4256 19.9871H22.4266Z" fill="#003B5E"/>
<path d="M22.4266 29.7794L20.4116 31.8209L19.6203 31.0192C19.3812 30.7769 18.9942 30.7769 18.7551 31.0192C18.516 31.2614 18.516 31.6535 18.7551 31.8958L19.9788 33.1356C20.0981 33.2565 20.2546 33.3174 20.4111 33.3174C20.5677 33.3174 20.7242 33.257 20.8435 33.1356L23.2908 30.656C23.53 30.4137 23.53 30.0216 23.2908 29.7794C23.0517 29.5371 22.6647 29.5371 22.4256 29.7794H22.4266Z" fill="#003B5E"/>
<path d="M32.7098 21.0469H26.5645C26.225 21.0469 25.95 21.3097 25.95 21.6342C25.95 21.9587 26.225 22.2215 26.5645 22.2215H32.7098C33.0493 22.2215 33.3243 21.9587 33.3243 21.6342C33.3243 21.3097 33.0493 21.0469 32.7098 21.0469Z" fill="#003B5E"/>
<path d="M22.4266 24.8816L20.4116 26.8874L19.6203 26.0997C19.3812 25.8617 18.9942 25.8617 18.7551 26.0997C18.516 26.3377 18.516 26.7229 18.7551 26.9609L19.9788 28.179C20.0981 28.2977 20.2546 28.3576 20.4111 28.3576C20.5677 28.3576 20.7242 28.2983 20.8435 28.179L23.2908 25.7429C23.53 25.5049 23.53 25.1197 23.2908 24.8816C23.0517 24.6436 22.6647 24.6436 22.4256 24.8816H22.4266Z" fill="#003B5E"/>
<path d="M32.7098 25.9414H26.5645C26.225 25.9414 25.95 26.2188 25.95 26.5614C25.95 26.9039 26.225 27.1813 26.5645 27.1813H32.7098C33.0493 27.1813 33.3243 26.9039 33.3243 26.5614C33.3243 26.2188 33.0493 25.9414 32.7098 25.9414Z" fill="#003B5E"/>
<path d="M32.7098 30.8359H26.5645C26.225 30.8359 25.95 31.1134 25.95 31.4559C25.95 31.7984 26.225 32.0759 26.5645 32.0759H32.7098C33.0493 32.0759 33.3243 31.7984 33.3243 31.4559C33.3243 31.1134 33.0493 30.8359 32.7098 30.8359Z" fill="#003B5E"/>
</g>
<defs>
<clipPath id="clip0_3818_24424">
<rect width="34" height="34" fill="white" transform="translate(3 3)"/>
</clipPath>
</defs>
</svg>
