<svg width="40" height="40" viewBox="0 0 40 40" fill="none" xmlns="http://www.w3.org/2000/svg">
<g id="icon-individu">
<circle id="Ellipse 213" cx="19" cy="20" r="19" fill="#DCF5F0"/>
<path id="Vector" d="M10.0144 5.30774C10.0144 5.30774 6.29182 6.77292 5.45997 8.99107C4.62812 11.2092 5.18256 15.7237 7.44034 16.9911C9.69811 18.2585 16.787 18.4959 16.8266 18.1396C16.8663 17.7833 15.9555 16.8326 15.9555 16.8326C15.9555 16.8326 17.3814 14.694 17.7774 13.4266C18.1733 12.1592 18.2526 8.11959 15.7181 6.53552C13.1837 4.95144 10.0152 5.30774 10.0152 5.30774H10.0144Z" fill="#FFE6B3"/>
<path id="Vector_2" d="M10.6482 5.10933C10.6482 5.10933 14.1649 5.46341 15.5193 8.06637C18.0408 12.9112 14.5819 16.0927 14.6215 16.7264C14.6612 17.3601 15.0838 18.3764 15.0838 18.3764L16.5886 17.9012L15.9152 16.5941C15.9152 16.5941 19.2023 14.1386 18.1726 11.0101C17.143 7.88156 15.5193 4.91119 10.6478 5.10896L10.6482 5.10933Z" fill="#FFF6E6"/>
<path id="Vector_3" d="M28.9845 11.2481C28.9845 11.2481 27.836 10.7333 26.9252 11.0103L26.0145 11.2877C26.0145 11.2877 24.5886 10.5748 23.9156 10.8918C23.2426 11.2088 20.47 13.9811 19.8363 16.08C19.2026 18.1788 18.9256 21.7829 19.0837 22.5751C19.2419 23.3674 22.5293 24.08 22.5293 24.08L24.1926 24.9511L24.0341 26.2581C24.0341 26.2581 20.5093 26.9711 19.8756 27.9611C19.2419 28.9511 18.1726 30.2977 18.0537 31.5255C17.9349 32.7533 17.9745 35.2877 17.9745 35.2877H33.5389C33.5389 35.2877 33.4597 31.1292 32.3904 29.2681C31.3211 27.407 29.0374 26.2848 29.0374 26.2848L28.7208 24.8062C28.7208 24.8062 30.886 23.6048 31.163 22.1C31.44 20.5951 31.2423 16.8325 31.2423 16.8325L29.5789 15.4462L28.9849 11.2481" fill="#DEF6FF"/>
<path id="Vector_4" d="M27.0837 10.9165C27.0837 10.9165 28.6678 11.5502 29.1959 13.8735C29.7241 16.1968 29.8822 20.1046 29.6711 21.4246C29.46 22.7446 27.1893 24.9098 27.1893 24.9098L27.0308 27.1276C27.0308 27.1276 29.7237 27.7083 30.5159 29.2928C30.7715 29.8035 30.9385 35.1013 30.9385 35.1013L35.11 34.9428C35.11 34.9428 35.4267 30.8239 34.6874 29.6624C33.9482 28.5009 31.5193 26.6524 31.5193 26.6524L29.0374 26.2828L28.7208 24.8043C28.7208 24.8043 29.0904 24.1706 30.8859 23.9594C32.6815 23.7483 34.8993 23.1146 34.4767 21.5306C34.0541 19.9465 32.8396 14.1906 31.4667 13.2402C30.0937 12.2898 29.2489 10.4943 27.0837 10.9168V10.9165Z" fill="#F3FCFF"/>
<path id="Vector_5" d="M25.807 23.3379L25.4156 23.2624C25.2144 23.2235 25.0693 23.0475 25.0693 22.8427C25.0693 22.5735 25.3152 22.3716 25.5793 22.4235L25.7807 22.4631C26.3174 22.5687 26.8696 22.5683 27.4063 22.462L27.5985 22.4238C27.8626 22.3716 28.1089 22.5738 28.1089 22.8431V22.8453C28.1089 23.0487 27.9656 23.2242 27.7659 23.2642L27.4333 23.3312C26.897 23.4394 26.3444 23.4416 25.807 23.3379Z" fill="#003B5E"/>
<path id="Vector_6" d="M25.5605 19.469C25.5605 19.469 25.2405 18.7242 24.5612 18.7242C24.559 18.7242 24.5568 18.7242 24.5545 18.7239C24.5353 18.7231 24.516 18.7227 24.496 18.7224C24.4945 18.7224 24.4931 18.7224 24.4912 18.7224C24.4912 18.7224 24.4882 18.7224 24.4864 18.7224C24.4668 18.7224 24.4471 18.7227 24.4279 18.7239C24.4257 18.7239 24.4234 18.7242 24.4212 18.7242C23.7301 18.7242 23.4219 19.469 23.4219 19.469C23.4197 19.4761 23.4179 19.4831 23.416 19.4898C23.3456 19.7568 23.5053 20.0302 23.7723 20.1005C23.8149 20.1116 23.8579 20.1172 23.9001 20.1172C24.1145 20.1172 24.3112 19.9779 24.3771 19.7653C24.3827 19.7527 24.3956 19.7327 24.4456 19.7253C24.459 19.7235 24.4734 19.722 24.4912 19.722C24.509 19.722 24.5238 19.7235 24.5371 19.7253C24.5871 19.7331 24.6001 19.7527 24.6056 19.7653C24.6716 19.9779 24.8682 20.1172 25.0827 20.1172C25.1249 20.1172 25.1679 20.112 25.2105 20.1005C25.4775 20.0302 25.6368 19.7568 25.5668 19.4898C25.5649 19.4831 25.5631 19.4761 25.5608 19.469H25.5605Z" fill="#003B5E"/>
<path id="Vector_7" d="M29.7676 19.469C29.7676 19.469 29.4476 18.7242 28.7684 18.7242C28.7661 18.7242 28.7639 18.7242 28.7617 18.7239C28.7424 18.7231 28.7232 18.7227 28.7032 18.7224C28.7017 18.7224 28.7002 18.7224 28.6984 18.7224C28.6984 18.7224 28.6954 18.7224 28.6935 18.7224C28.6739 18.7224 28.6543 18.7227 28.635 18.7239C28.6328 18.7239 28.6306 18.7242 28.6284 18.7242C27.9372 18.7242 27.6291 19.469 27.6291 19.469C27.6269 19.4761 27.625 19.4831 27.6232 19.4898C27.5528 19.7568 27.7124 20.0302 27.9795 20.1005C28.0221 20.1116 28.065 20.1172 28.1072 20.1172C28.3217 20.1172 28.5184 19.9779 28.5843 19.7653C28.5898 19.7527 28.6028 19.7327 28.6528 19.7253C28.6661 19.7235 28.6806 19.722 28.6984 19.722C28.7161 19.722 28.731 19.7235 28.7443 19.7253C28.7943 19.7331 28.8072 19.7527 28.8128 19.7653C28.8787 19.9779 29.0754 20.1172 29.2898 20.1172C29.3321 20.1172 29.375 20.112 29.4176 20.1005C29.6847 20.0302 29.8439 19.7568 29.7739 19.4898C29.7721 19.4831 29.7702 19.4761 29.768 19.469H29.7676Z" fill="#003B5E"/>
<path id="Vector_8" d="M16.5074 18.7204H11.383C11.3663 18.7204 11.3496 18.7197 11.3333 18.7178C9.47889 18.6741 7.74223 17.9219 6.43963 16.5967C5.12556 15.2604 4.40186 13.4923 4.40186 11.6178C4.40186 7.70155 7.58778 4.51562 11.5041 4.51562C15.4204 4.51562 18.6063 7.70192 18.6063 11.6178C18.6063 13.569 17.8211 15.3986 16.4304 16.7341L16.9885 17.0967C17.3193 17.3116 17.4659 17.7101 17.3541 18.0882C17.2419 18.4664 16.9019 18.7204 16.5074 18.7204ZM16.443 17.9353C16.443 17.9353 16.443 17.9353 16.4433 17.9353H16.443ZM11.4219 17.7204H16.1126L15.3311 17.2127C15.1963 17.1249 15.1119 16.9778 15.1041 16.8171C15.0963 16.6564 15.1667 16.5019 15.293 16.4019C16.763 15.2356 17.6063 13.4923 17.6063 11.6182C17.6063 8.2534 14.8689 5.516 11.5041 5.516C8.13926 5.516 5.40186 8.2534 5.40186 11.6182C5.40186 14.983 8.08889 17.6597 11.3922 17.719C11.4022 17.719 11.4122 17.7197 11.4222 17.7204H11.4219Z" fill="#F99600"/>
<path id="Vector_9" d="M26.4275 25.7478C23.4023 25.7478 20.9408 23.2867 20.9408 20.2612V16.9875H21.9408V20.2612C21.9408 22.7349 23.9534 24.7478 26.4275 24.7478C28.9015 24.7478 30.9141 22.7352 30.9141 20.2612V16.8652H31.9141V20.2612C31.9141 23.2863 29.453 25.7478 26.4275 25.7478Z" fill="#003B5E"/>
<path id="Vector_10" d="M24.9845 17.6884C24.7664 17.6884 24.566 17.5447 24.5038 17.3243C24.4286 17.0587 24.583 16.7824 24.8489 16.7073C25.8201 16.4324 28.1001 15.4702 28.9949 14.6102C29.1226 14.4873 29.306 14.4413 29.4767 14.4895C29.6475 14.5373 29.7801 14.6721 29.8249 14.8436C29.8378 14.8902 30.1793 16.0654 31.5278 16.3791C31.7967 16.4417 31.9641 16.7106 31.9015 16.9795C31.8389 17.2484 31.5701 17.4154 31.3012 17.3532C30.1164 17.0773 29.476 16.3299 29.1519 15.7699C27.9378 16.6406 25.9971 17.4221 25.1212 17.6695C25.0756 17.6824 25.0301 17.6884 24.9849 17.6884H24.9845Z" fill="#003B5E"/>
<path id="Vector_11" d="M21.4592 17.5035C21.2325 17.5035 21.027 17.3483 20.9729 17.118C20.9096 16.8491 21.0762 16.5802 21.3451 16.5169C21.3748 16.5098 24.3285 15.805 25.487 14.7917C25.6948 14.6098 26.0107 14.6309 26.1925 14.8387C26.3744 15.0465 26.3533 15.3624 26.1455 15.5443C24.7999 16.7217 21.7055 17.4595 21.5744 17.4902C21.5359 17.4991 21.4973 17.5035 21.4596 17.5035H21.4592Z" fill="#003B5E"/>
<path id="Vector_12" d="M26.5307 27.7343C25.607 27.7343 24.683 27.5006 23.8556 27.0329L23.4893 26.8258L23.8333 24.7695L24.8196 24.9347L24.5926 26.291C25.813 26.8832 27.2496 26.8821 28.4685 26.2914L28.2415 24.9347L29.2278 24.7695L29.5711 26.8206L29.2733 26.9947C28.43 27.4877 27.4804 27.7343 26.5307 27.7343Z" fill="#003B5E"/>
<path id="Vector_13" d="M35.5986 35.4838H17.4626V32.1494C17.4626 28.7046 20.2652 25.9023 23.7097 25.9023H24.2689V26.9023H23.7097C20.8163 26.9023 18.4626 29.256 18.4626 32.1494V34.4838H34.5986V32.1494C34.5986 29.256 32.2449 26.9023 29.3515 26.9023V25.9023C32.7963 25.9023 35.5986 28.7049 35.5986 32.1494V35.4838Z" fill="#003B5E"/>
<path id="Vector_14" d="M21.0667 35.3302C20.7904 35.3302 20.5667 35.1065 20.5667 34.8302V30.6113C20.5667 30.335 20.7904 30.1113 21.0667 30.1113C21.3429 30.1113 21.5667 30.335 21.5667 30.6113V34.8302C21.5667 35.1065 21.3429 35.3302 21.0667 35.3302Z" fill="#003B5E"/>
<path id="Vector_15" d="M30.8893 35.3302C30.613 35.3302 30.3893 35.1065 30.3893 34.8302V30.6113C30.3893 30.335 30.613 30.1113 30.8893 30.1113C31.1656 30.1113 31.3893 30.335 31.3893 30.6113V34.8302C31.3893 35.1065 31.1656 35.3302 30.8893 35.3302Z" fill="#003B5E"/>
<path id="Vector_16" d="M23.7967 25.1329C23.7448 25.1329 23.6919 25.1248 23.64 25.1078L19.5608 23.7611C19.4989 23.7407 19.4415 23.7085 19.3923 23.6659C18.9171 23.2585 18.5878 22.6963 18.4648 22.0822C18.1456 20.4859 18.5315 16.6266 20.9263 13.0666C22.1811 11.2015 23.4252 10.2437 24.6241 10.2192C25.2863 10.2055 25.7752 10.4829 26.0741 10.7248C26.4589 10.5111 27.1067 10.2666 27.943 10.3741C29.3852 10.5603 30.796 11.6944 32.1356 13.7455C33.3089 15.5422 34.2734 18.3303 34.6723 20.1611C34.9389 21.3833 34.8108 22.4533 34.3119 23.1737C33.9167 23.7444 33.3137 24.0944 32.5197 24.2141L29.8034 24.8044C29.5334 24.8629 29.2671 24.6918 29.2085 24.4218C29.15 24.1518 29.3211 23.8855 29.5908 23.827L32.3234 23.2329C32.3345 23.2303 32.346 23.2285 32.3574 23.2266C32.8823 23.15 33.2526 22.9463 33.4897 22.6037C33.9474 21.9426 33.8148 20.9226 33.6948 20.3733C33.3774 18.9178 32.4771 16.097 31.2978 14.2915C30.1419 12.5218 28.9371 11.5096 27.8145 11.3648C26.9152 11.2489 26.3545 11.7303 26.3489 11.7352C26.2426 11.8315 26.103 11.8818 25.9608 11.8659C25.8189 11.85 25.6941 11.7785 25.6119 11.6622C25.5804 11.6226 25.2311 11.1985 24.6293 11.2185C24.0441 11.237 23.0704 11.6692 21.7556 13.6241C19.4474 17.0548 19.2023 20.6715 19.4448 21.8852C19.5178 22.2507 19.7045 22.5874 19.9734 22.8437L23.953 24.1574C24.2152 24.2441 24.3574 24.5266 24.2711 24.7889C24.2019 24.9992 24.0063 25.1322 23.7963 25.1322L23.7967 25.1329Z" fill="#003B5E"/>
<path id="Vector_17" d="M13.5135 9.77705C13.5139 9.29092 13.3698 8.81824 13.1036 8.43243C12.8373 8.04663 12.4638 7.76929 12.0411 7.64351C11.6184 7.51772 11.1701 7.55052 10.7659 7.73682C10.3617 7.92312 10.0241 8.25248 9.80574 8.67375C9.73048 8.81864 9.71011 8.9908 9.74912 9.15236C9.78813 9.31393 9.88332 9.45166 10.0137 9.53527C10.1442 9.61887 10.2992 9.6415 10.4446 9.59816C10.59 9.55483 10.714 9.44909 10.7893 9.30421C10.8642 9.16048 10.9718 9.04115 11.1013 8.95816C11.2308 8.87518 11.3776 8.83145 11.5271 8.83136C11.7529 8.83136 11.9694 8.931 12.1291 9.10835C12.2887 9.2857 12.3784 9.52624 12.3784 9.77705C12.3784 10.0279 12.2887 10.2684 12.1291 10.4457C11.9694 10.6231 11.7529 10.7227 11.5271 10.7227H11.5254C11.4888 10.7268 11.4527 10.7351 11.4176 10.7473C11.3795 10.7516 11.3418 10.7601 11.3052 10.7725C11.274 10.7914 11.2446 10.8136 11.2172 10.8387C11.1846 10.8585 11.1538 10.8817 11.1253 10.9081C11.0998 10.942 11.0775 10.9787 11.0589 11.0178C11.0381 11.0462 11.0197 11.0766 11.0038 11.1086C10.9915 11.152 10.9833 11.1968 10.9794 11.2422C10.9697 11.2784 10.963 11.3156 10.9596 11.3532V11.9836L10.9607 11.9906V12.3001C10.961 12.4671 11.0209 12.6272 11.1273 12.7451C11.2337 12.8631 11.3779 12.9293 11.5282 12.9293H11.5299C11.6045 12.9292 11.6782 12.9127 11.747 12.8809C11.8159 12.849 11.8783 12.8024 11.9309 12.7438C11.9835 12.6851 12.0252 12.6155 12.0536 12.539C12.082 12.4624 12.0965 12.3804 12.0964 12.2976L12.0952 11.8803C12.5037 11.7455 12.8622 11.4681 13.1176 11.0893C13.3731 10.7105 13.5119 10.2504 13.5135 9.77705ZM11.1281 14.0578C11.0484 14.1457 10.994 14.2577 10.9716 14.3799C10.9493 14.5021 10.96 14.6289 11.0025 14.7443C11.0451 14.8597 11.1174 14.9585 11.2105 15.0282C11.3036 15.0979 11.4132 15.1354 11.5254 15.1359C11.6758 15.1345 11.82 15.0691 11.9284 14.9531C12.0337 14.8335 12.0928 14.6728 12.0928 14.5055C12.0928 14.3381 12.0337 14.1774 11.9284 14.0578C11.8197 13.9454 11.6767 13.8828 11.5282 13.8828C11.3797 13.8828 11.2368 13.9454 11.1281 14.0578Z" fill="#F99600"/>
</g>
</svg>
