<?xml version="1.0" standalone="no"?>
<!DOCTYPE svg PUBLIC "-//W3C//DTD SVG 20010904//EN"
 "http://www.w3.org/TR/2001/REC-SVG-20010904/DTD/svg10.dtd">
<svg version="1.0" xmlns="http://www.w3.org/2000/svg"
 width="258.000000pt" height="91.000000pt" viewBox="0 0 258.000000 91.000000"
 preserveAspectRatio="xMidYMid meet">

<g transform="translate(0.000000,91.000000) scale(0.100000,-0.100000)"
fill="#000000" stroke="none">
<path d="M474 738 c-57 -50 -171 -237 -189 -310 -15 -58 21 -27 65 57 58 110
73 110 82 -2 4 -45 12 -91 18 -102 12 -23 52 -37 72 -25 9 6 6 10 -12 14 -33
8 -47 39 -55 125 l-7 70 41 30 c53 40 93 102 89 140 -3 26 -8 30 -35 33 -24 2
-40 -5 -69 -30z m76 -13 c0 -56 -59 -125 -106 -125 -48 0 -20 71 51 132 30 26
55 23 55 -7z"/>
<path d="M1630 754 c0 -17 22 -14 28 4 2 7 -3 12 -12 12 -9 0 -16 -7 -16 -16z"/>
<path d="M811 671 c-25 -35 -101 -198 -101 -216 0 -13 -43 -25 -91 -25 -38 0
-37 9 6 50 42 41 45 76 5 72 -35 -3 -80 -55 -80 -92 0 -47 35 -64 103 -50 41
8 61 8 81 -1 31 -14 49 -3 23 15 -28 21 -20 57 38 158 30 53 55 101 55 107 0
20 -18 11 -39 -18z m-181 -149 c0 -5 -9 -17 -20 -27 -16 -14 -20 -15 -20 -4 0
16 19 39 32 39 4 0 8 -4 8 -8z"/>
<path d="M1740 685 c0 -8 5 -15 10 -15 6 0 10 7 10 15 0 8 -4 15 -10 15 -5 0
-10 -7 -10 -15z"/>
<path d="M1553 530 c-16 -36 -32 -72 -35 -81 -8 -22 -128 -124 -128 -108 0 7
21 32 48 55 26 23 44 45 39 50 -4 4 -19 -3 -33 -17 l-27 -24 8 40 c4 22 8 56
9 75 1 31 -2 35 -26 38 -15 2 -40 -4 -57 -12 -31 -17 -81 -74 -81 -94 0 -7
-14 -12 -31 -12 -29 0 -31 2 -23 28 4 15 8 41 8 57 1 28 -1 30 -40 31 -39 0
-42 -2 -82 -63 -25 -37 -39 -69 -36 -78 10 -25 27 -12 59 45 47 84 91 98 65
21 -20 -63 -12 -71 72 -67 40 1 83 8 95 14 29 16 33 15 33 -6 0 -28 -26 -58
-101 -118 -79 -63 -109 -104 -109 -151 0 -27 21 -63 36 -63 15 0 52 25 70 47
20 24 23 25 44 10 47 -33 78 -1 153 156 47 100 65 129 84 133 17 5 28 0 42
-17 18 -22 22 -23 62 -12 28 7 48 8 54 2 16 -16 33 -10 70 22 l36 32 15 -22
c9 -13 26 -21 43 -21 37 0 93 39 105 71 12 34 0 79 -20 79 -13 0 -15 -7 -10
-35 6 -29 3 -39 -18 -60 -14 -14 -37 -25 -52 -25 -25 0 -26 2 -20 35 4 19 4
35 1 35 -3 0 -29 -18 -57 -40 -63 -51 -85 -41 -45 19 15 22 27 44 27 48 0 14
-60 -51 -74 -82 -12 -24 -24 -34 -46 -37 -58 -9 -60 12 -7 84 12 15 17 31 13
35 -7 8 -25 -9 -56 -55 -8 -12 -30 -25 -48 -28 l-32 -7 20 49 c12 26 19 57 17
68 -3 15 -12 3 -34 -44z m-133 -3 c0 -29 -75 -87 -112 -87 -36 0 -14 34 46 74
43 29 66 33 66 13z m64 -169 c-15 -51 -66 -154 -86 -175 -12 -13 -29 -23 -39
-23 -54 0 -25 85 56 163 65 62 80 70 69 35z m-154 -95 c-16 -32 -30 -63 -30
-70 0 -6 -16 -28 -35 -49 -29 -30 -37 -35 -50 -24 -35 29 2 108 78 167 63 49
72 42 37 -24z"/>
<path d="M971 525 c-41 -55 -87 -93 -97 -82 -3 3 6 28 22 56 27 51 26 83 -3
46 -26 -35 -62 -117 -56 -131 9 -23 40 -16 78 17 33 29 37 30 54 15 9 -9 33
-16 52 -16 l34 1 -32 14 c-38 16 -41 36 -13 83 44 72 16 70 -39 -3z"/>
<path d="M2079 522 c-38 -39 -56 -80 -45 -107 8 -21 36 -19 63 7 21 20 24 20
41 5 23 -21 65 -22 82 -2 11 13 8 14 -19 9 -41 -8 -49 14 -25 67 15 35 16 42
3 50 -29 18 -62 9 -100 -29z m71 -2 c0 -20 -33 -61 -61 -76 -28 -14 -29 -14
-29 10 0 15 12 34 31 50 31 27 59 34 59 16z"/>
</g>
</svg>
