<svg width="1440" height="772" viewBox="0 0 1440 772" fill="none" xmlns="http://www.w3.org/2000/svg">
<g opacity="0.6" clip-path="url(#clip0_5001_19826)">
<path d="M141.812 461.281C141.812 460.17 141.057 459.201 139.978 458.932C134.872 457.654 130.908 453.69 129.631 448.584C129.361 447.506 128.393 446.75 127.281 446.75C126.17 446.75 125.201 447.506 124.932 448.584C123.654 453.69 119.69 457.654 114.584 458.932C113.506 459.201 112.75 460.17 112.75 461.281C112.75 462.393 113.506 463.361 114.584 463.631C119.69 464.908 123.654 468.872 124.932 473.978C125.201 475.057 126.17 475.812 127.281 475.812C128.393 475.812 129.361 475.057 129.631 473.978C130.908 468.872 134.872 464.908 139.978 463.631C141.057 463.361 141.812 462.393 141.812 461.281Z" fill="#CE5036"/>
<path d="M118.678 536.616L117.921 536.236C112.878 533.715 109.201 529.132 107.834 523.662C107.564 522.585 106.596 521.828 105.484 521.828C104.373 521.828 103.404 522.585 103.135 523.662C101.768 529.132 98.091 533.715 93.0462 536.238L92.2906 536.616C91.4711 537.026 90.9531 537.865 90.9531 538.781C90.9531 539.698 91.4711 540.536 92.2906 540.947L93.0474 541.326C98.091 543.847 101.768 548.431 103.135 553.9C103.404 554.978 104.373 555.734 105.484 555.734C106.596 555.734 107.564 554.978 107.834 553.9C109.201 548.431 112.878 543.847 117.923 541.325L118.678 540.947C119.498 540.536 120.016 539.698 120.016 538.781C120.016 537.865 119.498 537.026 118.678 536.616Z" fill="#0B78B9"/>
<path d="M189.167 439.229L189.924 439.607C194.966 442.129 198.641 446.711 200.011 452.181C200.28 453.259 201.248 454.016 202.359 454.016C203.471 454.016 204.438 453.259 204.708 452.181C206.077 446.711 209.753 442.129 214.795 439.607L215.552 439.229C216.373 438.819 216.891 437.98 216.891 437.062C216.891 436.145 216.373 435.306 215.552 434.896L214.795 434.518C209.753 431.996 206.077 427.414 204.708 421.944C204.438 420.866 203.471 420.109 202.359 420.109C201.248 420.109 200.28 420.866 200.011 421.944C198.641 427.414 194.966 431.996 189.924 434.518L189.167 434.896C188.346 435.306 187.828 436.145 187.828 437.062C187.828 437.98 188.346 438.819 189.167 439.229Z" fill="#0B78B9"/>
<path d="M203.126 524.374C199.297 523.098 196.248 520.05 194.968 516.218C194.64 515.229 193.715 514.562 192.672 514.562C191.629 514.562 190.704 515.229 190.375 516.218C189.096 520.05 186.047 523.098 182.218 524.374C181.229 524.704 180.562 525.629 180.562 526.672C180.562 527.715 181.229 528.64 182.218 528.97C186.047 530.246 189.096 533.294 190.375 537.126C190.704 538.114 191.629 538.781 192.672 538.781C193.715 538.781 194.64 538.114 194.968 537.126C196.248 533.294 199.297 530.246 203.126 528.97C204.114 528.64 204.781 527.715 204.781 526.672C204.781 525.629 204.114 524.704 203.126 524.374Z" fill="#CE5036"/>
<path d="M127.281 441.906C128.619 441.906 129.703 440.822 129.703 439.484V410.422C129.703 409.084 128.619 408 127.281 408C125.944 408 124.859 409.084 124.859 410.422V439.484C124.859 440.822 125.944 441.906 127.281 441.906Z" fill="#E6C731"/>
<path d="M110.157 447.582C110.63 448.055 111.249 448.291 111.869 448.291C112.489 448.291 113.108 448.055 113.581 447.582C114.527 446.635 114.527 445.103 113.581 444.157L99.9299 430.505C98.9838 429.559 97.4512 429.559 96.5052 430.505C95.5591 431.451 95.5591 432.984 96.5052 433.93L110.157 447.582Z" fill="#E6C731"/>
<path d="M107.906 461.281C107.906 459.944 106.822 458.859 105.484 458.859H76.4219C75.0844 458.859 74 459.944 74 461.281C74 462.619 75.0844 463.703 76.4219 463.703H105.484C106.822 463.703 107.906 462.619 107.906 461.281Z" fill="#E6C731"/>
<path d="M127.281 480.656C125.944 480.656 124.859 481.741 124.859 483.078V512.141C124.859 513.478 125.944 514.562 127.281 514.562C128.619 514.562 129.703 513.478 129.703 512.141V483.078C129.703 481.741 128.619 480.656 127.281 480.656Z" fill="#E6C731"/>
<path d="M146.656 461.281C146.656 462.619 147.741 463.703 149.078 463.703H178.141C179.479 463.703 180.562 462.619 180.562 461.281C180.562 459.944 179.479 458.859 178.141 458.859H149.078C147.741 458.859 146.656 459.944 146.656 461.281Z" fill="#E6C731"/>
<path d="M96.5052 488.632C95.5591 489.578 95.5591 491.111 96.5052 492.057C96.9782 492.53 97.5979 492.767 98.2175 492.767C98.8372 492.767 99.4568 492.53 99.9299 492.057L113.581 478.406C114.527 477.46 114.527 475.927 113.581 474.981C112.635 474.035 111.103 474.035 110.157 474.981L96.5052 488.632Z" fill="#E6C731"/>
<path d="M158.059 492.057C159.005 491.111 159.005 489.578 158.059 488.632L144.406 474.981C143.46 474.035 141.927 474.035 140.981 474.981C140.035 475.927 140.035 477.46 140.981 478.406L154.634 492.057C155.107 492.53 155.727 492.767 156.346 492.767C156.966 492.767 157.586 492.53 158.059 492.057Z" fill="#E6C731"/>
<path d="M142.694 448.291C143.313 448.291 143.933 448.055 144.406 447.582L158.059 433.93C159.005 432.984 159.005 431.451 158.059 430.505C157.113 429.559 155.58 429.559 154.634 430.505L140.981 444.157C140.035 445.103 140.035 446.635 140.981 447.582C141.454 448.055 142.074 448.291 142.694 448.291Z" fill="#E6C731"/>
<path d="M192.672 490.344C191.333 490.344 190.25 491.428 190.25 492.766V507.297C190.25 508.634 191.333 509.719 192.672 509.719C194.011 509.719 195.094 508.634 195.094 507.297V492.766C195.094 491.428 194.011 490.344 192.672 490.344Z" fill="#E6C731"/>
<path d="M166.984 500.984C166.038 501.93 166.038 503.463 166.984 504.409L177.258 514.684C177.732 515.157 178.351 515.394 178.971 515.394C179.59 515.394 180.21 515.157 180.683 514.684C181.629 513.738 181.629 512.206 180.683 511.26L170.409 500.984C169.463 500.038 167.93 500.038 166.984 500.984Z" fill="#E6C731"/>
<path d="M175.719 526.672C175.719 525.334 174.636 524.25 173.297 524.25H158.766C157.427 524.25 156.344 525.334 156.344 526.672C156.344 528.009 157.427 529.094 158.766 529.094H173.297C174.636 529.094 175.719 528.009 175.719 526.672Z" fill="#E6C731"/>
<path d="M177.258 538.659L166.984 548.934C166.038 549.881 166.038 551.413 166.984 552.359C167.457 552.832 168.077 553.069 168.697 553.069C169.316 553.069 169.936 552.832 170.409 552.359L180.683 542.084C181.629 541.138 181.629 539.605 180.683 538.659C179.737 537.713 178.205 537.713 177.258 538.659Z" fill="#E6C731"/>
<path d="M192.672 543.625C191.333 543.625 190.25 544.709 190.25 546.047V560.578C190.25 561.916 191.333 563 192.672 563C194.011 563 195.094 561.916 195.094 560.578V546.047C195.094 544.709 194.011 543.625 192.672 543.625Z" fill="#E6C731"/>
<path d="M208.085 538.659C207.139 537.713 205.607 537.713 204.661 538.659C203.715 539.605 203.715 541.138 204.661 542.084L214.935 552.359C215.408 552.832 216.027 553.069 216.647 553.069C217.267 553.069 217.886 552.832 218.359 552.359C219.305 551.413 219.305 549.881 218.359 548.934L208.085 538.659Z" fill="#E6C731"/>
<path d="M226.578 524.25H212.047C210.708 524.25 209.625 525.334 209.625 526.672C209.625 528.009 210.708 529.094 212.047 529.094H226.578C227.917 529.094 229 528.009 229 526.672C229 525.334 227.917 524.25 226.578 524.25Z" fill="#E6C731"/>
<path d="M214.935 500.984L204.661 511.26C203.715 512.206 203.715 513.738 204.661 514.684C205.134 515.157 205.753 515.394 206.373 515.394C206.993 515.394 207.612 515.157 208.085 514.684L218.359 504.409C219.305 503.463 219.305 501.93 218.359 500.984C217.413 500.038 215.881 500.038 214.935 500.984Z" fill="#E6C731"/>
<path d="M88.5312 516.984C89.8688 516.984 90.9531 515.9 90.9531 514.562C90.9531 513.225 89.8688 512.141 88.5312 512.141C87.1937 512.141 86.1094 513.225 86.1094 514.562C86.1094 515.9 87.1937 516.984 88.5312 516.984Z" fill="#E6C731"/>
<path d="M129.703 550.891C131.041 550.891 132.125 549.806 132.125 548.469C132.125 547.131 131.041 546.047 129.703 546.047C128.366 546.047 127.281 547.131 127.281 548.469C127.281 549.806 128.366 550.891 129.703 550.891Z" fill="#E6C731"/>
<path d="M139.391 529.094C140.728 529.094 141.812 528.009 141.812 526.672C141.812 525.334 140.728 524.25 139.391 524.25C138.053 524.25 136.969 525.334 136.969 526.672C136.969 528.009 138.053 529.094 139.391 529.094Z" fill="#E6C731"/>
<path d="M185.406 412.844C186.744 412.844 187.828 411.759 187.828 410.422C187.828 409.084 186.744 408 185.406 408C184.069 408 182.984 409.084 182.984 410.422C182.984 411.759 184.069 412.844 185.406 412.844Z" fill="#E6C731"/>
<path d="M219.312 424.953C220.65 424.953 221.734 423.869 221.734 422.531C221.734 421.194 220.65 420.109 219.312 420.109C217.975 420.109 216.891 421.194 216.891 422.531C216.891 423.869 217.975 424.953 219.312 424.953Z" fill="#E6C731"/>
<path d="M214.469 466.125C215.806 466.125 216.891 465.041 216.891 463.703C216.891 462.366 215.806 461.281 214.469 461.281C213.131 461.281 212.047 462.366 212.047 463.703C212.047 465.041 213.131 466.125 214.469 466.125Z" fill="#E6C731"/>
</g>
<g opacity="0.6" clip-path="url(#clip1_5001_19826)">
<path d="M203.168 140.832L136.168 73.832C135.667 73.3311 134.949 73.1195 134.254 73.2636C133.562 73.4108 132.989 73.8975 132.735 74.5579L97.733 165.148C97.2464 166.409 97 167.733 97 169.082C97 175.102 101.898 180 107.918 180C109.267 180 110.591 179.753 111.852 179.266L202.442 144.265C203.102 144.01 203.589 143.438 203.736 142.746C203.882 142.053 203.669 141.333 203.168 140.832Z" fill="#0B78B9"/>
<path d="M203.168 140.832L136.168 73.832C135.667 73.3311 134.949 73.1195 134.254 73.2636C133.562 73.4108 132.989 73.8975 132.735 74.5579L97.733 165.148C97.2464 166.409 97 167.733 97 169.082C97 175.102 101.898 180 107.918 180C109.267 180 110.591 179.753 111.852 179.266L202.442 144.265C203.102 144.01 203.589 143.438 203.736 142.746C203.882 142.053 203.669 141.333 203.168 140.832Z" fill="#0B78B9"/>
<path d="M201.944 123.025C197.688 114.186 190.432 104.407 181.512 95.4883C172.593 86.5684 162.814 79.3118 153.975 75.0558C144.404 70.4441 137.028 70.0106 133.207 73.8321C129.386 77.6526 129.82 85.0288 134.431 94.5999C138.687 103.439 145.944 113.218 154.863 122.137C163.782 131.057 173.561 138.313 182.4 142.569C187.656 145.101 192.249 146.373 195.956 146.373C199 146.373 201.445 145.515 203.168 143.793C206.989 139.972 206.555 132.596 201.944 123.025Z" fill="#00928F"/>
<path d="M159.811 96.2501C159.497 96.2501 159.177 96.1796 158.876 96.0293C157.841 95.512 157.422 94.2545 157.94 93.2199L159.776 89.5477C165.129 78.8418 166.647 66.5113 164.05 54.8291C163.799 53.7004 164.511 52.582 165.64 52.3315C166.767 52.0841 167.887 52.7926 168.137 53.9212C170.942 66.5389 169.303 79.8569 163.522 91.4206L161.685 95.0929C161.318 95.8269 160.579 96.2501 159.811 96.2501Z" fill="#CE5036"/>
<path d="M145.156 69.0312C144 69.0312 143.062 68.0938 143.062 66.9375V62.5752C142.382 62.6907 141.682 62.75 140.969 62.75C137.505 62.75 134.688 59.9324 134.688 56.4688C134.688 53.0051 137.505 50.1875 140.969 50.1875C144.194 50.1875 146.86 52.6319 147.211 55.7654C148.537 54.283 149.344 52.3283 149.344 50.1875V48.0938C149.344 46.9375 150.281 46 151.438 46C152.594 46 153.531 46.9375 153.531 48.0938V50.1875C153.531 54.8279 151.002 58.8886 147.25 61.0642V66.9375C147.25 68.0938 146.313 69.0312 145.156 69.0312ZM140.969 54.375C139.815 54.375 138.875 55.3145 138.875 56.4688C138.875 57.623 139.815 58.5625 140.969 58.5625C141.692 58.5625 142.393 58.4705 143.062 58.2977V56.4688C143.062 55.3145 142.123 54.375 140.969 54.375Z" fill="#CE5036"/>
<path d="M182.846 119.281C182.077 119.281 181.338 118.858 180.971 118.124C180.454 117.089 180.873 115.832 181.907 115.314L185.58 113.478C197.144 107.697 210.463 106.059 223.079 108.862C224.208 109.113 224.92 110.231 224.669 111.36C224.417 112.49 223.298 113.199 222.171 112.95C210.486 110.353 198.156 111.871 187.453 117.224L183.78 119.06C183.48 119.211 183.16 119.281 182.846 119.281Z" fill="#CE5036"/>
<path d="M220.531 142.312C217.068 142.312 214.25 139.495 214.25 136.031C214.25 135.318 214.309 134.618 214.425 133.938H210.062C208.906 133.938 207.969 133 207.969 131.844C207.969 130.687 208.906 129.75 210.062 129.75H215.936C218.111 125.998 222.172 123.469 226.812 123.469H228.906C230.063 123.469 231 124.406 231 125.562C231 126.719 230.063 127.656 228.906 127.656H226.812C224.672 127.656 222.717 128.463 221.235 129.789C224.368 130.14 226.812 132.806 226.812 136.031C226.812 139.495 223.995 142.312 220.531 142.312ZM218.702 133.938C218.53 134.607 218.438 135.308 218.438 136.031C218.438 137.185 219.377 138.125 220.531 138.125C221.685 138.125 222.625 137.185 222.625 136.031C222.625 134.877 221.685 133.938 220.531 133.938H218.702Z" fill="#CE5036"/>
<path d="M172.375 106.719C171.839 106.719 171.304 106.514 170.895 106.105C170.077 105.287 170.077 103.963 170.895 103.145L201.254 72.7853C202.072 71.9674 203.397 71.9674 204.215 72.7853C205.033 73.6031 205.033 74.9281 204.215 75.746L173.855 106.105C173.446 106.514 172.911 106.719 172.375 106.719Z" fill="#CE5036"/>
<path d="M159.391 159.891C139.982 151.442 124.854 104.525 124.219 102.531L123.184 99.2778L113.269 124.939L113.75 129.75C113.855 130.802 116.219 152.506 132.047 171.463L160.701 160.392C160.265 160.244 159.829 160.082 159.391 159.891Z" fill="#E6C731"/>
<path d="M219.6 159.415L218.827 158.899C215.66 156.788 213.252 153.637 212.049 150.026C211.764 149.17 210.964 148.594 210.062 148.594C209.161 148.594 208.361 149.17 208.076 150.026C206.873 153.637 204.465 156.788 201.297 158.9L200.525 159.415C199.943 159.804 199.594 160.457 199.594 161.156C199.594 161.856 199.943 162.509 200.525 162.897L201.298 163.414C204.465 165.525 206.873 168.676 208.076 172.286C208.361 173.142 209.161 173.719 210.062 173.719C210.964 173.719 211.764 173.142 212.049 172.286C213.252 168.676 215.66 165.525 218.828 163.413L219.6 162.897C220.182 162.509 220.531 161.856 220.531 161.156C220.531 160.457 220.182 159.804 219.6 159.415Z" fill="#E6C731"/>
<path d="M121.194 77.759L120.421 77.2427C117.254 75.1315 114.846 71.9807 113.643 68.3698C113.357 67.5141 112.558 66.9375 111.656 66.9375C110.755 66.9375 109.955 67.5141 109.67 68.3698C108.467 71.9807 106.059 75.1315 102.891 77.2437L102.119 77.759C101.537 78.1474 101.188 78.8007 101.188 79.5C101.188 80.1993 101.537 80.8526 102.119 81.241L102.892 81.7573C106.059 83.8685 108.467 87.0193 109.67 90.6302C109.955 91.4859 110.755 92.0625 111.656 92.0625C112.558 92.0625 113.357 91.4859 113.643 90.6302C114.846 87.0193 117.254 83.8685 120.422 81.7563L121.194 81.241C121.775 80.8526 122.125 80.1993 122.125 79.5C122.125 78.8007 121.775 78.1474 121.194 77.759Z" fill="#E6C731"/>
<path d="M222.625 52.2812H210.062C208.906 52.2812 207.969 53.2187 207.969 54.375V66.9375C207.969 68.0938 208.906 69.0312 210.062 69.0312H222.625C223.781 69.0312 224.719 68.0938 224.719 66.9375V54.375C224.719 53.2187 223.781 52.2812 222.625 52.2812Z" fill="#E6C731"/>
<path d="M180.748 75.3126C180.381 75.3126 180.01 75.2165 179.673 75.014C178.681 74.419 178.36 73.1329 178.955 72.1413L185.236 61.6725C185.831 60.6798 187.116 60.3588 188.109 60.9548C189.101 61.5498 189.422 62.8359 188.827 63.8276L182.545 74.2964C182.153 74.9507 181.46 75.3126 180.748 75.3126Z" fill="#CE5036"/>
<path d="M203.783 98.3439C203.072 98.3439 202.379 97.982 201.986 97.3277C201.391 96.336 201.712 95.0499 202.704 94.4549L213.173 88.1737C214.163 87.5797 215.451 87.8986 216.045 88.8913C216.64 89.883 216.319 91.1691 215.328 91.7641L204.859 98.0454C204.522 98.2478 204.15 98.3439 203.783 98.3439Z" fill="#CE5036"/>
</g>
<g opacity="0.6">
<path d="M1029.5 566.437H1004.44V592.665H1029.22V618.639H1004.5V592.665H969.235V710.691H1054.85V592.212H1029.5V566.437Z" fill="#CE5036"/>
<path d="M1227.65 346.024C1251.69 346.024 1267.4 358.312 1277.68 376.174L1291.95 369.059C1277.26 343.026 1255.78 329.651 1227.89 329.651C1200 329.651 1180.24 342.213 1165.72 366.688L1179.93 373.706C1190.04 357.183 1205.11 346.024 1227.65 346.024Z" fill="#F99600"/>
<path d="M1170.75 593.742H1153.99C1157.77 605.314 1162.38 615.385 1167.81 623.903C1182.14 646.394 1202.21 657.856 1227.45 657.977V641.609C1196.85 641.531 1180.01 620.813 1170.75 593.742Z" fill="#E6C731"/>
<path d="M1189.39 660.951C1176.94 654.303 1166.23 644.039 1157.56 630.431C1151.02 620.163 1145.59 607.912 1141.28 593.737H1121.06C1126.91 613.743 1134.85 630.541 1144.86 643.999C1164.61 670.538 1192.39 684.02 1227.46 684.099V670.125C1213.51 670.066 1200.7 666.988 1189.39 660.951Z" fill="#E6C731"/>
<path d="M1157.55 356.804C1166.23 343.364 1176.94 333.209 1189.38 326.62C1200.82 320.557 1213.76 317.486 1227.84 317.486C1241.93 317.486 1255.17 320.557 1266.7 326.608C1279.24 333.191 1290.02 343.346 1298.76 356.792C1300.17 358.972 1301.53 361.249 1302.84 363.602L1319.52 355.293C1317 351.022 1314.33 347.002 1311.49 343.25C1291.5 316.883 1263.32 303.508 1227.72 303.508C1188.21 303.508 1158.17 320.348 1138.16 353.083L1154.81 361.302C1155.71 359.767 1156.62 358.262 1157.55 356.804Z" fill="#CE5036"/>
<path d="M1135.15 335.932C1146.68 320.628 1160.86 309.087 1177.3 301.627C1192.3 294.817 1209.28 291.364 1227.76 291.364C1246.24 291.364 1263.64 294.817 1278.77 301.62C1295.33 309.07 1309.61 320.61 1321.22 335.921C1324.5 340.257 1327.58 344.923 1330.45 349.875L1349.02 340.628C1320.49 293.759 1276.29 276 1227.65 276C1179 276 1137.12 293.222 1108.68 338.519L1127.26 347.688C1129.74 343.555 1132.36 339.624 1135.15 335.932Z" fill="#CE5036"/>
<path d="M1177.27 685.938C1160.82 678.417 1146.63 666.751 1135.11 651.256C1123.69 635.904 1114.8 616.674 1108.45 593.737H1085.95C1109.19 681.22 1164.87 711.566 1227.46 711.625V696.254C1209.05 696.219 1192.16 692.749 1177.27 685.938Z" fill="#E6C731"/>
<path d="M1144.84 643.999C1134.83 630.534 1126.89 613.736 1121.03 593.737H1108.43C1114.77 616.674 1123.67 635.904 1135.09 651.256C1146.61 666.746 1160.79 678.417 1177.24 685.938C1192.14 692.754 1209.03 696.219 1227.44 696.254V684.099C1192.38 684.027 1164.57 670.538 1144.84 643.999Z" fill="#CE5036"/>
<path d="M1167.8 623.898C1162.37 615.378 1157.77 605.307 1153.99 593.737H1141.27C1145.58 607.912 1151.01 620.163 1157.55 630.431C1166.22 644.035 1176.93 654.303 1189.38 660.951C1200.69 666.983 1213.49 670.073 1227.45 670.133V657.977C1202.21 657.851 1182.13 646.389 1167.8 623.898Z" fill="#00706E"/>
<path d="M1357.97 535.884L1346.45 527.366L1327.12 513.065L1315.22 504.261L1297.04 490.814C1297.04 491.22 1297.04 491.621 1297.04 492.02C1297.04 507.707 1297.04 529.45 1294.51 551.511H1378.55C1378.57 551.392 1378.58 551.278 1378.59 551.157L1357.97 535.884Z" fill="#E6C731"/>
<path d="M1165.71 366.685L1154.84 361.321L1138.19 353.102L1127.25 347.696L1108.68 338.526C1088.57 370.574 1075.9 416.683 1074.57 480.69H1159.45C1159.7 450.005 1161.83 403.274 1179.91 373.705L1165.71 366.685Z" fill="#F99600"/>
<path d="M1381.86 479.673H1296.99C1297.02 483.674 1297.03 487.421 1297.03 490.831L1315.2 504.278L1327.1 513.082L1346.43 527.383L1357.95 535.901L1378.58 551.17C1380.82 533.278 1382 513.614 1382 492.032C1382 487.839 1381.95 483.731 1381.86 479.673Z" fill="#00928F"/>
<path d="M1356.26 551.513H1294.49C1289.38 595.932 1273.99 641.623 1227.61 641.623C1227.55 641.623 1227.49 641.623 1227.43 641.623V711.639C1227.49 711.639 1227.55 711.639 1227.61 711.639C1300.49 711.639 1363.39 671.783 1378.53 551.517L1356.26 551.513Z" fill="#CE5036"/>
<path d="M1159.42 498.763L1141.69 517.461L1130.25 529.526L1112.05 548.721L1101.35 560.005L1082.61 579.764C1083.63 584.584 1084.74 589.25 1085.94 593.761H1170.75C1160.35 563.368 1159.49 524.963 1159.42 498.763Z" fill="#00706E"/>
<path d="M1159.44 480.668H1074.55C1074.55 480.889 1074.54 481.098 1074.54 481.319C1074.47 484.831 1074.43 488.391 1074.43 492.005C1074.43 525.749 1077.32 554.823 1082.6 579.732L1101.34 559.973L1112.04 548.688L1130.24 529.497L1141.68 517.429L1159.41 498.733C1159.4 496.383 1159.4 494.138 1159.4 492C1159.4 488.744 1159.4 485.154 1159.43 481.314C1159.43 481.098 1159.44 480.884 1159.44 480.668Z" fill="#007DC7"/>
<path d="M1307.58 383.168H1307.52L1303.7 400.969H1295.62L1293.3 411.836H1301.39L1293.88 447.431C1291.22 460.028 1292.72 463.839 1305.2 463.839C1308.9 463.839 1312.14 463.493 1315.72 463.146L1318.03 452.054C1316.99 452.168 1315.72 452.287 1314.45 452.287C1309.83 452.287 1309.25 450.322 1310.29 445.471L1317.34 411.84H1326.58L1328.89 400.974H1319.65L1321.25 393.465L1321.63 391.721L1323.46 383.18H1323.37L1325.36 373.407L1307.8 382.081L1307.58 383.168Z" fill="#E6C731"/>
<path d="M1368.43 399.335C1361.73 399.335 1355.72 401.993 1351.68 407.309H1351.44L1354.38 393.438H1354.43L1355.47 388.319L1357.11 380.613H1357.04L1362.23 355.19L1344.66 363.863L1341.25 380.621H1341.16L1323.59 463.139H1339.54L1348.32 421.878C1349.83 414.944 1353.52 411.593 1358.95 411.593C1363.69 411.593 1365.19 414.018 1363.92 420.26L1354.8 463.139H1370.75L1380.57 417.023C1383.12 404.77 1378.37 399.335 1368.43 399.335Z" fill="#E6C731"/>
<path d="M1011.96 473.963C988.393 473.963 969.292 493.068 969.292 516.633C969.292 529.254 974.774 540.593 983.49 548.405L969.004 559.301H1011.16C1011.43 559.301 1011.69 559.301 1011.96 559.301C1035.52 559.301 1054.63 540.199 1054.63 516.633C1054.63 493.068 1035.52 473.963 1011.96 473.963Z" fill="#F99600"/>
<path d="M915.885 327.564V392.072H969.234V478.228L1054.85 442.535V375.676L972.656 310.969C960.161 322.445 940.136 327.564 915.885 327.564Z" fill="#0B78B9"/>
<path d="M986.703 276C986.703 291.233 981.608 302.737 972.642 310.969L1054.83 375.681V276H986.703Z" fill="#00928F"/>
</g>
<g opacity="0.6" clip-path="url(#clip2_5001_19826)">
<path d="M1371.45 127.587C1371.07 126.943 1370.44 126.483 1369.71 126.315C1360.83 124.271 1352.02 121.81 1343.54 119.001C1342.85 118.771 1342.1 118.829 1341.45 119.157C1340.8 119.486 1340.31 120.061 1340.08 120.754L1330.76 149.548C1330.44 150.543 1330.71 151.633 1331.46 152.36C1332.21 153.086 1333.31 153.312 1334.3 152.959L1349.4 147.438L1358.48 160.18C1358.99 160.907 1359.83 161.328 1360.7 161.328C1360.86 161.328 1361.01 161.315 1361.17 161.288C1362.21 161.109 1363.05 160.351 1363.33 159.34L1371.73 129.726C1371.93 129.005 1371.83 128.232 1371.45 127.587Z" fill="#CE5036"/>
<path d="M1418.44 135.747C1418.33 134.406 1417.25 133.347 1415.91 133.253C1406.8 132.61 1397.56 131.526 1388.44 130.028C1387.6 129.891 1386.76 130.146 1386.14 130.716C1385.52 131.287 1385.2 132.111 1385.27 132.95L1388.06 167.02C1388.14 168.028 1388.77 168.908 1389.7 169.308C1390.05 169.458 1390.41 169.531 1390.78 169.531C1391.39 169.531 1392 169.327 1392.49 168.932L1404.68 159.182L1416.72 166.407C1417.6 166.936 1418.7 166.925 1419.57 166.382C1420.44 165.838 1420.94 164.853 1420.85 163.829L1418.44 135.747Z" fill="#0B78B9"/>
<path d="M1323.29 112.478C1323.03 111.761 1322.48 111.188 1321.77 110.896C1313.48 107.462 1305.21 103.562 1297.18 99.3038C1295.85 98.6015 1294.21 99.0968 1293.49 100.419L1279 127.215C1278.52 128.104 1278.57 129.186 1279.13 130.028C1279.69 130.871 1280.68 131.351 1281.67 131.236L1297.41 129.705L1303.52 143.309C1303.95 144.267 1304.9 144.895 1305.95 144.92C1305.97 144.922 1305.99 144.922 1306.02 144.922C1307.04 144.922 1307.98 144.348 1308.45 143.432L1323.16 114.666C1323.51 113.988 1323.56 113.193 1323.29 112.478Z" fill="#E6C731"/>
<path d="M1373.7 34.292C1372.95 33.5817 1371.86 33.3588 1370.89 33.7179C1358.83 38.1306 1346.53 41.7582 1334.35 44.5005C1333.38 44.7168 1332.61 45.4378 1332.33 46.3844C1332.04 47.331 1332.29 48.3578 1332.98 49.0681L1358.74 75.7282C1359.26 76.2676 1359.97 76.5627 1360.7 76.5627C1360.92 76.5627 1361.14 76.5373 1361.35 76.4839C1362.3 76.2529 1363.05 75.5373 1363.33 74.6054L1374.45 37.0624C1374.75 36.0718 1374.46 34.9997 1373.7 34.292Z" fill="#0B78B9"/>
<path d="M1419.92 12.1807C1419.06 11.6373 1417.96 11.616 1417.08 12.126C1406.18 18.4345 1394.75 24.0942 1383.09 28.9475C1382.15 29.3373 1381.51 30.2105 1381.41 31.2186C1381.32 32.2266 1381.79 33.2039 1382.64 33.7593L1413.89 54.2404C1414.35 54.5368 1414.87 54.6877 1415.39 54.6877C1415.8 54.6877 1416.21 54.5956 1416.59 54.41C1417.46 53.9868 1418.04 53.1376 1418.12 52.1763L1421.18 14.7148C1421.26 13.7001 1420.78 12.7241 1419.92 12.1807Z" fill="#E6C731"/>
<path d="M1322.51 48.3534C1321.88 47.5911 1320.89 47.2226 1319.92 47.4015C1307.05 49.6872 1293.98 51.1185 1281.07 51.6553C1280.06 51.6966 1279.15 52.2975 1278.72 53.2147C1278.28 54.1319 1278.39 55.2147 1279 56.0278L1303.83 89.1408C1304.35 89.835 1305.16 90.2342 1306.02 90.2342C1306.14 90.2342 1306.27 90.2262 1306.39 90.2075C1307.38 90.0714 1308.21 89.4091 1308.57 88.4812L1322.95 51.0745C1323.3 50.1532 1323.13 49.1145 1322.51 48.3534Z" fill="#CE5036"/>
<path d="M1268.18 57.4222H1267.73C1266.22 57.4222 1265 56.1979 1265 54.6878C1265 53.1778 1266.22 51.9534 1267.73 51.9534H1268.18C1328.16 51.9534 1386.1 34.152 1435.73 0.471624C1436.98 -0.374858 1438.68 -0.0517528 1439.53 1.19928C1440.38 2.44897 1440.05 4.14995 1438.8 4.99776C1388.26 39.2936 1329.26 57.4222 1268.18 57.4222Z" fill="#8D86A8"/>
<path d="M1304.8 16.8669L1303.79 16.1926C1299.65 13.4356 1296.51 9.32064 1294.94 4.60491C1294.57 3.4874 1293.52 2.73438 1292.34 2.73438C1291.17 2.73438 1290.12 3.4874 1289.75 4.60491C1288.18 9.32064 1285.03 13.4356 1280.9 16.194L1279.89 16.8669C1279.13 17.3742 1278.67 18.2274 1278.67 19.1406C1278.67 20.0539 1279.13 20.907 1279.89 21.4144L1280.9 22.0886C1285.03 24.8457 1288.18 28.9606 1289.75 33.6763C1290.12 34.7939 1291.17 35.5469 1292.34 35.5469C1293.52 35.5469 1294.57 34.7939 1294.94 33.6763C1296.51 28.9606 1299.65 24.8457 1303.79 22.0873L1304.8 21.4144C1305.56 20.907 1306.02 20.0539 1306.02 19.1406C1306.02 18.2274 1305.56 17.3742 1304.8 16.8669Z" fill="#E6C731"/>
<path d="M1416.91 82.4919L1415.9 81.8176C1411.76 79.0606 1408.62 74.9456 1407.05 70.2299C1406.67 69.1124 1405.63 68.3594 1404.45 68.3594C1403.28 68.3594 1402.23 69.1124 1401.86 70.2299C1400.29 74.9456 1397.14 79.0606 1393.01 81.819L1392 82.4919C1391.24 82.9992 1390.78 83.8524 1390.78 84.7656C1390.78 85.6789 1391.24 86.532 1392 87.0394L1393.01 87.7136C1397.14 90.4707 1400.29 94.5856 1401.86 99.3013C1402.23 100.419 1403.28 101.172 1404.45 101.172C1405.63 101.172 1406.67 100.419 1407.05 99.3013C1408.62 94.5856 1411.76 90.4707 1415.9 87.7123L1416.91 87.0394C1417.67 86.532 1418.12 85.6789 1418.12 84.7656C1418.12 83.8524 1417.67 82.9992 1416.91 82.4919Z" fill="#CE5036"/>
<path d="M1291.13 156.32L1290.12 155.646C1285.98 152.889 1282.84 148.774 1281.27 144.058C1280.89 142.941 1279.85 142.188 1278.67 142.188C1277.49 142.188 1276.45 142.941 1276.08 144.058C1274.51 148.774 1271.36 152.889 1267.22 155.647L1266.22 156.32C1265.46 156.827 1265 157.681 1265 158.594C1265 159.507 1265.46 160.36 1266.22 160.868L1267.23 161.542C1271.36 164.299 1274.51 168.414 1276.08 173.129C1276.45 174.247 1277.49 175 1278.67 175C1279.85 175 1280.89 174.247 1281.27 173.129C1282.84 168.414 1285.98 164.299 1290.12 161.54L1291.13 160.868C1291.89 160.36 1292.34 159.507 1292.34 158.594C1292.34 157.681 1291.89 156.827 1291.13 156.32Z" fill="#0B78B9"/>
<path d="M1273.2 117.578C1274.71 117.578 1275.94 116.354 1275.94 114.844C1275.94 113.334 1274.71 112.109 1273.2 112.109C1271.69 112.109 1270.47 113.334 1270.47 114.844C1270.47 116.354 1271.69 117.578 1273.2 117.578Z" fill="#CE5036"/>
<path d="M1319.69 147.656C1321.2 147.656 1322.42 146.432 1322.42 144.922C1322.42 143.412 1321.2 142.188 1319.69 142.188C1318.18 142.188 1316.95 143.412 1316.95 144.922C1316.95 146.432 1318.18 147.656 1319.69 147.656Z" fill="#0B78B9"/>
<path d="M1338.83 95.7031C1340.34 95.7031 1341.56 94.4789 1341.56 92.9688C1341.56 91.4586 1340.34 90.2344 1338.83 90.2344C1337.32 90.2344 1336.09 91.4586 1336.09 92.9688C1336.09 94.4789 1337.32 95.7031 1338.83 95.7031Z" fill="#E6C731"/>
<path d="M1338.83 21.875C1340.34 21.875 1341.56 20.6508 1341.56 19.1406C1341.56 17.6305 1340.34 16.4062 1338.83 16.4062C1337.32 16.4062 1336.09 17.6305 1336.09 19.1406C1336.09 20.6508 1337.32 21.875 1338.83 21.875Z" fill="#CE5036"/>
<path d="M1385.31 54.6875C1386.82 54.6875 1388.05 53.4633 1388.05 51.9531C1388.05 50.443 1386.82 49.2188 1385.31 49.2188C1383.8 49.2188 1382.58 50.443 1382.58 51.9531C1382.58 53.4633 1383.8 54.6875 1385.31 54.6875Z" fill="#E6C731"/>
<path d="M1437.27 139.453H1436.82C1375.74 139.453 1316.74 121.325 1266.2 87.0287C1264.95 86.1808 1264.62 84.4799 1265.47 83.2302C1266.32 81.9805 1268.02 81.656 1269.27 82.5025C1318.9 116.183 1376.84 133.984 1436.82 133.984H1437.27C1438.78 133.984 1440 135.209 1440 136.719C1440 138.229 1438.78 139.453 1437.27 139.453Z" fill="#8D86A8"/>
</g>
<defs>
<clipPath id="clip0_5001_19826">
<rect width="155" height="155" fill="white" transform="translate(74 408)"/>
</clipPath>
<clipPath id="clip1_5001_19826">
<rect width="134" height="134" fill="white" transform="translate(97 46)"/>
</clipPath>
<clipPath id="clip2_5001_19826">
<rect width="175" height="175" fill="white" transform="translate(1265)"/>
</clipPath>
</defs>
</svg>
