<svg width="412" height="1299" viewBox="0 0 412 1299" fill="none" xmlns="http://www.w3.org/2000/svg">
<g opacity="0.6" clip-path="url(#clip0_5004_19404)">
<path d="M361.078 176.779C360.794 176.3 360.327 175.959 359.784 175.834C353.186 174.316 346.646 172.488 340.347 170.401C339.834 170.23 339.274 170.273 338.791 170.517C338.308 170.761 337.943 171.188 337.776 171.703L330.849 193.093C330.609 193.832 330.812 194.642 331.372 195.182C331.929 195.721 332.747 195.889 333.478 195.627L344.7 191.526L351.439 200.991C351.824 201.531 352.444 201.844 353.094 201.844C353.209 201.844 353.324 201.834 353.44 201.814C354.209 201.681 354.835 201.118 355.047 200.367L361.283 178.368C361.435 177.833 361.36 177.258 361.078 176.779Z" fill="#CE5036"/>
<path d="M395.987 182.841C395.901 181.845 395.103 181.058 394.105 180.988C387.339 180.511 380.472 179.705 373.695 178.593C373.074 178.49 372.448 178.68 371.989 179.103C371.529 179.528 371.29 180.14 371.341 180.763L373.413 206.072C373.475 206.821 373.944 207.474 374.633 207.772C374.892 207.883 375.165 207.938 375.437 207.938C375.891 207.938 376.34 207.786 376.706 207.492L385.759 200.25L394.704 205.617C395.359 206.01 396.178 206.002 396.825 205.598C397.473 205.194 397.839 204.462 397.774 203.702L395.987 182.841Z" fill="#0B78B9"/>
<path d="M325.303 165.555C325.106 165.022 324.698 164.597 324.174 164.38C318.015 161.829 311.869 158.932 305.905 155.769C304.918 155.247 303.697 155.615 303.166 156.597L292.401 176.503C292.043 177.163 292.08 177.967 292.495 178.592C292.91 179.218 293.645 179.575 294.384 179.49L306.074 178.352L310.616 188.458C310.936 189.17 311.636 189.636 312.417 189.655C312.435 189.656 312.452 189.656 312.469 189.656C313.23 189.656 313.93 189.23 314.277 188.549L325.205 167.181C325.463 166.677 325.498 166.087 325.303 165.555Z" fill="#E6C731"/>
<path d="M362.751 107.474C362.192 106.946 361.382 106.781 360.662 107.047C351.702 110.325 342.568 113.02 333.514 115.057C332.797 115.218 332.224 115.754 332.013 116.457C331.803 117.16 331.989 117.923 332.498 118.45L351.633 138.255C352.02 138.656 352.549 138.875 353.094 138.875C353.254 138.875 353.417 138.856 353.577 138.817C354.278 138.645 354.836 138.113 355.042 137.421L363.308 109.532C363.527 108.796 363.31 108 362.751 107.474Z" fill="#0B78B9"/>
<path d="M397.08 91.0485C396.442 90.6449 395.631 90.629 394.976 91.0079C386.88 95.6942 378.382 99.8986 369.72 103.504C369.026 103.793 368.548 104.442 368.479 105.191C368.409 105.94 368.758 106.666 369.387 107.078L392.605 122.293C392.942 122.513 393.33 122.625 393.719 122.625C394.023 122.625 394.328 122.557 394.61 122.419C395.254 122.104 395.684 121.474 395.743 120.76L398.018 92.931C398.08 92.1772 397.719 91.4522 397.08 91.0485Z" fill="#E6C731"/>
<path d="M324.72 117.92C324.254 117.354 323.519 117.08 322.798 117.213C313.236 118.911 303.527 119.974 293.941 120.373C293.187 120.403 292.513 120.85 292.19 121.531C291.867 122.213 291.947 123.017 292.399 123.621L310.843 148.219C311.23 148.735 311.835 149.031 312.469 149.031C312.561 149.031 312.655 149.025 312.748 149.012C313.48 148.91 314.099 148.418 314.365 147.729L325.049 119.941C325.312 119.257 325.186 118.485 324.72 117.92Z" fill="#CE5036"/>
<path d="M284.361 124.656H284.031C282.91 124.656 282 123.747 282 122.625C282 121.503 282.91 120.594 284.031 120.594H284.361C328.918 120.594 371.958 107.37 408.828 82.3503C409.755 81.7215 411.019 81.9616 411.65 82.8909C412.28 83.8192 412.038 85.0828 411.109 85.7126C373.563 111.19 329.734 124.656 284.361 124.656Z" fill="#8D86A8"/>
<path d="M311.565 94.5297L310.815 94.0288C307.743 91.9807 305.407 88.9239 304.24 85.4208C303.963 84.5906 303.187 84.0312 302.312 84.0312C301.438 84.0312 300.662 84.5906 300.385 85.4208C299.218 88.9239 296.882 91.9807 293.809 94.0298L293.06 94.5297C292.495 94.9066 292.156 95.5403 292.156 96.2188C292.156 96.8972 292.495 97.5309 293.06 97.9078L293.81 98.4087C296.882 100.457 299.218 103.514 300.385 107.017C300.662 107.847 301.438 108.406 302.312 108.406C303.187 108.406 303.963 107.847 304.24 107.017C305.407 103.514 307.743 100.457 310.816 98.4077L311.565 97.9078C312.13 97.5309 312.469 96.8972 312.469 96.2188C312.469 95.5403 312.13 94.9066 311.565 94.5297Z" fill="#E6C731"/>
<path d="M394.846 143.28L394.097 142.779C391.024 140.731 388.688 137.674 387.521 134.171C387.244 133.341 386.469 132.781 385.594 132.781C384.719 132.781 383.943 133.341 383.667 134.171C382.499 137.674 380.164 140.731 377.09 142.78L376.341 143.28C375.777 143.657 375.438 144.29 375.438 144.969C375.438 145.647 375.777 146.281 376.341 146.658L377.091 147.159C380.164 149.207 382.499 152.264 383.667 155.767C383.943 156.597 384.719 157.156 385.594 157.156C386.469 157.156 387.244 156.597 387.521 155.767C388.688 152.264 391.024 149.207 394.098 147.158L394.846 146.658C395.411 146.281 395.75 145.647 395.75 144.969C395.75 144.29 395.411 143.657 394.846 143.28Z" fill="#CE5036"/>
<path d="M301.409 198.123L300.659 197.623C297.586 195.574 295.251 192.518 294.083 189.015C293.807 188.184 293.031 187.625 292.156 187.625C291.281 187.625 290.506 188.184 290.229 189.015C289.062 192.518 286.726 195.574 283.652 197.624L282.904 198.123C282.339 198.5 282 199.134 282 199.812C282 200.491 282.339 201.125 282.904 201.502L283.653 202.002C286.726 204.051 289.062 207.107 290.229 210.61C290.506 211.441 291.281 212 292.156 212C293.031 212 293.807 211.441 294.083 210.61C295.251 207.107 297.586 204.051 300.66 202.001L301.409 201.502C301.973 201.125 302.312 200.491 302.312 199.812C302.312 199.134 301.973 198.5 301.409 198.123Z" fill="#0B78B9"/>
<path d="M288.094 169.344C289.216 169.344 290.125 168.434 290.125 167.312C290.125 166.191 289.216 165.281 288.094 165.281C286.972 165.281 286.062 166.191 286.062 167.312C286.062 168.434 286.972 169.344 288.094 169.344Z" fill="#CE5036"/>
<path d="M322.625 191.688C323.747 191.688 324.656 190.778 324.656 189.656C324.656 188.534 323.747 187.625 322.625 187.625C321.503 187.625 320.594 188.534 320.594 189.656C320.594 190.778 321.503 191.688 322.625 191.688Z" fill="#0B78B9"/>
<path d="M336.844 153.094C337.966 153.094 338.875 152.184 338.875 151.062C338.875 149.941 337.966 149.031 336.844 149.031C335.722 149.031 334.812 149.941 334.812 151.062C334.812 152.184 335.722 153.094 336.844 153.094Z" fill="#E6C731"/>
<path d="M336.844 98.25C337.966 98.25 338.875 97.3406 338.875 96.2188C338.875 95.0969 337.966 94.1875 336.844 94.1875C335.722 94.1875 334.812 95.0969 334.812 96.2188C334.812 97.3406 335.722 98.25 336.844 98.25Z" fill="#CE5036"/>
<path d="M371.375 122.625C372.497 122.625 373.406 121.716 373.406 120.594C373.406 119.472 372.497 118.562 371.375 118.562C370.253 118.562 369.344 119.472 369.344 120.594C369.344 121.716 370.253 122.625 371.375 122.625Z" fill="#E6C731"/>
<path d="M409.969 185.594H409.639C364.266 185.594 320.437 172.127 282.891 146.65C281.962 146.02 281.72 144.756 282.35 143.828C282.98 142.9 284.245 142.659 285.172 143.288C322.042 168.307 365.082 181.531 409.639 181.531H409.969C411.09 181.531 412 182.441 412 183.562C412 184.684 411.09 185.594 409.969 185.594Z" fill="#8D86A8"/>
</g>
<g opacity="0.6" clip-path="url(#clip1_5004_19404)">
<path d="M50.9222 694.779C51.2059 694.3 51.6731 693.959 52.2156 693.834C58.8142 692.316 65.3542 690.488 71.6533 688.401C72.1661 688.23 72.7265 688.273 73.2095 688.517C73.6925 688.761 74.0575 689.188 74.2241 689.703L81.151 711.093C81.391 711.832 81.1877 712.642 80.6283 713.182C80.0709 713.721 79.2526 713.889 78.5217 713.627L67.3002 709.526L60.5608 718.991C60.1759 719.531 59.5561 719.844 58.9064 719.844C58.7914 719.844 58.6763 719.834 58.5603 719.814C57.7906 719.681 57.1648 719.118 56.9525 718.367L50.7169 696.368C50.5652 695.833 50.6396 695.258 50.9222 694.779Z" fill="#CE5036"/>
<path d="M16.0131 700.841C16.0994 699.845 16.8968 699.058 17.8946 698.988C24.6608 698.511 31.5282 697.705 38.3053 696.593C38.9261 696.49 39.552 696.68 40.0112 697.103C40.4714 697.528 40.7104 698.14 40.6589 698.763L38.5869 724.072C38.5254 724.821 38.0563 725.474 37.367 725.772C37.1081 725.883 36.8354 725.938 36.5626 725.938C36.1094 725.938 35.6601 725.786 35.2941 725.492L26.2408 718.25L17.2955 723.617C16.6409 724.01 15.8217 724.002 15.175 723.598C14.5273 723.194 14.1614 722.462 14.2258 721.702L16.0131 700.841Z" fill="#0B78B9"/>
<path d="M86.6972 683.555C86.8936 683.022 87.3022 682.597 87.8259 682.38C93.9851 679.829 100.131 676.932 106.095 673.769C107.082 673.247 108.303 673.615 108.834 674.597L119.599 694.503C119.957 695.163 119.92 695.967 119.505 696.592C119.09 697.218 118.355 697.575 117.616 697.49L105.926 696.352L101.384 706.458C101.064 707.17 100.364 707.636 99.583 707.655C99.5651 707.656 99.5483 707.656 99.5314 707.656C98.7697 707.656 98.0704 707.23 97.7233 706.549L86.7954 685.181C86.5366 684.677 86.5018 684.087 86.6972 683.555Z" fill="#E6C731"/>
<path d="M49.2491 625.474C49.8084 624.946 50.6178 624.781 51.3378 625.047C60.298 628.325 69.4316 631.02 78.486 633.057C79.2031 633.218 79.7763 633.754 79.9866 634.457C80.1969 635.16 80.0114 635.923 79.5016 636.45L60.3674 656.255C59.9796 656.656 59.4509 656.875 58.9064 656.875C58.7457 656.875 58.5831 656.856 58.4234 656.817C57.7222 656.645 57.1638 656.113 56.9585 655.421L48.6917 627.532C48.4735 626.796 48.6897 626 49.2491 625.474Z" fill="#0B78B9"/>
<path d="M14.9202 609.049C15.5579 608.645 16.3692 608.629 17.0238 609.008C25.1201 613.694 33.618 617.899 42.2796 621.504C42.9738 621.793 43.4519 622.442 43.5213 623.191C43.5907 623.94 43.2416 624.666 42.6128 625.078L19.3953 640.293C19.058 640.513 18.6702 640.625 18.2814 640.625C17.977 640.625 17.6725 640.557 17.3898 640.419C16.7461 640.104 16.3157 639.474 16.2571 638.76L13.9819 610.931C13.9204 610.177 14.2814 609.452 14.9202 609.049Z" fill="#E6C731"/>
<path d="M87.2803 635.92C87.7464 635.354 88.4814 635.08 89.2024 635.213C98.7636 636.911 108.473 637.974 118.059 638.373C118.813 638.403 119.487 638.85 119.81 639.531C120.133 640.213 120.053 641.017 119.601 641.621L101.157 666.219C100.77 666.735 100.165 667.031 99.5312 667.031C99.439 667.031 99.3448 667.025 99.2515 667.012C98.5196 666.91 97.9007 666.418 97.6349 665.729L86.951 637.941C86.6881 637.257 86.8141 636.485 87.2803 635.92Z" fill="#CE5036"/>
<path d="M127.639 642.656H127.969C129.09 642.656 130 641.747 130 640.625C130 639.503 129.09 638.594 127.969 638.594H127.639C83.0819 638.594 40.0418 625.37 3.17183 600.35C2.24547 599.722 0.980896 599.962 0.350098 600.891C-0.279709 601.819 -0.0377045 603.083 0.89064 603.713C38.437 629.19 82.2656 642.656 127.639 642.656Z" fill="#8D86A8"/>
<path d="M100.435 612.53L101.185 612.029C104.257 609.981 106.593 606.924 107.76 603.421C108.037 602.591 108.813 602.031 109.688 602.031C110.562 602.031 111.338 602.591 111.615 603.421C112.782 606.924 115.118 609.981 118.191 612.03L118.94 612.53C119.505 612.907 119.844 613.54 119.844 614.219C119.844 614.897 119.505 615.531 118.94 615.908L118.19 616.409C115.118 618.457 112.782 621.514 111.615 625.017C111.338 625.847 110.562 626.406 109.688 626.406C108.813 626.406 108.037 625.847 107.76 625.017C106.593 621.514 104.257 618.457 101.184 616.408L100.435 615.908C99.8705 615.531 99.5312 614.897 99.5312 614.219C99.5312 613.54 99.8705 612.907 100.435 612.53Z" fill="#E6C731"/>
<path d="M17.1535 661.28L17.9034 660.779C20.976 658.731 23.3118 655.674 24.4791 652.171C24.7559 651.341 25.5315 650.781 26.4062 650.781C27.281 650.781 28.0566 651.341 28.3334 652.171C29.5007 655.674 31.8365 658.731 34.9101 660.78L35.659 661.28C36.2233 661.657 36.5625 662.29 36.5625 662.969C36.5625 663.647 36.2233 664.281 35.659 664.658L34.9091 665.159C31.8365 667.207 29.5007 670.264 28.3334 673.767C28.0566 674.597 27.281 675.156 26.4062 675.156C25.5315 675.156 24.7559 674.597 24.4791 673.767C23.3118 670.264 20.976 667.207 17.9024 665.158L17.1535 664.658C16.5892 664.281 16.25 663.647 16.25 662.969C16.25 662.29 16.5892 661.657 17.1535 661.28Z" fill="#CE5036"/>
<path d="M110.591 716.123L111.341 715.623C114.414 713.574 116.749 710.518 117.917 707.015C118.193 706.184 118.969 705.625 119.844 705.625C120.719 705.625 121.494 706.184 121.771 707.015C122.938 710.518 125.274 713.574 128.348 715.624L129.096 716.123C129.661 716.5 130 717.134 130 717.812C130 718.491 129.661 719.125 129.096 719.502L128.347 720.002C125.274 722.051 122.938 725.107 121.771 728.61C121.494 729.441 120.719 730 119.844 730C118.969 730 118.193 729.441 117.917 728.61C116.749 725.107 114.414 722.051 111.34 720.001L110.591 719.502C110.027 719.125 109.688 718.491 109.688 717.812C109.688 717.134 110.027 716.5 110.591 716.123Z" fill="#0B78B9"/>
<path d="M123.906 687.344C122.784 687.344 121.875 686.434 121.875 685.312C121.875 684.191 122.784 683.281 123.906 683.281C125.028 683.281 125.938 684.191 125.938 685.312C125.938 686.434 125.028 687.344 123.906 687.344Z" fill="#CE5036"/>
<path d="M89.375 709.688C88.2532 709.688 87.3438 708.778 87.3438 707.656C87.3438 706.534 88.2532 705.625 89.375 705.625C90.4968 705.625 91.4062 706.534 91.4062 707.656C91.4062 708.778 90.4968 709.688 89.375 709.688Z" fill="#0B78B9"/>
<path d="M75.1562 671.094C74.0344 671.094 73.125 670.184 73.125 669.062C73.125 667.941 74.0344 667.031 75.1562 667.031C76.2781 667.031 77.1875 667.941 77.1875 669.062C77.1875 670.184 76.2781 671.094 75.1562 671.094Z" fill="#E6C731"/>
<path d="M75.1562 616.25C74.0344 616.25 73.125 615.341 73.125 614.219C73.125 613.097 74.0344 612.188 75.1562 612.188C76.2781 612.188 77.1875 613.097 77.1875 614.219C77.1875 615.341 76.2781 616.25 75.1562 616.25Z" fill="#CE5036"/>
<path d="M40.625 640.625C39.5032 640.625 38.5938 639.716 38.5938 638.594C38.5938 637.472 39.5032 636.562 40.625 636.562C41.7468 636.562 42.6562 637.472 42.6562 638.594C42.6562 639.716 41.7468 640.625 40.625 640.625Z" fill="#E6C731"/>
<path d="M2.03131 703.594H2.3606C47.7344 703.594 91.563 690.127 129.109 664.65C130.038 664.02 130.28 662.756 129.65 661.828C129.02 660.9 127.755 660.659 126.828 661.288C89.9583 686.307 46.9182 699.531 2.3606 699.531H2.03131C0.909563 699.531 7.0095e-05 700.441 7.0095e-05 701.562C7.0095e-05 702.684 0.909563 703.594 2.03131 703.594Z" fill="#8D86A8"/>
</g>
<g opacity="0.6" clip-path="url(#clip2_5004_19404)">
<path d="M111.23 302.77L61.2297 252.77C60.8559 252.396 60.3203 252.239 59.8015 252.346C59.285 252.456 58.8578 252.819 58.6678 253.312L32.547 320.917C32.1839 321.858 32 322.846 32 323.853C32 328.345 35.6552 332 40.1474 332C41.1545 332 42.1425 331.816 43.0832 331.452L110.688 305.332C111.181 305.142 111.544 304.715 111.654 304.199C111.763 303.681 111.604 303.144 111.23 302.77Z" fill="#0B78B9"/>
<path d="M111.23 302.77L61.2297 252.77C60.8559 252.396 60.3203 252.239 59.8015 252.346C59.285 252.456 58.8578 252.819 58.6678 253.312L32.547 320.917C32.1839 321.858 32 322.846 32 323.853C32 328.345 35.6552 332 40.1474 332C41.1545 332 42.1425 331.816 43.0832 331.452L110.688 305.332C111.181 305.142 111.544 304.715 111.654 304.199C111.763 303.681 111.604 303.144 111.23 302.77Z" fill="#0B78B9"/>
<path d="M110.316 289.482C107.14 282.885 101.725 275.588 95.0683 268.932C88.4124 262.275 81.1149 256.86 74.5186 253.684C67.3759 250.242 61.8713 249.919 59.0202 252.77C56.1683 255.622 56.4926 261.126 59.9334 268.269C63.1096 274.865 68.5249 282.163 75.1815 288.819C81.8374 295.475 89.1349 300.891 95.7313 304.067C99.6536 305.956 103.081 306.906 105.848 306.906C108.119 306.906 109.944 306.265 111.23 304.98C114.082 302.129 113.757 296.624 110.316 289.482Z" fill="#00928F"/>
<path d="M78.8736 269.5C78.6394 269.5 78.4006 269.447 78.1762 269.335C77.4042 268.949 77.0913 268.011 77.4774 267.239L78.8476 264.498C82.8424 256.509 83.9754 247.307 82.0375 238.589C81.8498 237.746 82.3816 236.912 83.2239 236.725C84.0646 236.54 84.9008 237.069 85.0877 237.911C87.1805 247.327 85.9575 257.266 81.643 265.896L80.2728 268.636C79.9989 269.184 79.4473 269.5 78.8736 269.5Z" fill="#CE5036"/>
<path d="M67.9375 249.188C67.0746 249.188 66.375 248.488 66.375 247.625V244.37C65.8669 244.456 65.345 244.5 64.8125 244.5C62.2277 244.5 60.125 242.397 60.125 239.812C60.125 237.228 62.2277 235.125 64.8125 235.125C67.2196 235.125 69.2093 236.949 69.471 239.288C70.4605 238.181 71.0625 236.723 71.0625 235.125V233.562C71.0625 232.7 71.7621 232 72.625 232C73.4879 232 74.1875 232.7 74.1875 233.562V235.125C74.1875 238.588 72.3 241.618 69.5 243.242V247.625C69.5 248.488 68.8004 249.188 67.9375 249.188ZM64.8125 238.25C63.9511 238.25 63.25 238.951 63.25 239.812C63.25 240.674 63.9511 241.375 64.8125 241.375C65.3519 241.375 65.8753 241.306 66.375 241.177V239.812C66.375 238.951 65.6739 238.25 64.8125 238.25Z" fill="#CE5036"/>
<path d="M96.0641 286.688C95.4904 286.688 94.9388 286.372 94.6649 285.824C94.2788 285.052 94.5917 284.113 95.3637 283.727L98.1042 282.357C106.735 278.043 116.674 276.821 126.089 278.912C126.931 279.099 127.463 279.934 127.275 280.776C127.088 281.619 126.252 282.149 125.411 281.963C116.691 280.025 107.49 281.158 99.5019 285.153L96.7615 286.523C96.5371 286.635 96.2983 286.688 96.0641 286.688Z" fill="#CE5036"/>
<path d="M124.188 303.875C121.603 303.875 119.5 301.772 119.5 299.188C119.5 298.655 119.544 298.133 119.63 297.625H116.375C115.512 297.625 114.812 296.925 114.812 296.062C114.812 295.2 115.512 294.5 116.375 294.5H120.758C122.382 291.7 125.412 289.812 128.875 289.812H130.438C131.3 289.812 132 290.512 132 291.375C132 292.238 131.3 292.938 130.438 292.938H128.875C127.277 292.938 125.819 293.539 124.712 294.529C127.051 294.791 128.875 296.78 128.875 299.188C128.875 301.772 126.772 303.875 124.188 303.875ZM122.823 297.625C122.694 298.125 122.625 298.648 122.625 299.188C122.625 300.049 123.326 300.75 124.188 300.75C125.049 300.75 125.75 300.049 125.75 299.188C125.75 298.326 125.049 297.625 124.188 297.625H122.823Z" fill="#CE5036"/>
<path d="M88.25 277.312C87.8502 277.312 87.4504 277.16 87.1453 276.855C86.5349 276.244 86.5349 275.256 87.1453 274.645L109.802 251.989C110.412 251.379 111.401 251.379 112.011 251.989C112.621 252.599 112.621 253.588 112.011 254.198L89.3547 276.855C89.0496 277.16 88.6498 277.312 88.25 277.312Z" fill="#CE5036"/>
<path d="M78.5607 316.994C64.0763 310.688 52.7864 275.675 52.3126 274.188L51.5401 271.76L44.1411 290.91L44.5001 294.5C44.5787 295.285 46.3427 311.482 58.1549 325.629L79.5385 317.367C79.213 317.257 78.887 317.136 78.5607 316.994Z" fill="#E6C731"/>
<path d="M123.492 316.638L122.916 316.253C120.552 314.677 118.755 312.326 117.857 309.631C117.645 308.993 117.048 308.562 116.375 308.562C115.702 308.562 115.105 308.993 114.893 309.631C113.995 312.326 112.198 314.677 109.834 316.254L109.258 316.638C108.823 316.928 108.562 317.416 108.562 317.938C108.562 318.459 108.823 318.947 109.258 319.237L109.834 319.622C112.198 321.198 113.995 323.549 114.893 326.244C115.105 326.882 115.702 327.312 116.375 327.312C117.048 327.312 117.645 326.882 117.857 326.244C118.755 323.549 120.552 321.198 122.916 319.621L123.492 319.237C123.927 318.947 124.188 318.459 124.188 317.938C124.188 317.416 123.927 316.928 123.492 316.638Z" fill="#E6C731"/>
<path d="M50.055 255.701L49.4782 255.315C47.1146 253.74 45.3179 251.389 44.4199 248.694C44.207 248.055 43.6104 247.625 42.9375 247.625C42.2646 247.625 41.668 248.055 41.4551 248.694C40.5571 251.389 38.7604 253.74 36.3961 255.316L35.82 255.701C35.3859 255.991 35.125 256.478 35.125 257C35.125 257.522 35.3859 258.009 35.82 258.299L36.3968 258.685C38.7604 260.26 40.5571 262.611 41.4551 265.306C41.668 265.945 42.2646 266.375 42.9375 266.375C43.6104 266.375 44.207 265.945 44.4199 265.306C45.3179 262.611 47.1146 260.26 49.4789 258.684L50.055 258.299C50.4891 258.009 50.75 257.522 50.75 257C50.75 256.478 50.4891 255.991 50.055 255.701Z" fill="#E6C731"/>
<path d="M125.75 236.688H116.375C115.512 236.688 114.812 237.387 114.812 238.25V247.625C114.812 248.488 115.512 249.188 116.375 249.188H125.75C126.613 249.188 127.312 248.488 127.312 247.625V238.25C127.312 237.387 126.613 236.688 125.75 236.688Z" fill="#E6C731"/>
<path d="M94.4985 253.875C94.2246 253.875 93.9476 253.803 93.6959 253.652C92.9558 253.208 92.7163 252.248 93.1603 251.508L97.8478 243.696C98.2918 242.955 99.2508 242.715 99.9917 243.16C100.732 243.604 100.971 244.564 100.527 245.304L95.8397 253.116C95.5468 253.605 95.0295 253.875 94.4985 253.875Z" fill="#CE5036"/>
<path d="M111.689 271.063C111.158 271.063 110.641 270.793 110.348 270.304C109.904 269.564 110.143 268.604 110.883 268.16L118.696 263.473C119.435 263.03 120.396 263.268 120.84 264.008C121.284 264.749 121.044 265.708 120.304 266.152L112.492 270.84C112.24 270.991 111.963 271.063 111.689 271.063Z" fill="#CE5036"/>
</g>
<g opacity="0.6" clip-path="url(#clip3_5004_19404)">
<path d="M235.125 441.812C235.125 441.024 234.589 440.336 233.823 440.145C230.2 439.239 227.386 436.425 226.48 432.802C226.289 432.036 225.601 431.5 224.812 431.5C224.024 431.5 223.336 432.036 223.145 432.802C222.239 436.425 219.425 439.239 215.802 440.145C215.036 440.336 214.5 441.024 214.5 441.812C214.5 442.601 215.036 443.289 215.802 443.48C219.425 444.386 222.239 447.2 223.145 450.823C223.336 451.589 224.024 452.125 224.812 452.125C225.601 452.125 226.289 451.589 226.48 450.823C227.386 447.2 230.2 444.386 233.823 443.48C234.589 443.289 235.125 442.601 235.125 441.812Z" fill="#CE5036"/>
<path d="M218.707 495.276L218.17 495.006C214.591 493.217 211.981 489.964 211.011 486.083C210.82 485.318 210.133 484.781 209.344 484.781C208.555 484.781 207.868 485.318 207.676 486.083C206.706 489.964 204.097 493.217 200.517 495.007L199.98 495.276C199.399 495.567 199.031 496.162 199.031 496.812C199.031 497.463 199.399 498.058 199.98 498.349L200.518 498.619C204.097 500.408 206.706 503.661 207.676 507.542C207.868 508.307 208.555 508.844 209.344 508.844C210.133 508.844 210.82 508.307 211.011 507.542C211.981 503.661 214.591 500.408 218.171 498.618L218.707 498.349C219.289 498.058 219.656 497.463 219.656 496.812C219.656 496.162 219.289 495.567 218.707 495.276Z" fill="#0B78B9"/>
<path d="M268.731 426.162L269.268 426.431C272.847 428.22 275.455 431.472 276.427 435.355C276.618 436.119 277.305 436.656 278.094 436.656C278.883 436.656 279.569 436.119 279.76 435.355C280.732 431.472 283.341 428.22 286.919 426.431L287.456 426.162C288.039 425.871 288.406 425.276 288.406 424.625C288.406 423.974 288.039 423.379 287.456 423.088L286.919 422.819C283.341 421.03 280.732 417.778 279.76 413.895C279.569 413.131 278.883 412.594 278.094 412.594C277.305 412.594 276.618 413.131 276.427 413.895C275.455 417.778 272.847 421.03 269.268 422.819L268.731 423.088C268.149 423.379 267.781 423.974 267.781 424.625C267.781 425.276 268.149 425.871 268.731 426.162Z" fill="#0B78B9"/>
<path d="M278.638 486.588C275.92 485.683 273.757 483.519 272.849 480.8C272.615 480.098 271.959 479.625 271.219 479.625C270.479 479.625 269.822 480.098 269.589 480.8C268.681 483.519 266.517 485.683 263.8 486.588C263.098 486.822 262.625 487.479 262.625 488.219C262.625 488.959 263.098 489.615 263.8 489.849C266.517 490.755 268.681 492.918 269.589 495.638C269.822 496.339 270.479 496.812 271.219 496.812C271.959 496.812 272.615 496.339 272.849 495.638C273.757 492.918 275.92 490.755 278.638 489.849C279.339 489.615 279.812 488.959 279.812 488.219C279.812 487.479 279.339 486.822 278.638 486.588Z" fill="#CE5036"/>
<path d="M224.812 428.062C225.762 428.062 226.531 427.293 226.531 426.344V405.719C226.531 404.77 225.762 404 224.812 404C223.863 404 223.094 404.77 223.094 405.719V426.344C223.094 427.293 223.863 428.062 224.812 428.062Z" fill="#E6C731"/>
<path d="M212.66 432.09C212.995 432.426 213.435 432.593 213.875 432.593C214.315 432.593 214.754 432.426 215.09 432.09C215.761 431.418 215.761 430.331 215.09 429.659L205.402 419.971C204.731 419.3 203.643 419.3 202.972 419.971C202.3 420.643 202.3 421.73 202.972 422.402L212.66 432.09Z" fill="#E6C731"/>
<path d="M211.062 441.812C211.062 440.863 210.293 440.094 209.344 440.094H188.719C187.77 440.094 187 440.863 187 441.812C187 442.762 187.77 443.531 188.719 443.531H209.344C210.293 443.531 211.062 442.762 211.062 441.812Z" fill="#E6C731"/>
<path d="M224.812 455.562C223.863 455.562 223.094 456.332 223.094 457.281V477.906C223.094 478.855 223.863 479.625 224.812 479.625C225.762 479.625 226.531 478.855 226.531 477.906V457.281C226.531 456.332 225.762 455.562 224.812 455.562Z" fill="#E6C731"/>
<path d="M238.562 441.812C238.562 442.762 239.332 443.531 240.281 443.531H260.906C261.856 443.531 262.625 442.762 262.625 441.812C262.625 440.863 261.856 440.094 260.906 440.094H240.281C239.332 440.094 238.562 440.863 238.562 441.812Z" fill="#E6C731"/>
<path d="M202.972 461.223C202.3 461.894 202.3 462.982 202.972 463.653C203.307 463.989 203.747 464.157 204.187 464.157C204.627 464.157 205.066 463.989 205.402 463.653L215.09 453.965C215.761 453.294 215.761 452.206 215.09 451.535C214.419 450.863 213.331 450.863 212.66 451.535L202.972 461.223Z" fill="#E6C731"/>
<path d="M246.654 463.653C247.326 462.982 247.326 461.894 246.654 461.223L236.965 451.535C236.294 450.863 235.206 450.863 234.535 451.535C233.864 452.206 233.864 453.294 234.535 453.965L244.224 463.653C244.56 463.989 244.999 464.157 245.439 464.157C245.879 464.157 246.319 463.989 246.654 463.653Z" fill="#E6C731"/>
<path d="M235.75 432.593C236.19 432.593 236.63 432.426 236.965 432.09L246.654 422.402C247.326 421.73 247.326 420.643 246.654 419.971C245.983 419.3 244.895 419.3 244.224 419.971L234.535 429.659C233.864 430.331 233.864 431.418 234.535 432.09C234.871 432.426 235.31 432.593 235.75 432.593Z" fill="#E6C731"/>
<path d="M271.219 462.438C270.269 462.438 269.5 463.207 269.5 464.156V474.469C269.5 475.418 270.269 476.188 271.219 476.188C272.169 476.188 272.938 475.418 272.938 474.469V464.156C272.938 463.207 272.169 462.438 271.219 462.438Z" fill="#E6C731"/>
<path d="M252.989 469.989C252.318 470.66 252.318 471.748 252.989 472.419L260.28 479.711C260.616 480.047 261.056 480.215 261.495 480.215C261.935 480.215 262.375 480.047 262.711 479.711C263.382 479.04 263.382 477.952 262.711 477.281L255.419 469.989C254.748 469.318 253.66 469.318 252.989 469.989Z" fill="#E6C731"/>
<path d="M259.188 488.219C259.188 487.27 258.419 486.5 257.469 486.5H247.156C246.206 486.5 245.438 487.27 245.438 488.219C245.438 489.168 246.206 489.938 247.156 489.938H257.469C258.419 489.938 259.188 489.168 259.188 488.219Z" fill="#E6C731"/>
<path d="M260.28 496.726L252.989 504.018C252.318 504.69 252.318 505.777 252.989 506.449C253.325 506.784 253.764 506.952 254.204 506.952C254.644 506.952 255.084 506.784 255.419 506.449L262.711 499.157C263.382 498.485 263.382 497.398 262.711 496.726C262.039 496.055 260.952 496.055 260.28 496.726Z" fill="#E6C731"/>
<path d="M271.219 500.25C270.269 500.25 269.5 501.02 269.5 501.969V512.281C269.5 513.23 270.269 514 271.219 514C272.169 514 272.938 513.23 272.938 512.281V501.969C272.938 501.02 272.169 500.25 271.219 500.25Z" fill="#E6C731"/>
<path d="M282.157 496.726C281.486 496.055 280.398 496.055 279.727 496.726C279.056 497.398 279.056 498.485 279.727 499.157L287.018 506.449C287.354 506.784 287.794 506.952 288.233 506.952C288.673 506.952 289.113 506.784 289.449 506.449C290.12 505.777 290.12 504.69 289.449 504.018L282.157 496.726Z" fill="#E6C731"/>
<path d="M295.281 486.5H284.969C284.019 486.5 283.25 487.27 283.25 488.219C283.25 489.168 284.019 489.938 284.969 489.938H295.281C296.231 489.938 297 489.168 297 488.219C297 487.27 296.231 486.5 295.281 486.5Z" fill="#E6C731"/>
<path d="M287.018 469.989L279.727 477.281C279.056 477.952 279.056 479.04 279.727 479.711C280.063 480.047 280.502 480.215 280.942 480.215C281.382 480.215 281.822 480.047 282.157 479.711L289.449 472.419C290.12 471.748 290.12 470.66 289.449 469.989C288.777 469.318 287.69 469.318 287.018 469.989Z" fill="#E6C731"/>
<path d="M197.312 481.344C198.262 481.344 199.031 480.574 199.031 479.625C199.031 478.676 198.262 477.906 197.312 477.906C196.363 477.906 195.594 478.676 195.594 479.625C195.594 480.574 196.363 481.344 197.312 481.344Z" fill="#E6C731"/>
<path d="M226.531 505.406C227.48 505.406 228.25 504.637 228.25 503.688C228.25 502.738 227.48 501.969 226.531 501.969C225.582 501.969 224.812 502.738 224.812 503.688C224.812 504.637 225.582 505.406 226.531 505.406Z" fill="#E6C731"/>
<path d="M233.406 489.938C234.355 489.938 235.125 489.168 235.125 488.219C235.125 487.27 234.355 486.5 233.406 486.5C232.457 486.5 231.688 487.27 231.688 488.219C231.688 489.168 232.457 489.938 233.406 489.938Z" fill="#E6C731"/>
<path d="M266.062 407.438C267.012 407.438 267.781 406.668 267.781 405.719C267.781 404.77 267.012 404 266.062 404C265.113 404 264.344 404.77 264.344 405.719C264.344 406.668 265.113 407.438 266.062 407.438Z" fill="#E6C731"/>
<path d="M290.125 416.031C291.074 416.031 291.844 415.262 291.844 414.312C291.844 413.363 291.074 412.594 290.125 412.594C289.176 412.594 288.406 413.363 288.406 414.312C288.406 415.262 289.176 416.031 290.125 416.031Z" fill="#E6C731"/>
<path d="M286.688 445.25C287.637 445.25 288.406 444.48 288.406 443.531C288.406 442.582 287.637 441.812 286.688 441.812C285.738 441.812 284.969 442.582 284.969 443.531C284.969 444.48 285.738 445.25 286.688 445.25Z" fill="#E6C731"/>
</g>
<g opacity="0.6" clip-path="url(#clip4_5004_19404)">
<path d="M348.875 763.812C348.875 763.024 349.411 762.336 350.177 762.145C353.8 761.239 356.614 758.425 357.52 754.802C357.711 754.036 358.399 753.5 359.188 753.5C359.976 753.5 360.664 754.036 360.855 754.802C361.761 758.425 364.575 761.239 368.198 762.145C368.964 762.336 369.5 763.024 369.5 763.812C369.5 764.601 368.964 765.289 368.198 765.48C364.575 766.386 361.761 769.2 360.855 772.823C360.664 773.589 359.976 774.125 359.188 774.125C358.399 774.125 357.711 773.589 357.52 772.823C356.614 769.2 353.8 766.386 350.177 765.48C349.411 765.289 348.875 764.601 348.875 763.812Z" fill="#CE5036"/>
<path d="M365.293 817.276L365.83 817.006C369.409 815.217 372.019 811.964 372.989 808.083C373.18 807.318 373.867 806.781 374.656 806.781C375.445 806.781 376.132 807.318 376.324 808.083C377.294 811.964 379.903 815.217 383.483 817.007L384.02 817.276C384.601 817.567 384.969 818.162 384.969 818.812C384.969 819.463 384.601 820.058 384.02 820.349L383.482 820.619C379.903 822.408 377.294 825.661 376.324 829.542C376.132 830.307 375.445 830.844 374.656 830.844C373.867 830.844 373.18 830.307 372.989 829.542C372.019 825.661 369.409 822.408 365.829 820.618L365.293 820.349C364.711 820.058 364.344 819.463 364.344 818.812C364.344 818.162 364.711 817.567 365.293 817.276Z" fill="#0B78B9"/>
<path d="M315.269 748.162L314.732 748.431C311.153 750.22 308.545 753.472 307.573 757.355C307.382 758.119 306.695 758.656 305.906 758.656C305.117 758.656 304.431 758.119 304.24 757.355C303.268 753.472 300.659 750.22 297.081 748.431L296.544 748.162C295.961 747.871 295.594 747.276 295.594 746.625C295.594 745.974 295.961 745.379 296.544 745.088L297.081 744.819C300.659 743.03 303.268 739.778 304.24 735.895C304.431 735.131 305.117 734.594 305.906 734.594C306.695 734.594 307.382 735.131 307.573 735.895C308.545 739.778 311.153 743.03 314.732 744.819L315.269 745.088C315.851 745.379 316.219 745.974 316.219 746.625C316.219 747.276 315.851 747.871 315.269 748.162Z" fill="#0B78B9"/>
<path d="M305.362 808.588C308.08 807.683 310.243 805.519 311.151 802.8C311.385 802.098 312.041 801.625 312.781 801.625C313.521 801.625 314.178 802.098 314.411 802.8C315.319 805.519 317.483 807.683 320.2 808.588C320.902 808.822 321.375 809.479 321.375 810.219C321.375 810.959 320.902 811.615 320.2 811.849C317.483 812.755 315.319 814.918 314.411 817.638C314.178 818.339 313.521 818.812 312.781 818.812C312.041 818.812 311.385 818.339 311.151 817.638C310.243 814.918 308.08 812.755 305.362 811.849C304.661 811.615 304.188 810.959 304.188 810.219C304.188 809.479 304.661 808.822 305.362 808.588Z" fill="#CE5036"/>
<path d="M359.188 750.062C358.238 750.062 357.469 749.293 357.469 748.344V727.719C357.469 726.77 358.238 726 359.188 726C360.137 726 360.906 726.77 360.906 727.719V748.344C360.906 749.293 360.137 750.062 359.188 750.062Z" fill="#E6C731"/>
<path d="M371.34 754.09C371.005 754.426 370.565 754.593 370.125 754.593C369.685 754.593 369.246 754.426 368.91 754.09C368.239 753.418 368.239 752.331 368.91 751.659L378.598 741.971C379.269 741.3 380.357 741.3 381.028 741.971C381.7 742.643 381.7 743.73 381.028 744.402L371.34 754.09Z" fill="#E6C731"/>
<path d="M372.938 763.812C372.938 762.863 373.707 762.094 374.656 762.094H395.281C396.23 762.094 397 762.863 397 763.812C397 764.762 396.23 765.531 395.281 765.531H374.656C373.707 765.531 372.938 764.762 372.938 763.812Z" fill="#E6C731"/>
<path d="M359.188 777.562C360.137 777.562 360.906 778.332 360.906 779.281V799.906C360.906 800.855 360.137 801.625 359.188 801.625C358.238 801.625 357.469 800.855 357.469 799.906V779.281C357.469 778.332 358.238 777.562 359.188 777.562Z" fill="#E6C731"/>
<path d="M345.438 763.812C345.438 764.762 344.668 765.531 343.719 765.531H323.094C322.144 765.531 321.375 764.762 321.375 763.812C321.375 762.863 322.144 762.094 323.094 762.094H343.719C344.668 762.094 345.438 762.863 345.438 763.812Z" fill="#E6C731"/>
<path d="M381.028 783.223C381.7 783.894 381.7 784.982 381.028 785.653C380.693 785.989 380.253 786.157 379.813 786.157C379.373 786.157 378.934 785.989 378.598 785.653L368.91 775.965C368.239 775.294 368.239 774.206 368.91 773.535C369.581 772.863 370.669 772.863 371.34 773.535L381.028 783.223Z" fill="#E6C731"/>
<path d="M337.346 785.653C336.674 784.982 336.674 783.894 337.346 783.223L347.035 773.535C347.706 772.863 348.794 772.863 349.465 773.535C350.136 774.206 350.136 775.294 349.465 775.965L339.776 785.653C339.44 785.989 339.001 786.157 338.561 786.157C338.121 786.157 337.681 785.989 337.346 785.653Z" fill="#E6C731"/>
<path d="M348.25 754.593C347.81 754.593 347.37 754.426 347.035 754.09L337.346 744.402C336.674 743.73 336.674 742.643 337.346 741.971C338.017 741.3 339.105 741.3 339.776 741.971L349.465 751.659C350.136 752.331 350.136 753.418 349.465 754.09C349.129 754.426 348.69 754.593 348.25 754.593Z" fill="#E6C731"/>
<path d="M312.781 784.438C313.731 784.438 314.5 785.207 314.5 786.156V796.469C314.5 797.418 313.731 798.188 312.781 798.188C311.831 798.188 311.062 797.418 311.062 796.469V786.156C311.062 785.207 311.831 784.438 312.781 784.438Z" fill="#E6C731"/>
<path d="M331.011 791.989C331.682 792.66 331.682 793.748 331.011 794.419L323.72 801.711C323.384 802.047 322.944 802.215 322.505 802.215C322.065 802.215 321.625 802.047 321.289 801.711C320.618 801.04 320.618 799.952 321.289 799.281L328.581 791.989C329.252 791.318 330.34 791.318 331.011 791.989Z" fill="#E6C731"/>
<path d="M324.812 810.219C324.812 809.27 325.581 808.5 326.531 808.5H336.844C337.794 808.5 338.562 809.27 338.562 810.219C338.562 811.168 337.794 811.938 336.844 811.938H326.531C325.581 811.938 324.812 811.168 324.812 810.219Z" fill="#E6C731"/>
<path d="M323.72 818.726L331.011 826.018C331.682 826.69 331.682 827.777 331.011 828.449C330.675 828.784 330.236 828.952 329.796 828.952C329.356 828.952 328.916 828.784 328.581 828.449L321.289 821.157C320.618 820.485 320.618 819.398 321.289 818.726C321.961 818.055 323.048 818.055 323.72 818.726Z" fill="#E6C731"/>
<path d="M312.781 822.25C313.731 822.25 314.5 823.02 314.5 823.969V834.281C314.5 835.23 313.731 836 312.781 836C311.831 836 311.062 835.23 311.062 834.281V823.969C311.062 823.02 311.831 822.25 312.781 822.25Z" fill="#E6C731"/>
<path d="M301.843 818.726C302.514 818.055 303.602 818.055 304.273 818.726C304.944 819.398 304.944 820.485 304.273 821.157L296.982 828.449C296.646 828.784 296.206 828.952 295.767 828.952C295.327 828.952 294.887 828.784 294.551 828.449C293.88 827.777 293.88 826.69 294.551 826.018L301.843 818.726Z" fill="#E6C731"/>
<path d="M288.719 808.5H299.031C299.981 808.5 300.75 809.27 300.75 810.219C300.75 811.168 299.981 811.938 299.031 811.938H288.719C287.769 811.938 287 811.168 287 810.219C287 809.27 287.769 808.5 288.719 808.5Z" fill="#E6C731"/>
<path d="M296.982 791.989L304.273 799.281C304.944 799.952 304.944 801.04 304.273 801.711C303.937 802.047 303.498 802.215 303.058 802.215C302.618 802.215 302.178 802.047 301.843 801.711L294.551 794.419C293.88 793.748 293.88 792.66 294.551 791.989C295.223 791.318 296.31 791.318 296.982 791.989Z" fill="#E6C731"/>
<path d="M386.688 803.344C385.738 803.344 384.969 802.574 384.969 801.625C384.969 800.676 385.738 799.906 386.688 799.906C387.637 799.906 388.406 800.676 388.406 801.625C388.406 802.574 387.637 803.344 386.688 803.344Z" fill="#E6C731"/>
<path d="M357.469 827.406C356.52 827.406 355.75 826.637 355.75 825.688C355.75 824.738 356.52 823.969 357.469 823.969C358.418 823.969 359.188 824.738 359.188 825.688C359.188 826.637 358.418 827.406 357.469 827.406Z" fill="#E6C731"/>
<path d="M350.594 811.938C349.645 811.938 348.875 811.168 348.875 810.219C348.875 809.27 349.645 808.5 350.594 808.5C351.543 808.5 352.312 809.27 352.312 810.219C352.312 811.168 351.543 811.938 350.594 811.938Z" fill="#E6C731"/>
<path d="M317.938 729.438C316.988 729.438 316.219 728.668 316.219 727.719C316.219 726.77 316.988 726 317.938 726C318.887 726 319.656 726.77 319.656 727.719C319.656 728.668 318.887 729.438 317.938 729.438Z" fill="#E6C731"/>
<path d="M293.875 738.031C292.926 738.031 292.156 737.262 292.156 736.312C292.156 735.363 292.926 734.594 293.875 734.594C294.824 734.594 295.594 735.363 295.594 736.312C295.594 737.262 294.824 738.031 293.875 738.031Z" fill="#E6C731"/>
<path d="M297.312 767.25C296.363 767.25 295.594 766.48 295.594 765.531C295.594 764.582 296.363 763.812 297.312 763.812C298.262 763.812 299.031 764.582 299.031 765.531C299.031 766.48 298.262 767.25 297.312 767.25Z" fill="#E6C731"/>
</g>
<g opacity="0.6">
<path d="M212.501 1085.54H199.598V1099.05H212.354V1112.42H199.629V1099.05H181.47V1159.82H225.551V1098.82H212.501V1085.54Z" fill="#CE5036"/>
<path d="M314.524 972.055C326.903 972.055 334.993 978.382 340.284 987.579L347.635 983.915C340.069 970.511 329.008 963.625 314.647 963.625C300.287 963.625 290.114 970.093 282.637 982.695L289.956 986.308C295.16 977.801 302.922 972.055 314.524 972.055Z" fill="#F99600"/>
<path d="M285.227 1099.6H276.601C278.547 1105.56 280.919 1110.75 283.715 1115.13C291.094 1126.71 301.428 1132.62 314.426 1132.68V1124.25C298.669 1124.21 289.998 1113.54 285.227 1099.6Z" fill="#E6C731"/>
<path d="M294.826 1134.21C288.416 1130.79 282.901 1125.5 278.439 1118.49C275.071 1113.21 272.272 1106.9 270.054 1099.6H259.643C262.658 1109.9 266.745 1118.55 271.9 1125.48C282.066 1139.15 296.373 1146.09 314.429 1146.13V1138.93C307.244 1138.9 300.649 1137.32 294.826 1134.21Z" fill="#E6C731"/>
<path d="M278.435 977.606C282.903 970.685 288.418 965.457 294.822 962.064C300.712 958.942 307.374 957.361 314.626 957.361C321.879 957.361 328.698 958.942 334.634 962.058C341.09 965.447 346.642 970.676 351.139 977.6C351.867 978.722 352.566 979.894 353.239 981.106L361.827 976.828C360.534 974.629 359.157 972.559 357.693 970.627C347.405 957.051 332.89 950.164 314.561 950.164C294.218 950.164 278.751 958.835 268.45 975.69L277.022 979.922C277.484 979.131 277.952 978.356 278.435 977.606Z" fill="#CE5036"/>
<path d="M266.897 966.859C272.835 958.979 280.137 953.037 288.599 949.195C296.322 945.689 305.066 943.911 314.583 943.911C324.099 943.911 333.058 945.689 340.847 949.192C349.375 953.027 356.726 958.97 362.703 966.853C364.394 969.086 365.979 971.488 367.455 974.038L377.018 969.276C362.33 945.144 339.57 936 314.524 936C289.478 936 267.912 944.867 253.271 968.191L262.834 972.912C264.113 970.783 265.463 968.76 266.897 966.859Z" fill="#CE5036"/>
<path d="M288.584 1147.07C280.116 1143.2 272.811 1137.2 266.878 1129.22C260.997 1121.31 256.421 1111.41 253.151 1099.6H241.565C253.53 1144.65 282.201 1160.27 314.429 1160.3V1152.39C304.949 1152.37 296.255 1150.58 288.584 1147.07Z" fill="#E6C731"/>
<path d="M271.886 1125.48C266.731 1118.55 262.644 1109.9 259.63 1099.6H253.14C256.406 1111.41 260.986 1121.31 266.867 1129.22C272.8 1137.19 280.102 1143.2 288.572 1147.07C296.243 1150.58 304.938 1152.37 314.418 1152.39V1146.13C296.364 1146.09 282.047 1139.15 271.886 1125.48Z" fill="#CE5036"/>
<path d="M283.712 1115.13C280.916 1110.74 278.544 1105.56 276.597 1099.6H270.049C272.267 1106.9 275.063 1113.21 278.433 1118.49C282.897 1125.5 288.411 1130.79 294.82 1134.21C300.643 1137.31 307.238 1138.91 314.423 1138.94V1132.68C301.425 1132.61 291.09 1126.71 283.712 1115.13Z" fill="#00706E"/>
<path d="M381.627 1069.81L375.697 1065.43L365.743 1058.06L359.616 1053.53L350.257 1046.61C350.257 1046.82 350.257 1047.02 350.257 1047.23C350.257 1055.3 350.257 1066.5 348.949 1077.86H392.222C392.232 1077.8 392.238 1077.74 392.246 1077.68L381.627 1069.81Z" fill="#E6C731"/>
<path d="M282.633 982.693L277.038 979.931L268.466 975.699L262.83 972.916L253.269 968.194C242.913 984.696 236.392 1008.44 235.706 1041.39H279.412C279.541 1025.59 280.636 1001.53 289.946 986.307L282.633 982.693Z" fill="#F99600"/>
<path d="M393.927 1040.87H350.227C350.245 1042.93 350.249 1044.86 350.249 1046.62L359.607 1053.54L365.734 1058.07L375.687 1065.44L381.617 1069.82L392.241 1077.68C393.392 1068.47 394 1058.35 394 1047.23C394 1045.07 393.973 1042.96 393.927 1040.87Z" fill="#00928F"/>
<path d="M380.747 1077.86H348.941C346.311 1100.73 338.388 1124.26 314.504 1124.26C314.474 1124.26 314.446 1124.26 314.415 1124.26V1160.31C314.446 1160.31 314.474 1160.31 314.504 1160.31C352.029 1160.31 384.419 1139.79 392.214 1077.86L380.747 1077.86Z" fill="#CE5036"/>
<path d="M279.395 1050.7L270.265 1060.33L264.376 1066.54L255.003 1076.42L249.495 1082.23L239.846 1092.41C240.372 1094.89 240.944 1097.29 241.562 1099.61H285.229C279.874 1083.96 279.429 1064.19 279.395 1050.7Z" fill="#00706E"/>
<path d="M279.405 1041.38H235.698C235.698 1041.5 235.692 1041.6 235.69 1041.72C235.656 1043.53 235.635 1045.36 235.635 1047.22C235.635 1064.59 237.119 1079.56 239.842 1092.39L249.49 1082.22L254.999 1076.41L264.371 1066.52L270.261 1060.31L279.39 1050.68C279.386 1049.47 279.386 1048.32 279.386 1047.22C279.386 1045.54 279.386 1043.69 279.402 1041.71C279.402 1041.6 279.405 1041.49 279.405 1041.38Z" fill="#007DC7"/>
<path d="M355.681 991.18H355.648L353.686 1000.35H349.521L348.33 1005.94H352.496L348.626 1024.27C347.257 1030.76 348.032 1032.72 354.457 1032.72C356.362 1032.72 358.028 1032.54 359.874 1032.36L361.064 1026.65C360.529 1026.71 359.874 1026.77 359.219 1026.77C356.838 1026.77 356.54 1025.76 357.075 1023.26L360.705 1005.94H365.465L366.655 1000.35H361.895L362.722 996.482L362.916 995.584L363.857 991.186H363.811L364.838 986.154L355.795 990.62L355.681 991.18Z" fill="#E6C731"/>
<path d="M387.015 999.505C383.564 999.505 380.469 1000.87 378.387 1003.61H378.267L379.78 996.468H379.802L380.341 993.832L381.183 989.865H381.15L383.818 976.774L374.776 981.24L373.016 989.868H372.971L363.925 1032.36H372.138L376.659 1011.11C377.434 1007.54 379.338 1005.82 382.133 1005.82C384.572 1005.82 385.347 1007.06 384.692 1010.28L379.993 1032.36H388.205L393.264 1008.61C394.575 1002.3 392.132 999.505 387.015 999.505Z" fill="#E6C731"/>
<path d="M203.468 1037.93C191.334 1037.93 181.499 1047.77 181.499 1059.9C181.499 1066.4 184.322 1072.24 188.81 1076.26L181.351 1081.87H203.059C203.194 1081.87 203.33 1081.87 203.468 1081.87C215.602 1081.87 225.439 1072.03 225.439 1059.9C225.439 1047.77 215.602 1037.93 203.468 1037.93Z" fill="#F99600"/>
<path d="M154 962.55V995.765H181.469V1040.13L225.551 1021.75V987.322L183.231 954.005C176.798 959.914 166.487 962.55 154 962.55Z" fill="#0B78B9"/>
<path d="M190.464 936C190.464 943.843 187.841 949.767 183.224 954.005L225.54 987.325V936H190.464Z" fill="#00928F"/>
</g>
<defs>
<clipPath id="clip0_5004_19404">
<rect width="130" height="130" fill="white" transform="translate(282 82)"/>
</clipPath>
<clipPath id="clip1_5004_19404">
<rect width="130" height="130" fill="white" transform="matrix(-1 0 0 1 130 600)"/>
</clipPath>
<clipPath id="clip2_5004_19404">
<rect width="100" height="100" fill="white" transform="translate(32 232)"/>
</clipPath>
<clipPath id="clip3_5004_19404">
<rect width="110" height="110" fill="white" transform="translate(187 404)"/>
</clipPath>
<clipPath id="clip4_5004_19404">
<rect width="110" height="110" fill="white" transform="matrix(-1 0 0 1 397 726)"/>
</clipPath>
</defs>
</svg>
