<svg width="40" height="40" viewBox="0 0 40 40" fill="none" xmlns="http://www.w3.org/2000/svg">
<g id="icon-family">
<circle id="Ellipse 213" cx="19.6666" cy="20" r="19" fill="#DCF5F0"/>
<path id="Vector" d="M19.6615 18.4043L18.2356 18.7476C18.2356 18.7476 17.3378 18.6421 16.8889 18.9854C16.44 19.3287 15.3311 20.4376 15.3311 20.4376C15.3311 20.4376 14.6448 21.7576 14.6448 22.7347C14.6448 23.7117 15.2256 26.7743 15.5689 27.3817C15.9122 27.9891 17.2852 28.7547 17.2852 28.7547L16.8893 29.6258C16.8893 29.6258 15.1467 29.9161 14.513 30.5236C13.8793 31.131 12.5063 31.8436 12.3478 32.7943C12.1893 33.745 12.1893 36.6228 12.1893 36.6228H25.6811C25.6811 36.6228 25.7341 32.1606 24.2289 30.9991C22.7237 29.8376 20.9285 29.5469 20.9285 29.5469L20.7174 28.5699C20.7174 28.5699 22.0111 27.5402 22.5656 26.6954C23.12 25.8506 23.2785 23.8176 23.1463 22.6558C23.0141 21.4939 22.5919 20.5965 22.5919 20.5965C22.5919 20.5965 21.5359 20.1476 21.2452 19.6195C20.9545 19.0913 19.6611 18.405 19.6611 18.405L19.6615 18.4043Z" fill="#FFE6B3"/>
<path id="Vector_2" d="M19.2259 18.7881C19.2259 18.7881 20.1366 19.501 20.2159 20.2532C20.2952 21.0055 21.7207 22.5107 21.7207 22.5107C21.7207 22.5107 21.5622 24.7681 21.5622 26.0751C21.5622 27.3821 19.1066 28.8869 19.1066 28.8869L18.79 30.3129C18.79 30.3129 21.6811 30.4714 22.077 31.5803C22.4729 32.6892 22.3544 36.491 22.3544 36.491H25.8V33.4018C25.8 33.4018 24.7307 30.5107 23.3048 30.0751C21.8789 29.6395 21.1663 29.5999 21.1663 29.5999L21.0607 28.5703C21.0607 28.5703 22.3544 27.5407 22.9485 26.2336C23.5426 24.9266 23.1466 21.3625 23.0674 20.9662C22.9881 20.5699 21.6415 19.4614 21.2852 18.9466C20.9289 18.4318 19.2259 18.7881 19.2259 18.7881Z" fill="#FFF6E6"/>
<path id="Vector_3" d="M12.2952 10.9844L9.64187 10.707L6.39409 12.4893L4.2952 16.0141L4.17631 20.41L4.84965 23.3407L8.09705 23.42L7.93891 24.41L4.37446 25.6774L2.55261 28.41L2.27557 32.41L12.3348 32.6081L14.2359 30.1922L16.0971 29.717L17.0082 29.5189L17.0874 28.5685L15.0674 26.5485L14.5526 24.5685L12.6119 24.5289L12.0971 23.3407L14.9485 20.7667L16.2556 18.4696L15.3845 13.717L13.6022 12.5289L13.1271 12.6478L12.2952 10.9844Z" fill="#DEF6FF"/>
<path id="Vector_4" d="M11.3448 10.9066C11.3448 10.9066 12.4007 12.4381 12.5066 13.6525C12.6126 14.867 13.2989 15.3951 13.2989 15.3951V20.0422C13.2989 20.7814 11.0811 23.3688 11.0811 23.3688V25.217C11.0811 25.217 12.0315 25.7977 12.6652 26.4314C13.2989 27.0651 12.6652 32.3985 12.6652 32.3985L15.0415 30.2863L16.8896 29.9166L17.5233 28.3851L15.5696 27.3818L14.9359 24.6622L13.3781 24.3718L12.2429 24.24L12.3222 23.0255L14.4874 20.4907L15.9133 19.6459L15.9663 14.9462L14.5933 13.0451L13.2733 12.6225L12.4548 10.9855L11.3459 10.9062L11.3448 10.9066Z" fill="#F3FCFF"/>
<path id="Vector_5" d="M27.4767 9.40147L26.2359 10.6952L24.203 11.0122L23.2785 12.3322L23.0411 14.9196L23.2785 19.2233L25.4174 21.3092L26.0511 22.0485L26.2359 23.3685L24.3348 23.7381L23.3052 24.2663L22.4337 27.4611L21.0608 28.57L21.0874 29.4678L23.5956 30.2863L24.7045 31.2367L25.3119 32.2663L36.8234 32.5041L37.5626 32.1344L36.7704 26.2992L33.1271 23.4215L31.3845 23.527L30.83 22.207L32.8363 20.5963L33.8926 18.2992L34.13 14.6559L33.47 10.9067L31.0937 9.53369L28.0048 9.16406L27.4767 9.40147Z" fill="#DEF6FF"/>
<path id="Vector_6" d="M29.9189 22.6285L27.6481 24.1729C27.6481 24.1729 31.1333 24.9255 32.3611 26.7866C33.5889 28.6477 33.3115 32.4896 33.3115 32.4896H37.7207C37.7207 32.4896 37.8 27.9351 36.9285 26.3114C36.057 24.6877 33.6811 23.4203 33.1267 23.4203C32.5722 23.4203 31.2255 23.3014 31.2255 23.3014L31.067 22.1133L29.9185 22.6281L29.9189 22.6285Z" fill="#F3FCFF"/>
<path id="Vector_7" d="M28.4537 9.21521C28.4537 9.21521 30.9886 10.5352 31.7278 11.6971C32.4671 12.8589 32.4671 16.6078 32.4671 17.5056C32.4671 20.0404 29.193 22.3108 29.193 22.3108L31.9389 21.5185L34.1041 18.7726L34.4556 14.0919L32.9952 10.5878L30.1967 9.26781L28.4541 9.21484L28.4537 9.21521Z" fill="#F3FCFF"/>
<path id="Vector_8" d="M28.6589 23.0073C25.2967 23.0073 22.5615 20.2721 22.5615 16.9099V13.2351C22.5615 12.2758 22.9952 11.3869 23.7511 10.7966C24.3937 10.2951 25.1885 10.0714 25.9837 10.1581C26.12 9.91139 26.3467 9.59806 26.7122 9.31769C27.3337 8.84102 28.4982 8.37214 30.5156 8.8451C30.517 8.8451 30.5185 8.84584 30.52 8.84621C31.3211 9.04176 32.47 9.47843 33.3959 10.4477C34.2985 11.3925 34.7563 12.594 34.7563 14.0184V16.9099C34.7563 20.2721 32.0211 23.0073 28.6589 23.0073ZM25.6504 11.1403C25.1896 11.1403 24.74 11.2929 24.3667 11.5847C23.8548 11.9844 23.5615 12.5858 23.5615 13.2351V16.9099C23.5615 19.7207 25.8482 22.0073 28.6589 22.0073C31.4696 22.0073 33.7563 19.7207 33.7563 16.9099V14.0184C33.7563 10.9103 31.1026 10.0184 30.2852 9.81843C27.3419 9.12954 26.8004 10.7395 26.7674 10.8481C26.7363 10.9773 26.6567 11.0825 26.543 11.1518C26.4289 11.2214 26.2926 11.2362 26.163 11.2036C25.993 11.161 25.8208 11.1403 25.6504 11.1403Z" fill="#003B5E"/>
<path id="Vector_9" d="M23.79 14.881C23.333 14.881 23.0096 14.821 22.9893 14.817C22.7182 14.7651 22.54 14.5033 22.5919 14.2321C22.6433 13.961 22.9048 13.7833 23.1756 13.8344C23.1915 13.8373 23.8096 13.947 24.4793 13.8192C25.3056 13.6614 25.8163 13.2373 26.0407 12.5221C26.0937 12.3529 26.2326 12.2244 26.4056 12.1847C26.5782 12.1447 26.7593 12.1995 26.8811 12.3284C26.883 12.3303 27.2507 12.707 27.9774 13.0777C28.6467 13.4192 29.7678 13.8258 31.3096 13.8258C32.5756 13.8258 33.8841 13.6618 33.897 13.6603C34.1704 13.6255 34.4211 13.8195 34.4559 14.0933C34.4907 14.3673 34.297 14.6173 34.023 14.6521C33.967 14.6592 32.6404 14.8258 31.3096 14.8258C28.9785 14.8258 27.4552 14.0114 26.7041 13.4744C26.2793 14.1795 25.5752 14.6358 24.6337 14.8077C24.3311 14.8629 24.0404 14.881 23.79 14.881Z" fill="#003B5E"/>
<path id="Vector_10" d="M27.8026 20.5332L27.3385 20.4436C27.1004 20.3976 26.9281 20.1887 26.9281 19.9462C26.9281 19.6273 27.2196 19.3876 27.5326 19.4491L27.7715 19.4962C28.4078 19.6213 29.0622 19.621 29.6985 19.495L29.9263 19.4499C30.2396 19.388 30.5311 19.6276 30.5311 19.9469V19.9495C30.5311 20.1906 30.3611 20.3984 30.1244 20.4462L29.7304 20.5254C29.0944 20.6536 28.4396 20.6562 27.8026 20.5332Z" fill="#003B5E"/>
<path id="Vector_11" d="M32.1896 16.4166C32.1896 16.4166 31.8696 15.6718 31.1904 15.6718C31.1881 15.6718 31.1859 15.6718 31.1837 15.6714C31.1644 15.6707 31.1452 15.6703 31.1252 15.6699C31.1237 15.6699 31.1222 15.6699 31.1204 15.6699C31.1204 15.6699 31.1174 15.6699 31.1156 15.6699C31.0959 15.6699 31.0763 15.6703 31.057 15.6714C31.0548 15.6714 31.0526 15.6718 31.0504 15.6718C30.3593 15.6718 30.0511 16.4166 30.0511 16.4166C30.0489 16.4236 30.047 16.4307 30.0452 16.4373C29.9748 16.7044 30.1344 16.9777 30.4015 17.0481C30.4441 17.0592 30.487 17.0647 30.5293 17.0647C30.7437 17.0647 30.9404 16.9255 31.0063 16.7129C31.0118 16.7003 31.0248 16.6803 31.0748 16.6729C31.0881 16.671 31.1026 16.6696 31.1204 16.6696C31.1381 16.6696 31.153 16.671 31.1663 16.6729C31.2163 16.6807 31.2293 16.7003 31.2348 16.7129C31.3007 16.9255 31.4974 17.0647 31.7118 17.0647C31.7541 17.0647 31.797 17.0596 31.8396 17.0481C32.1067 16.9777 32.2659 16.7044 32.1959 16.4373C32.1941 16.4307 32.1922 16.4236 32.19 16.4166H32.1896Z" fill="#003B5E"/>
<path id="Vector_12" d="M27.2611 16.4166C27.2611 16.4166 26.9411 15.6718 26.2618 15.6718C26.2596 15.6718 26.2574 15.6718 26.2552 15.6714C26.2359 15.6707 26.2167 15.6703 26.1967 15.6699C26.1952 15.6699 26.1937 15.6699 26.1918 15.6699C26.1918 15.6699 26.1889 15.6699 26.187 15.6699C26.1674 15.6699 26.1478 15.6703 26.1285 15.6714C26.1263 15.6714 26.1241 15.6718 26.1218 15.6718C25.4307 15.6718 25.1226 16.4166 25.1226 16.4166C25.1204 16.4236 25.1185 16.4307 25.1167 16.4373C25.0463 16.7044 25.2059 16.9777 25.4729 17.0481C25.5155 17.0592 25.5585 17.0647 25.6007 17.0647C25.8152 17.0647 26.0118 16.9255 26.0778 16.7129C26.0833 16.7003 26.0963 16.6803 26.1463 16.6729C26.1596 16.671 26.1741 16.6696 26.1918 16.6696C26.2096 16.6696 26.2244 16.671 26.2378 16.6729C26.2878 16.6807 26.3007 16.7003 26.3063 16.7129C26.3722 16.9255 26.5689 17.0647 26.7833 17.0647C26.8255 17.0647 26.8685 17.0596 26.9111 17.0481C27.1781 16.9777 27.3374 16.7044 27.2674 16.4373C27.2655 16.4307 27.2637 16.4236 27.2615 16.4166H27.2611Z" fill="#003B5E"/>
<path id="Vector_13" d="M9.30629 21.5678L8.89888 21.4889C8.68962 21.4485 8.53851 21.2652 8.53851 21.0522C8.53851 20.7722 8.79407 20.5619 9.06888 20.6159L9.27851 20.657C9.83703 20.767 10.4115 20.7667 10.97 20.6559L11.17 20.6163C11.4448 20.5619 11.7011 20.7722 11.7011 21.0526V21.0548C11.7011 21.2667 11.5518 21.4489 11.3444 21.4908L10.9985 21.5604C10.4404 21.673 9.86555 21.6752 9.30629 21.567V21.5678Z" fill="#003B5E"/>
<path id="Vector_14" d="M13.3778 17.565C13.3778 17.565 13.0578 16.8202 12.3785 16.8202C12.3763 16.8202 12.3741 16.8202 12.3719 16.8198C12.3526 16.8191 12.3334 16.8187 12.3134 16.8184C12.3119 16.8184 12.3104 16.8184 12.3085 16.8184C12.3085 16.8184 12.3056 16.8184 12.3037 16.8184C12.2841 16.8184 12.2645 16.8187 12.2452 16.8198C12.243 16.8198 12.2408 16.8202 12.2385 16.8202C11.5474 16.8202 11.2393 17.565 11.2393 17.565C11.2371 17.5721 11.2352 17.5791 11.2334 17.5858C11.163 17.8528 11.3226 18.1261 11.5896 18.1965C11.6322 18.2076 11.6752 18.2132 11.7174 18.2132C11.9319 18.2132 12.1285 18.0739 12.1945 17.8613C12.2 17.8487 12.213 17.8287 12.263 17.8213C12.2763 17.8195 12.2908 17.818 12.3085 17.818C12.3263 17.818 12.3411 17.8195 12.3545 17.8213C12.4045 17.8291 12.4174 17.8487 12.423 17.8613C12.4889 18.0739 12.6856 18.2132 12.9 18.2132C12.9422 18.2132 12.9852 18.208 13.0278 18.1965C13.2948 18.1261 13.4541 17.8528 13.3841 17.5858C13.3822 17.5791 13.3804 17.5721 13.3782 17.565H13.3778Z" fill="#003B5E"/>
<path id="Vector_15" d="M9.17073 17.565C9.17073 17.565 8.85073 16.8202 8.17148 16.8202C8.16925 16.8202 8.16703 16.8202 8.16481 16.8198C8.14555 16.8191 8.12629 16.8187 8.10629 16.8184C8.10481 16.8184 8.10333 16.8184 8.10148 16.8184C8.10148 16.8184 8.09851 16.8184 8.09666 16.8184C8.07703 16.8184 8.0574 16.8187 8.03814 16.8198C8.03592 16.8198 8.0337 16.8202 8.03148 16.8202C7.34036 16.8202 7.03222 17.565 7.03222 17.565C7.02999 17.5721 7.02814 17.5791 7.02629 17.5858C6.95592 17.8528 7.11555 18.1261 7.38259 18.1965C7.42518 18.2076 7.46814 18.2132 7.51036 18.2132C7.72481 18.2132 7.92148 18.0739 7.9874 17.8613C7.99296 17.8487 8.00592 17.8287 8.05592 17.8213C8.06925 17.8195 8.0837 17.818 8.10148 17.818C8.11925 17.818 8.13407 17.8195 8.1474 17.8213C8.1974 17.8291 8.21036 17.8487 8.21592 17.8613C8.28185 18.0739 8.47851 18.2132 8.69296 18.2132C8.73518 18.2132 8.77814 18.208 8.82073 18.1965C9.08777 18.1261 9.24703 17.8528 9.17703 17.5858C9.17518 17.5791 9.17333 17.5721 9.1711 17.565H9.17073Z" fill="#003B5E"/>
<path id="Vector_16" d="M28.6585 24.9111C27.6752 24.9111 26.6926 24.6555 25.8192 24.1452C25.6378 24.0389 25.5418 23.8307 25.5796 23.6237L25.877 21.9944C25.9267 21.7229 26.187 21.5426 26.4585 21.5922C26.73 21.6418 26.9104 21.9022 26.8607 22.1737L26.6289 23.4448C27.9052 24.0666 29.4111 24.0674 30.6889 23.4444L30.457 22.1741C30.4074 21.9026 30.5874 21.6418 30.8592 21.5926C31.1307 21.5433 31.3915 21.7229 31.4407 21.9948L31.7381 23.6241C31.7763 23.8337 31.6778 24.0441 31.4926 24.1489L31.4285 24.1852C30.5722 24.6696 29.6152 24.9111 28.6589 24.9115L28.6585 24.9111Z" fill="#003B5E"/>
<path id="Vector_17" d="M37.9811 32.9657H37.53C33.5967 32.9657 29.5297 32.9657 25.5374 32.9613C25.2611 32.9613 25.0378 32.7368 25.0378 32.4609C25.0378 32.185 25.2619 31.9613 25.5378 31.9613H25.5382C29.3741 31.9654 33.2793 31.9657 37.0682 31.9657C37.1086 31.2665 37.0808 30.5746 37.0511 29.8494C37.0437 29.6665 37.0363 29.4828 37.03 29.298V29.2809C37.03 29.1994 37.0348 29.128 37.0397 29.065C37.0467 28.9668 37.05 28.9135 37.0397 28.8605L37.0374 28.8483C36.8815 27.9509 36.6571 27.3046 36.2874 26.6883C35.153 24.8331 33.2667 23.8276 31.2415 23.9994C30.9663 24.022 30.7245 23.8187 30.7011 23.5435C30.6778 23.2683 30.8819 23.0265 31.1571 23.0031C33.5686 22.7991 35.8056 23.9824 37.1419 26.1691L37.1441 26.1724C37.5748 26.8902 37.8456 27.6613 38.0219 28.6717C38.0582 28.8576 38.0467 29.0131 38.0374 29.1383C38.0341 29.1861 38.0308 29.2309 38.0304 29.2735C38.0367 29.4531 38.0437 29.6317 38.0511 29.8094C38.0867 30.6857 38.1237 31.5917 38.0278 32.5179L37.9815 32.9665L37.9811 32.9657Z" fill="#003B5E"/>
<path id="Vector_18" d="M23.4044 24.5146C23.2144 24.5146 23.033 24.4057 22.9493 24.2216C22.8348 23.9701 22.9459 23.6738 23.197 23.5594C23.9367 23.2227 24.7941 23.0449 25.68 23.0449C25.6974 23.0449 25.7148 23.0449 25.7322 23.0449C26.0085 23.0471 26.2304 23.2727 26.2282 23.549C26.2259 23.8238 26.0026 24.0449 25.7282 24.0449H25.7241C25.7093 24.0449 25.6945 24.0449 25.6793 24.0449C24.9356 24.0449 24.2215 24.1912 23.6111 24.4694C23.5441 24.5001 23.4733 24.5146 23.4041 24.5146H23.4044Z" fill="#003B5E"/>
<path id="Vector_19" d="M34.3356 32.8029C34.0593 32.8029 33.8356 32.5792 33.8356 32.3029V27.9199C33.8356 27.6436 34.0593 27.4199 34.3356 27.4199C34.6119 27.4199 34.8356 27.6436 34.8356 27.9199V32.3029C34.8356 32.5792 34.6119 32.8029 34.3356 32.8029Z" fill="#003B5E"/>
<path id="Vector_20" d="M10.1674 24.0647C7.3789 24.0647 5.11038 21.7961 5.11038 19.0076V16.0158C5.11038 15.7395 5.33409 15.5158 5.61038 15.5158C5.88668 15.5158 6.11038 15.7395 6.11038 16.0158V19.0076C6.11038 21.2447 7.93038 23.0647 10.1674 23.0647C12.4045 23.0647 14.2245 21.2447 14.2245 19.0076V15.9043C14.2245 15.628 14.4482 15.4043 14.7245 15.4043C15.0008 15.4043 15.2245 15.628 15.2245 15.9043V19.0076C15.2245 21.7961 12.9559 24.0647 10.1674 24.0647Z" fill="#003B5E"/>
<path id="Vector_21" d="M8.46739 16.4776C8.24591 16.4776 8.04331 16.3291 7.98405 16.1051C7.91368 15.838 8.07331 15.5647 8.34035 15.4943C9.13628 15.2847 9.89887 14.9039 10.6074 14.3628C10.84 14.1851 11.0703 13.9869 11.2918 13.7743C11.41 13.661 11.5759 13.6121 11.7366 13.6447C11.8974 13.6769 12.0318 13.7858 12.097 13.9358C12.2211 14.2217 12.4403 14.4943 12.6985 14.6839C12.7015 14.6862 12.7044 14.6884 12.707 14.6902C12.9196 14.8532 13.1929 14.9291 13.567 14.9291C14.0089 14.9291 14.9281 14.9291 15.1989 15.7469C15.2855 16.0091 15.1437 16.2921 14.8815 16.3788C14.6192 16.4658 14.3363 16.3236 14.2496 16.0614C14.2059 15.9291 13.7744 15.9291 13.567 15.9291C12.9718 15.9291 12.4926 15.7847 12.1026 15.4869C11.8833 15.3254 11.6859 15.1299 11.52 14.9121C11.4189 14.9969 11.3166 15.0788 11.2141 15.1573C10.4003 15.7791 9.51924 16.2176 8.59479 16.4614C8.5522 16.4725 8.50924 16.478 8.46702 16.478L8.46739 16.4776Z" fill="#003B5E"/>
<path id="Vector_22" d="M5.70149 16.539C5.62926 16.539 5.56 16.5298 5.49223 16.5109C5.2263 16.436 5.07149 16.1598 5.1463 15.8942C5.21593 15.6464 5.46038 15.4953 5.70852 15.536C5.92445 15.4938 6.53075 15.1023 6.89741 14.8657C7.62 14.399 8.01815 14.1523 8.36371 14.1523C8.36889 14.1523 8.37408 14.1523 8.37926 14.1523C8.65519 14.1583 8.87445 14.3868 8.86852 14.6631C8.86297 14.9283 8.65149 15.1409 8.39 15.152C8.22889 15.196 7.75556 15.502 7.44001 15.7057C6.64334 16.2201 6.12593 16.5394 5.70149 16.5394V16.539Z" fill="#003B5E"/>
<path id="Vector_23" d="M10.2619 25.8789C9.41037 25.8789 8.55852 25.6638 7.79593 25.2323L7.43481 25.0282L7.75407 23.1193C7.79963 22.8467 8.05778 22.663 8.32963 22.7086C8.60185 22.7541 8.78593 23.0119 8.74037 23.2841L8.53815 24.4919C9.62556 25.0089 10.8985 25.0082 11.9844 24.4919L11.7822 23.2838C11.7367 23.0115 11.9204 22.7538 12.193 22.7082C12.4652 22.6623 12.723 22.8463 12.7685 23.1189L13.087 25.0226L12.7893 25.1967C12.0119 25.6512 11.1367 25.8786 10.2611 25.8786L10.2619 25.8789Z" fill="#003B5E"/>
<path id="Vector_24" d="M7.3648 32.9638C5.7148 32.9638 4.06628 32.9627 2.43072 32.9605L1.93146 32.9598V32.4631C1.92924 32.2709 1.92628 32.0786 1.92332 31.8861C1.90961 31.0123 1.89554 30.1086 1.95739 29.2079L1.96035 29.1638L1.97109 29.1209C2.00702 28.9764 2.04109 28.8401 2.07554 28.6701C2.35295 27.0212 3.35998 25.6501 4.91258 24.8075C5.1285 24.679 5.34146 24.5938 5.52961 24.5186L5.54443 24.5131C6.41776 24.1957 7.11554 24.0898 8.03369 24.1349C8.30961 24.1486 8.52183 24.3831 8.5085 24.659C8.4948 24.9349 8.26109 25.1483 7.98443 25.1338C7.20369 25.0953 6.63628 25.1809 5.89332 25.4501C5.7248 25.5175 5.56554 25.5816 5.41665 25.6709L5.39702 25.682C4.11406 26.3753 3.28406 27.4979 3.05998 28.8427L3.05702 28.8586C3.02146 29.0368 2.98591 29.182 2.95146 29.3201C2.89554 30.1646 2.90924 31.0312 2.92258 31.8701C2.92295 31.9001 2.92369 31.9305 2.92406 31.9605C6.03517 31.9642 9.18887 31.9642 12.3059 31.9598H12.3067C12.5826 31.9598 12.8063 32.1831 12.8067 32.459C12.8067 32.7353 12.5833 32.9594 12.3074 32.9598C10.6663 32.962 9.0148 32.9631 7.3648 32.9631V32.9638Z" fill="#003B5E"/>
<path id="Vector_25" d="M14.5656 25.4091C14.5111 25.4091 14.4556 25.4003 14.4015 25.3814C13.9008 25.2073 13.3756 25.1191 12.8397 25.1191C12.5634 25.1191 12.3397 24.8951 12.3397 24.6191C12.3397 24.3428 12.5634 24.1191 12.8397 24.1191C13.4874 24.1191 14.123 24.2262 14.7297 24.4369C14.9904 24.5277 15.1285 24.8125 15.0378 25.0732C14.966 25.2795 14.7726 25.4091 14.5656 25.4091Z" fill="#003B5E"/>
<path id="Vector_26" d="M5.26813 32.8224C4.99183 32.8224 4.76813 32.5986 4.76813 32.3224V28.4668C4.76813 28.1905 4.99183 27.9668 5.26813 27.9668C5.54442 27.9668 5.76813 28.1905 5.76813 28.4668V32.3224C5.76813 32.5986 5.54442 32.8224 5.26813 32.8224Z" fill="#003B5E"/>
<path id="Vector_27" d="M5.01145 23.7422C4.76738 23.7422 4.61293 23.5878 4.54664 23.5219C4.4896 23.4648 4.44738 23.3952 4.4233 23.3185C3.4233 20.1448 3.37553 17.2467 4.28108 14.7041C4.79849 13.2252 5.87812 11.9667 7.48812 10.9656C7.49256 10.963 7.49701 10.96 7.50145 10.9574C8.15664 10.5782 8.95516 10.1726 9.90664 10.043C9.91738 10.0415 9.92775 10.0404 9.93849 10.0396C10.4537 10.0026 11.0152 9.99297 11.63 10.1689C11.634 10.17 11.6377 10.1711 11.6418 10.1722C12.5315 10.4504 13.1137 10.8845 13.4215 11.5C13.4248 11.5067 13.4281 11.5137 13.4311 11.5204C13.524 11.7296 13.6155 11.9648 13.6633 12.2248C13.9163 12.2511 14.1496 12.3289 14.3548 12.397C14.3677 12.4015 14.3807 12.4063 14.3937 12.4119C15.0985 12.7141 15.4929 13.2737 15.7292 13.6759C16.0218 14.0989 16.1877 14.5237 16.3329 14.9226C16.3381 14.9363 16.3422 14.9504 16.3463 14.9644C16.5207 15.6193 16.6229 16.1956 16.6585 16.7267C16.6977 17.3526 16.6589 17.9707 16.6215 18.5689C16.6211 18.5752 16.6207 18.5811 16.62 18.5874C16.5952 18.8344 16.5555 19.0648 16.517 19.2874C16.4944 19.4182 16.4711 19.5537 16.4511 19.6907C16.4111 19.9641 16.1574 20.153 15.884 20.1133C15.6107 20.0733 15.4215 19.8196 15.4615 19.5463C15.4833 19.3959 15.5077 19.2541 15.5315 19.117C15.5681 18.9052 15.6026 18.7048 15.6237 18.4967C15.6607 17.9067 15.6952 17.3493 15.66 16.7907C15.6292 16.3326 15.5396 15.8256 15.3852 15.243C15.2577 14.8941 15.1233 14.5545 14.8974 14.2315C14.8896 14.22 14.8822 14.2085 14.8752 14.1967C14.6155 13.7519 14.3503 13.4859 14.0166 13.3382C13.7566 13.2515 13.5307 13.1793 13.3518 13.2345C13.3429 13.2374 13.334 13.2404 13.3248 13.243C13.2926 13.2522 13.26 13.2582 13.227 13.2607C13.227 13.2607 13.2263 13.2607 13.2259 13.2607C13.2259 13.2607 13.2252 13.2607 13.2248 13.2607C13.2248 13.2607 13.224 13.2607 13.2237 13.2607C13.2237 13.2607 13.2229 13.2607 13.2226 13.2607H13.2218C13.2218 13.2607 13.2211 13.2607 13.2207 13.2607C13.1763 13.2637 13.1318 13.2607 13.0881 13.2522C13.0881 13.2522 13.0881 13.2522 13.0874 13.2522C13.0874 13.2522 13.0874 13.2522 13.087 13.2522C13.087 13.2522 13.0866 13.2522 13.0863 13.2522C13.0863 13.2522 13.0859 13.2522 13.0855 13.2522C13.0855 13.2522 13.0852 13.2522 13.0848 13.2522C13.0848 13.2522 13.0844 13.2522 13.084 13.2522C13.084 13.2522 13.0837 13.2522 13.0833 13.2522H13.0826C13.0826 13.2522 13.0822 13.2522 13.0818 13.2522C13.0418 13.2437 13.0029 13.2304 12.9659 13.2126C12.9659 13.2126 12.9659 13.2126 12.9655 13.2126C12.9655 13.2126 12.9655 13.2126 12.9652 13.2126H12.9648C12.9277 13.1941 12.8926 13.1711 12.8603 13.1433C12.8577 13.1411 12.8552 13.1385 12.8522 13.1363H12.8518V13.1356C12.8518 13.1356 12.8515 13.1352 12.8511 13.1348C12.8333 13.1185 12.8166 13.1011 12.8015 13.083C12.8015 13.083 12.8011 13.0826 12.8007 13.0822C12.8007 13.0822 12.8007 13.0819 12.8003 13.0815C12.8003 13.0815 12.8003 13.0815 12.8 13.0811C12.8 13.0811 12.8 13.0811 12.8 13.0807C12.8 13.0807 12.8 13.0807 12.7996 13.0804C12.7996 13.0804 12.7996 13.08 12.7992 13.0796C12.7992 13.0796 12.7992 13.0793 12.7989 13.0789C12.7989 13.0789 12.7989 13.0785 12.7985 13.0782C12.7703 13.0433 12.7474 13.0048 12.7296 12.9641C12.7296 12.9641 12.7296 12.9641 12.7296 12.9637C12.7296 12.9637 12.7296 12.9637 12.7296 12.9633C12.7089 12.9152 12.6959 12.8641 12.6915 12.8111V12.8104V12.8096C12.6915 12.8096 12.6915 12.8096 12.6915 12.8093C12.6915 12.8093 12.6915 12.8093 12.6915 12.8089C12.6915 12.8089 12.6915 12.8089 12.6915 12.8085C12.6915 12.8085 12.6915 12.8082 12.6915 12.8078C12.6915 12.8078 12.6915 12.8074 12.6915 12.807C12.6915 12.807 12.6915 12.8067 12.6915 12.8063C12.6892 12.7778 12.6896 12.7493 12.6922 12.7204C12.6952 12.6889 12.6974 12.6648 12.6992 12.6467C12.7122 12.4215 12.6392 12.1996 12.5255 11.9422C12.3422 11.5841 11.9692 11.3267 11.3529 11.133C10.92 11.0104 10.51 11.0067 10.0296 11.0404C9.26182 11.1482 8.60664 11.48 8.01293 11.8233C6.60516 12.7 5.66812 13.7826 5.22738 15.0411C4.4233 17.2985 4.44479 19.8822 5.29034 22.727C5.74071 22.7048 6.18034 22.7126 6.60849 22.72C6.94367 22.7259 7.29034 22.7319 7.63256 22.7233C7.90664 22.7159 8.13812 22.9341 8.14553 23.21C8.15256 23.4859 7.93479 23.7156 7.65886 23.723C7.29479 23.7326 6.93701 23.7263 6.59108 23.72C6.06479 23.7107 5.56775 23.7019 5.05664 23.7445C5.04293 23.7456 5.02886 23.7463 5.01516 23.7463L5.01145 23.7422Z" fill="#003B5E"/>
<path id="Vector_28" d="M21.8822 24.3967C21.8822 24.3967 21.63 23.8097 21.0948 23.8097C21.0929 23.8097 21.0911 23.8097 21.0892 23.8097C21.0741 23.809 21.0589 23.8086 21.0433 23.8086C21.0422 23.8086 21.0407 23.8086 21.0396 23.8086C21.0396 23.8086 21.037 23.8086 21.0359 23.8086C21.0204 23.8086 21.0048 23.809 20.99 23.8097C20.9881 23.8097 20.9863 23.8097 20.9844 23.8097C20.44 23.8097 20.197 24.3967 20.197 24.3967C20.1955 24.4023 20.1937 24.4079 20.1922 24.413C20.1366 24.6234 20.2626 24.839 20.4729 24.8945C20.5066 24.9034 20.5404 24.9075 20.5737 24.9075C20.7426 24.9075 20.8978 24.7979 20.9496 24.6304C20.9541 24.6204 20.9644 24.6049 21.0037 24.599C21.0141 24.5975 21.0255 24.5964 21.0396 24.5964C21.0537 24.5964 21.0652 24.5975 21.0755 24.599C21.1148 24.6049 21.1252 24.6204 21.1296 24.6304C21.1815 24.7979 21.3366 24.9075 21.5055 24.9075C21.5389 24.9075 21.5726 24.9034 21.6063 24.8945C21.8166 24.839 21.9422 24.6238 21.887 24.413C21.8855 24.4079 21.8841 24.4023 21.8822 24.3967Z" fill="#F99600"/>
<path id="Vector_29" d="M17.9992 24.3967C17.9992 24.3967 17.747 23.8097 17.2118 23.8097C17.21 23.8097 17.2081 23.8097 17.2063 23.8097C17.1911 23.809 17.1759 23.8086 17.1603 23.8086C17.1592 23.8086 17.1578 23.8086 17.1566 23.8086C17.1566 23.8086 17.1541 23.8086 17.1529 23.8086C17.1374 23.8086 17.1218 23.809 17.107 23.8097C17.1052 23.8097 17.1033 23.8097 17.1015 23.8097C16.557 23.8097 16.3141 24.3967 16.3141 24.3967C16.3126 24.4023 16.3107 24.4079 16.3092 24.413C16.2537 24.6234 16.3796 24.839 16.59 24.8945C16.6237 24.9034 16.6574 24.9075 16.6907 24.9075C16.8596 24.9075 17.0148 24.7979 17.0666 24.6304C17.0711 24.6204 17.0815 24.6049 17.1207 24.599C17.1311 24.5975 17.1426 24.5964 17.1566 24.5964C17.1707 24.5964 17.1822 24.5975 17.1926 24.599C17.2318 24.6049 17.2422 24.6204 17.2466 24.6304C17.2985 24.7979 17.4537 24.9075 17.6226 24.9075C17.6559 24.9075 17.6896 24.9034 17.7233 24.8945C17.9337 24.839 18.0592 24.6238 18.0041 24.413C18.0026 24.4079 18.0011 24.4023 17.9992 24.3967Z" fill="#F99600"/>
<path id="Vector_30" d="M19.0363 29.4147C16.4311 29.4147 14.3115 27.295 14.3115 24.6899V21.9162C14.3115 20.808 14.8415 19.9217 15.8444 19.3521C15.9304 19.3032 16.047 19.1773 16.16 19.055C16.5566 18.6258 17.2044 17.925 18.447 18.4354C18.6615 18.3302 18.9952 18.1969 19.397 18.1395C20.0533 18.0458 21.0052 18.141 21.8115 19.1273C21.9741 19.3258 22.1748 19.4836 22.3874 19.6506C22.9992 20.1313 23.7607 20.7295 23.7607 22.5073V24.6899C23.7607 27.295 21.6411 29.4147 19.0359 29.4147H19.0363ZM17.64 19.2588C17.3333 19.2588 17.1466 19.4606 16.8941 19.7339C16.7292 19.9121 16.5592 20.0962 16.3381 20.2217C15.6474 20.6139 15.3115 21.168 15.3115 21.9162V24.6899C15.3115 26.7436 16.9822 28.4147 19.0363 28.4147C21.0904 28.4147 22.7611 26.7439 22.7611 24.6899V22.5073C22.7611 21.2158 22.3237 20.8721 21.77 20.4369C21.5355 20.2528 21.27 20.0443 21.0378 19.7602C20.6285 19.2599 20.1478 19.0521 19.5685 19.1254C19.1007 19.1843 18.7444 19.4113 18.7407 19.4136L18.4978 19.5739L18.2404 19.4402C17.9904 19.3132 17.7989 19.2588 17.6396 19.2588H17.64Z" fill="#F99600"/>
<path id="Vector_31" d="M14.9129 23.2412C14.8592 23.2412 14.8248 23.2405 14.8133 23.2401C14.5374 23.2324 14.32 23.002 14.3277 22.7261C14.3355 22.4501 14.5655 22.2331 14.8418 22.2405C15.5752 22.2586 17.5863 22.0783 18.0966 21.0227C18.1566 20.8986 18.2652 20.8049 18.3963 20.7635C18.5277 20.722 18.6703 20.7364 18.7903 20.8038C18.8011 20.8098 19.9092 21.4246 21.25 21.9049C22.0692 22.1986 22.98 22.1157 22.9889 22.1146C23.264 22.0886 23.5081 22.2898 23.5344 22.5646C23.5607 22.8394 23.3592 23.0838 23.0844 23.1101C23.0381 23.1146 21.9396 23.2146 20.9126 22.8464C19.9874 22.5146 19.1815 22.1309 18.7181 21.8957C17.6877 23.1672 15.4244 23.2412 14.9129 23.2412Z" fill="#F99600"/>
<path id="Vector_32" d="M19.0359 30.8504C18.2722 30.8504 17.5093 30.6519 16.8311 30.2556C16.6496 30.1493 16.5537 29.9411 16.5915 29.7341L16.8159 28.5045C16.8656 28.233 17.1259 28.053 17.3974 28.1023C17.6689 28.1519 17.8493 28.4122 17.7996 28.6837L17.6415 29.55C18.5245 29.9504 19.5467 29.9508 20.4307 29.55L20.2726 28.6837C20.223 28.4122 20.403 28.1515 20.6748 28.1019C20.9463 28.0526 21.207 28.2322 21.2567 28.5041L21.4811 29.7337C21.5193 29.9434 21.4207 30.1541 21.2352 30.2589L21.187 30.2863C20.5222 30.6622 19.7793 30.85 19.0367 30.85L19.0359 30.8504Z" fill="#F99600"/>
<path id="Vector_33" d="M26.2544 36.9281H11.8178V34.2055C11.8178 31.4451 14.0637 29.1992 16.8241 29.1992C17.1004 29.1992 17.3241 29.4229 17.3241 29.6992C17.3241 29.9755 17.1004 30.1992 16.8241 30.1992C14.6148 30.1992 12.8178 31.9966 12.8178 34.2055V35.9281H25.2544V34.2055C25.2544 31.9963 23.457 30.1992 21.2482 30.1992H20.8096C20.5333 30.1992 20.3096 29.9755 20.3096 29.6992C20.3096 29.4229 20.5333 29.1992 20.8096 29.1992H21.2482C24.0089 29.1992 26.2544 31.4451 26.2544 34.2055V36.9281Z" fill="#F99600"/>
<path id="Vector_34" d="M23.3207 36.8081C23.0444 36.8081 22.8207 36.5844 22.8207 36.3081V33C22.8207 32.7237 23.0444 32.5 23.3207 32.5C23.597 32.5 23.8207 32.7237 23.8207 33V36.3081C23.8207 36.5844 23.597 36.8081 23.3207 36.8081Z" fill="#F99600"/>
<path id="Vector_35" d="M14.9244 36.8081C14.6481 36.8081 14.4244 36.5844 14.4244 36.3081V33C14.4244 32.7237 14.6481 32.5 14.9244 32.5C15.2007 32.5 15.4244 32.7237 15.4244 33V36.3081C15.4244 36.5844 15.2007 36.8081 14.9244 36.8081Z" fill="#F99600"/>
</g>
</svg>
