<svg width="40" height="40" viewBox="0 0 40 40" fill="none" xmlns="http://www.w3.org/2000/svg">
<g id="icon-individu">
<circle id="Ellipse 213" cx="20" cy="20" r="19" fill="#DCF5F0"/>
<g id="g10">
<g id="g12">
<path id="path14" d="M26.2144 33.7891L26.0751 13.0989L24.4322 10.8991L22.7616 11.3448L22.1489 9.11687L20.7009 8.67156L19.4198 9.22844L18.863 6.44359L17.415 5.88672L16.3008 6.88937L16.2455 9.45109L14.9644 8.67156L13.4606 9.11687L12.9037 9.84109L13.0153 16.413L11.6784 15.3545L10.6205 15.8561L9.89624 16.3572L10.0636 23.2633L11.01 25.7692L12.6253 27.2172L13.9064 28.1641L14.5186 29.1109L14.0175 33.6498L26.2144 33.7891Z" fill="#F3FCFF"/>
</g>
<g id="g16">
<g id="Clip path group">
<mask id="mask0_3818_24407" style="mask-type:luminance" maskUnits="userSpaceOnUse" x="5" y="5" width="30" height="30">
<g id="clipPath22">
<path id="path20" d="M5 5H35V35H5V5Z" fill="white"/>
</g>
</mask>
<g mask="url(#mask0_3818_24407)">
<g id="g18">
<g id="g24">
<path id="path26" d="M24.3207 11.2065C23.7896 10.846 23.2585 11.0415 22.974 11.2027C23.0082 11.9157 22.944 12.6535 22.9421 13.3088C22.9412 13.793 22.5479 14.1512 22.0792 14.1723C21.6137 14.1929 21.2148 13.7602 21.2157 13.3088C21.2171 12.8846 21.2462 12.4609 21.257 12.0366C21.2631 11.8159 21.265 11.5946 21.257 11.3738C21.2532 11.2721 21.2476 11.1704 21.2396 11.0691C21.2354 11.0204 21.2303 10.9716 21.2251 10.9234C21.2246 10.922 21.2246 10.922 21.2246 10.9205C21.189 10.7312 21.1389 10.5535 21.0798 10.3716C21.0573 10.3309 21.0362 10.2891 21.0118 10.2493C21.0048 10.238 20.9889 10.2155 20.9739 10.1954L20.9729 10.1935C20.9471 10.1663 20.919 10.1415 20.8923 10.1157C20.8609 10.0984 20.8285 10.0801 20.7971 10.0618C20.7428 10.0477 20.6879 10.0341 20.6331 10.0205C20.6312 10.0205 20.6167 10.0173 20.5895 10.0102C20.5585 10.0037 20.5192 9.99664 20.4901 9.99524C20.4212 9.99242 20.3523 9.99336 20.2829 9.99524C20.1212 9.99945 19.9745 9.95399 19.8493 9.87617C19.8118 10.4565 19.7434 11.0349 19.7101 11.6152C19.6421 12.819 19.6426 14.0251 19.6426 15.2302C19.6426 16.343 17.9162 16.3412 17.9162 15.2302C17.9162 13.4204 18.0104 11.6359 18.1257 9.83211C18.1651 9.22086 18.1726 8.61008 18.0423 8.11742C18.0268 8.05977 18.009 8.00258 17.9917 7.94539C17.9832 7.91867 17.9781 7.90086 17.9734 7.88539C17.9706 7.88024 17.9692 7.87789 17.965 7.86899C17.935 7.80523 17.8998 7.7443 17.8642 7.68336C17.8492 7.65758 17.844 7.64727 17.8403 7.6393C17.8379 7.63836 17.8365 7.63789 17.8257 7.62617C17.7878 7.58445 17.7465 7.54367 17.7029 7.50664C17.6907 7.49914 17.6673 7.48461 17.6471 7.47289C17.5857 7.43773 17.5126 7.41149 17.3382 7.37445C16.854 7.27133 16.6787 6.88414 16.7275 6.5068L16.3009 6.89024L16.2451 9.45195L15.1918 8.8107C16.8296 10.6355 16.3084 13.3177 16.3009 15.5645C16.2971 16.6768 14.5707 16.6754 14.5745 15.5645C14.5782 14.4943 14.6992 13.427 14.6589 12.3563C14.6532 12.2087 14.6448 12.0615 14.6321 11.9143C14.627 11.8562 14.6209 11.798 14.6153 11.7395C14.6134 11.7155 14.612 11.7015 14.611 11.6907C14.6106 11.6865 14.6092 11.6795 14.6073 11.6677C14.5689 11.4165 14.5168 11.1671 14.4428 10.9238C14.4104 10.8179 14.3739 10.7124 14.3321 10.6093C14.319 10.5826 14.2956 10.5315 14.2885 10.5188C14.2557 10.4593 14.2262 10.3984 14.192 10.3398C14.0387 10.0759 14.05 10.0927 13.825 9.86773C13.5789 9.62117 13.5292 9.33242 13.6014 9.07649L13.4607 9.1182L12.9039 9.84195L13.015 16.4138L12.7037 16.1673C13.404 17.2909 13.0103 19.0941 12.9971 20.297C12.9962 20.387 12.9962 20.477 13.0014 20.567C13.0028 20.5946 12.9995 20.6368 12.9957 20.6729C12.9976 20.6598 12.999 20.6485 13.0014 20.6298C13.007 20.6612 13.014 20.6921 13.0225 20.7226C13.0243 20.7277 13.0229 20.7254 13.0243 20.7296C13.0478 20.7441 13.0717 20.7577 13.096 20.7704C13.1054 20.7737 13.1115 20.776 13.1242 20.7802C13.2301 20.8088 13.3337 20.8412 13.441 20.8646C13.6379 20.9087 13.8371 20.9396 14.035 20.9804C15.257 21.2316 16.3225 22.1434 17.0185 23.1488C17.2853 23.5337 17.0879 24.1079 16.7087 24.3296C16.2845 24.5776 15.7928 24.4027 15.5279 24.0198C15.2115 23.5627 14.7643 23.198 14.2937 22.9084C14.2243 22.8657 14.154 22.824 14.0832 22.7841C14.0725 22.779 14.0668 22.7762 14.0584 22.772C13.9829 22.7448 13.9051 22.7223 13.8278 22.7021C13.6042 22.644 13.3759 22.6084 13.1495 22.5638C12.6943 22.4743 12.2382 22.3337 11.8825 22.0229C11.4821 21.6732 11.327 21.204 11.2834 20.6902C11.2187 19.9327 11.3598 19.1635 11.3832 18.406C11.3898 18.182 11.3907 17.957 11.3757 17.7329C11.372 17.6748 11.3659 17.6166 11.3598 17.5585C11.3537 17.543 11.3246 17.3766 11.3181 17.3509C11.3101 17.3199 11.2553 17.1709 11.2567 17.1577C11.2365 17.1221 11.2164 17.0865 11.1995 17.0495C11.1985 17.0485 11.1981 17.048 11.1971 17.0466C11.1817 17.0298 11.1653 17.0129 11.1484 16.997C11.1043 16.9735 11.05 16.944 11.034 16.9365C10.637 16.741 10.5189 16.2015 10.6946 15.8218L10.6201 15.857L9.89636 16.358L10.0632 23.2641L11.0101 25.7701L12.625 27.218L13.906 28.1649L14.5187 29.1118L14.0176 33.6507L23.9204 33.7637C24.46 26.2993 25.1003 11.7357 24.3207 11.2065Z" fill="#DEF6FF"/>
</g>
<g id="g28">
<path id="path30" d="M18.7515 28.0804C18.7515 31.1718 21.2574 33.6777 24.3488 33.6777C27.4397 33.6777 29.9457 31.1718 29.9457 28.0804C29.9457 24.989 27.4397 22.483 24.3488 22.483C21.2574 22.483 18.7515 24.989 18.7515 28.0804Z" fill="#FFF6E6"/>
</g>
<g id="g32">
<path id="path34" d="M18.7515 28.2477C18.7515 31.2468 20.8337 33.6777 23.4019 33.6777C25.9702 33.6777 28.0524 31.2468 28.0524 28.2477C28.0524 25.2487 25.9702 22.8177 23.4019 22.8177C20.8337 22.8177 18.7515 25.2487 18.7515 28.2477Z" fill="#FFE6B3"/>
</g>
</g>
</g>
</g>
</g>
<g id="g36">
<g id="Clip path group_2">
<mask id="mask1_3818_24407" style="mask-type:luminance" maskUnits="userSpaceOnUse" x="5" y="5" width="30" height="30">
<g id="clipPath42">
<path id="path40" d="M5 5H35V35H5V5Z" fill="white"/>
</g>
</mask>
<g mask="url(#mask1_3818_24407)">
<g id="g38">
<g id="g44">
<path id="path46" d="M13.0211 20.7999C13.0211 20.7999 15.828 21.1234 17.2558 23.8496" stroke="#003B5E" stroke-miterlimit="10" stroke-linecap="round" stroke-linejoin="round"/>
</g>
<g id="g48">
<path id="path50" d="M19.3345 13.6794V10.3255C19.3345 9.45406 20.0409 8.74766 20.9123 8.74766C21.7837 8.74766 22.4901 9.45406 22.4901 10.3255V13.6794V17.6914" stroke="#003B5E" stroke-miterlimit="10" stroke-linecap="round" stroke-linejoin="round"/>
</g>
<g id="g52">
<path id="path54" d="M16.1789 10.3246C16.1789 9.4532 15.4725 8.7468 14.601 8.7468C13.7296 8.7468 13.0232 9.4532 13.0232 10.3246L13.0214 20.7988" stroke="#003B5E" stroke-miterlimit="10" stroke-linecap="round" stroke-linejoin="round"/>
</g>
<g id="g56">
<path id="path58" d="M16.1788 16.5898V13.6813V7.63109C16.1788 6.75969 16.8852 6.05328 17.7566 6.05328C18.6281 6.05328 19.3345 6.75969 19.3345 7.63109V13.6813V16.5898" stroke="#003B5E" stroke-miterlimit="10" stroke-linecap="round" stroke-linejoin="round"/>
</g>
<g id="g60">
<path id="path62" d="M14.1085 33.2422L14.5027 29.9019C14.5533 28.9048 14.0279 27.9631 13.1447 27.4972C11.1858 26.4636 9.86255 24.3833 9.86255 22.0288V18.7039V16.9475C9.86255 16.5158 10.0388 16.1178 10.3285 15.8333C10.6927 15.462 11.244 15.2773 11.814 15.4109C12.5396 15.5806 13.0229 16.2734 13.0229 17.0188V18.7039V20.7842" stroke="#003B5E" stroke-miterlimit="10" stroke-linecap="round" stroke-linejoin="round"/>
</g>
<g id="g64">
<path id="path66" d="M22.4905 13.681V12.4848C22.4905 12.0474 22.6705 11.6485 22.9522 11.3663C23.2588 11.0602 23.6961 10.8755 24.1775 10.9093C25.0189 10.9679 25.6461 11.7216 25.6461 12.5626V20.4043" stroke="#003B5E" stroke-miterlimit="10" stroke-linecap="round" stroke-linejoin="round"/>
</g>
<g id="g68">
<path id="path70" d="M23.6419 25.7855C22.5698 25.7855 21.7069 26.6541 21.7069 27.7205C21.7069 29.0508 22.7897 30.1341 24.12 30.1341C25.7916 30.1341 27.1383 28.7817 27.1383 27.1158C27.1383 25.0322 25.4503 23.3391 23.3672 23.3391C20.7614 23.3391 18.6501 25.4555 18.6501 28.0561C18.6501 31.2061 21.113 33.7734 24.2189 33.9492H24.3619" stroke="#F99600" stroke-miterlimit="10" stroke-linecap="round" stroke-linejoin="round"/>
</g>
<g id="g72">
<path id="path74" d="M30.1373 28.178C30.1373 31.3665 27.5526 33.9512 24.3642 33.9512C21.1758 33.9512 18.5911 31.3665 18.5911 28.178C18.5911 24.9896 21.1758 22.4049 24.3642 22.4049C27.5526 22.4049 30.1373 24.9896 30.1373 28.178Z" stroke="#F99600" stroke-miterlimit="10" stroke-linecap="round" stroke-linejoin="round"/>
</g>
</g>
</g>
</g>
</g>
</g>
</g>
</svg>
